<svg width="72" height="72" viewBox="0 0 24 24" fill="none" xmlns="http://www.w3.org/2000/svg" data-reactroot="">
<path stroke-linejoin="round" stroke-linecap="round" stroke-miterlimit="10" stroke-width="1" stroke="#ffffff" fill="none" d="M13 7H7L10 2L13 7Z"></path>
<path fill="none" d="M16 22V19C13.24 19 11 16.76 11 14C11 13.29 11.15 12.61 11.41 12H4H11.41H4V22" undefined="1"></path>
<path stroke-linejoin="round" stroke-linecap="round" stroke-miterlimit="10" stroke-width="1" stroke="#ffffff" d="M16 22V19C13.24 19 11 16.76 11 14C11 13.29 11.15 12.61 11.41 12H4H11.41H4V22"></path>
<path stroke-linejoin="round" stroke-linecap="round" stroke-miterlimit="10" stroke-width="1" stroke="#ffffff" fill="none" d="M14.36 9.27C13.04 9.73 11.97 10.73 11.41 12H4L7 7H13L14.36 9.27Z"></path>
<path stroke-linejoin="round" stroke-linecap="round" stroke-miterlimit="10" stroke-width="1" stroke="#ffffff" fill="none" d="M16 19C18.7614 19 21 16.7614 21 14C21 11.2386 18.7614 9 16 9C13.2386 9 11 11.2386 11 14C11 16.7614 13.2386 19 16 19Z"></path>
<path stroke-linejoin="round" stroke-miterlimit="10" stroke-width="1" stroke="#ffffff" d="M13 14H19"></path>
<path stroke-linejoin="round" stroke-miterlimit="10" stroke-width="1" stroke="#ffffff" d="M16 11V17"></path>
</svg>
