<?xml version="1.0" encoding="UTF-8" standalone="no"?>
<!DOCTYPE svg PUBLIC "-//W3C//DTD SVG 1.1//EN" "http://www.w3.org/Graphics/SVG/1.1/DTD/svg11.dtd">
<svg width="100%" height="100%" viewBox="0 0 200 500" version="1.1" xmlns="http://www.w3.org/2000/svg" xmlns:xlink="http://www.w3.org/1999/xlink" xml:space="preserve" xmlns:serif="http://www.serif.com/" style="fill-rule:evenodd;clip-rule:evenodd;stroke-linejoin:round;stroke-miterlimit:2;">
    <g id="DOWN" transform="matrix(1,0,0,1,0,-19.5552)">
        <g transform="matrix(0.964878,0.262698,-0.262698,0.964878,-161.291,-107.541)">
            <path d="M402.929,487.672C403.181,487.404 403.608,487.099 403.822,486.716C404.872,484.832 405.819,482.153 406.741,478.923C411.091,463.686 414.361,437.187 418.372,418.246C420.163,409.787 422.152,402.761 424.355,398.605C425.453,396.532 428.028,395.741 430.1,396.84C432.173,397.939 432.963,400.513 431.865,402.586C428.685,408.582 426.246,421.237 423.819,435.109C420.407,454.608 417.162,476.421 412.931,487.164C411.528,490.726 409.89,493.252 408.28,494.62C406.219,496.371 404.007,496.838 401.722,496.208C397.683,495.096 391.636,490.761 384.728,484.431C368.278,469.357 345.631,442.861 331.629,431.396C329.815,429.909 329.548,427.23 331.034,425.415C332.521,423.6 335.201,423.334 337.015,424.82C351.102,436.361 373.908,463.006 390.458,478.18C395.474,482.78 399.743,486.341 402.929,487.672Z" style="fill:white;"/>
        </g>
        <g transform="matrix(1,0,0,1,-5.34183,37.9579)">
            <path d="M136.145,181.659C140.283,168.789 143.273,155.21 144.563,142.065C146.891,118.339 140.84,94.484 132.409,73.879C118.06,38.813 96.729,13.079 96.729,13.079C95.231,11.274 95.481,8.592 97.287,7.095C99.092,5.597 101.773,5.847 103.271,7.652C103.271,7.652 131.156,41.258 145.37,84.446C151.417,102.817 154.984,122.905 153.022,142.895C151.657,156.808 148.455,171.174 144.027,184.778C148.595,187.309 152.337,190.926 154.853,195.717C159.566,204.689 160.131,218.24 152.758,237.369C131.785,291.783 118.308,318.455 110.918,336.165C106.816,345.996 104.643,352.888 104.244,360.474C104.121,362.816 102.12,364.618 99.777,364.495C97.435,364.372 95.633,362.371 95.756,360.028C96.2,351.57 98.5,343.853 103.074,332.892C110.447,315.22 123.899,288.608 144.827,234.312C150.968,218.381 151.253,207.142 147.329,199.67C145.83,196.817 143.735,194.589 141.204,192.91C133.217,214.522 122.303,233.442 111.124,244.392C103.118,252.234 94.795,256.08 87.249,255.159C80.024,254.278 73.013,249.127 67.511,237.681C61.579,225.342 64.447,213.558 72.281,203.81C81.906,191.836 99.362,183.06 115.898,180.776C123.058,179.788 130.009,180.036 136.145,181.659ZM133.405,189.63C128.461,188.446 122.812,188.402 117.061,189.196C102.628,191.189 87.307,198.684 78.906,209.135C73.147,216.3 70.811,224.929 75.171,233.999C79.27,242.526 83.93,246.713 89.376,246.797C92.967,246.852 96.675,245.182 100.452,242.389C105.228,238.857 109.995,233.546 114.568,227C121.635,216.882 128.186,203.866 133.405,189.63Z" style="fill:white;"/>
        </g>
    </g>
</svg>
