<?xml version="1.0" encoding="UTF-8" standalone="no"?>
<!DOCTYPE svg PUBLIC "-//W3C//DTD SVG 1.1//EN" "http://www.w3.org/Graphics/SVG/1.1/DTD/svg11.dtd">
<svg width="100%" height="100%" viewBox="0 0 200 500" version="1.1" xmlns="http://www.w3.org/2000/svg" xmlns:xlink="http://www.w3.org/1999/xlink" xml:space="preserve" xmlns:serif="http://www.serif.com/" style="fill-rule:evenodd;clip-rule:evenodd;stroke-linejoin:round;stroke-miterlimit:2;">
    <g id="DOWN">
        <g transform="matrix(0.942266,0.334866,-0.334866,0.942266,-120.455,-143.958)">
            <path d="M400.799,480.005C401.131,479.578 401.545,478.718 401.893,478.135C403.222,475.909 404.488,472.764 405.758,469.017C408.927,459.669 411.953,446.814 415.028,434.505C418.647,420.013 422.379,406.306 426.203,399.585C426.761,398.532 428.068,398.131 429.12,398.689C430.172,399.246 430.574,400.553 430.016,401.606C426.719,408.301 424.112,421.764 421.343,435.911C418.859,448.603 416.321,461.833 413.409,471.465C411.261,478.569 408.659,483.822 406.089,486.177C403.815,488.262 401.36,488.811 398.893,488.133C396.122,487.354 392.548,485.418 388.531,482.48C384.836,479.778 380.668,476.236 376.27,472.191C370.686,467.055 364.708,461.122 358.795,455.153C349.417,445.687 340.24,436.139 332.955,429.777C332.034,429.023 331.898,427.662 332.653,426.741C333.408,425.819 334.768,425.684 335.69,426.439C344.434,433.157 355.975,443.702 367.22,453.845C374.535,460.443 381.721,466.845 387.973,471.79C393.16,475.893 397.554,479.022 400.799,480.005ZM400.786,480.021C400.515,479.972 400.232,479.96 400.316,480.138C400.421,480.361 400.589,480.27 400.786,480.021Z" style="fill:white;"/>
        </g>
        <path d="M92.183,60.27C92.183,60.27 92.759,101.231 93.685,154.564C94.028,174.304 94.398,195.737 94.907,217.411C95.319,234.962 95.862,252.668 96.336,269.765C96.849,288.253 97.371,306.021 97.728,322.108C98.38,351.499 98.605,375.24 97.849,387.388C97.756,388.575 98.644,389.615 99.831,389.708C101.018,389.801 102.058,388.913 102.151,387.726C103.694,371.279 104.377,333.55 104.202,289.281C104.119,268.376 103.92,246.012 103.399,223.756C102.873,201.283 102.043,178.923 101.208,158.276C98.977,103.055 96.495,60.116 96.495,60.116C96.453,58.925 95.452,57.994 94.262,58.036C93.072,58.079 92.14,59.08 92.183,60.27Z" style="fill:white;"/>
    </g>
</svg>
