<?xml version="1.0" encoding="UTF-8" standalone="no"?>
<!DOCTYPE svg PUBLIC "-//W3C//DTD SVG 1.1//EN" "http://www.w3.org/Graphics/SVG/1.1/DTD/svg11.dtd">
<svg width="100%" height="100%" viewBox="0 0 300 400" version="1.1" xmlns="http://www.w3.org/2000/svg" xmlns:xlink="http://www.w3.org/1999/xlink" xml:space="preserve" xmlns:serif="http://www.serif.com/" style="fill-rule:evenodd;clip-rule:evenodd;stroke-linejoin:round;stroke-miterlimit:2;">
    <g id="left" transform="matrix(1,0,0,1,-248.87,-19.8798)">
        <g transform="matrix(-0.0151101,-0.999886,0.999886,-0.0151101,51.0095,662.359)">
            <path d="M256.463,353.222C257.312,353.623 258.37,354.043 259.182,354.476C264.635,357.387 273.032,360.774 281.211,364.774C289.02,368.593 296.579,372.962 301.471,377.797C302.348,378.585 302.42,379.937 301.632,380.815C300.843,381.692 299.491,381.764 298.614,380.975C291.971,375.532 280.886,371.506 271.018,367.873C262.356,364.683 254.591,361.768 250.859,359.15C248.352,357.392 247.247,355.353 247.006,353.68C246.727,351.747 247.278,349.7 249.529,347.847C252.691,345.376 260.428,339.981 269,334.49C282.915,325.578 298.856,316.225 298.856,316.225C299.837,315.571 301.165,315.835 301.82,316.816C302.475,317.797 302.21,319.125 301.229,319.78L256.463,353.222ZM255.399,352.633C255.411,352.205 255.412,351.564 255.137,351.818C254.857,352.077 255.007,352.349 255.399,352.633Z" style="fill:white;"/>
        </g>
        <g transform="matrix(1,0,0,1,215.963,52.3833)">
            <path d="M189.519,185.663C187.282,173.773 184.112,161.245 180.38,148.583C160.621,81.542 124.919,10.889 124.919,10.889C124.382,9.856 124.785,8.582 125.817,8.045C126.85,7.508 128.124,7.91 128.661,8.943C128.661,8.943 166.276,79.294 187.326,146.471C191.743,160.566 195.417,174.528 197.882,187.674C214.191,193.45 223.477,208.615 222.431,223.233C221.856,231.163 218.138,241.234 212.995,251.9C202.399,273.874 185.833,298.578 181.191,311.908C180.819,313.011 179.622,313.605 178.519,313.233C177.416,312.862 176.822,311.664 177.194,310.561C181.592,297.055 197.703,271.837 207.925,249.517C212.491,239.548 215.885,230.199 216.275,222.846C216.86,212.006 210.436,200.991 199.244,195.666C199.748,198.961 200.164,202.194 200.486,205.352C202.125,221.435 201.242,235.635 197.098,246.544C191.112,262.185 182.645,269.461 174.187,271.467C163.245,274.062 151.534,267.937 143.219,257.409C129.373,239.88 125.208,210.99 147.952,196.765C163.807,186.892 177.969,184.105 189.519,185.663ZM190.786,192.967C180.187,191.052 166.964,193.632 152.048,203.235C133.845,214.903 138.481,238.167 149.751,252.208C155.929,259.905 164.176,265.122 172.225,263.207C178.726,261.66 184.623,255.542 189.262,243.532C193.105,233.653 193.778,220.75 192.448,206.127C192.061,201.872 191.5,197.475 190.786,192.967Z" style="fill:white;"/>
        </g>
    </g>
</svg>
