<?xml version="1.0" encoding="UTF-8" standalone="no"?>
<!DOCTYPE svg PUBLIC "-//W3C//DTD SVG 1.1//EN" "http://www.w3.org/Graphics/SVG/1.1/DTD/svg11.dtd">
<svg width="100%" height="100%" viewBox="0 0 72 72" version="1.1" xmlns="http://www.w3.org/2000/svg" xmlns:xlink="http://www.w3.org/1999/xlink" xml:space="preserve" xmlns:serif="http://www.serif.com/" style="fill-rule:evenodd;clip-rule:evenodd;stroke-linejoin:round;stroke-miterlimit:2;">
    <g transform="matrix(6.1149e-17,1,-1,6.1149e-17,71.0904,2.33342)">
        <path d="M33.61,38.984L33.61,36.375C33.61,33.676 35.801,31.487 38.503,31.487C41.205,31.487 43.397,33.676 43.397,36.375L43.397,38.984L43.397,37.874C43.397,35.175 45.588,32.987 48.29,32.987C50.992,32.987 53.183,35.175 53.183,37.874L53.183,38.984L53.213,38.984L53.213,39.073C53.213,36.555 55.405,34.486 58.107,34.486C60.809,34.486 63,36.555 63,39.073L63,49.508C63,58.654 55.165,66 45.408,66L41.265,66C37.122,66 33.43,64.621 30.517,62.552L10.464,44.021C8.512,42.192 8.512,39.044 10.464,37.214C12.415,35.385 15.357,35.775 17.308,37.604L23.853,43.541L23.853,10.588C23.793,8.069 25.984,6 28.686,6C31.388,6 33.58,8.069 33.58,10.588L33.58,38.984" style="fill:rgb(254,252,252);fill-rule:nonzero;"/>
    </g>
</svg>
