<?xml version="1.0" encoding="UTF-8" standalone="no"?>
<!DOCTYPE svg PUBLIC "-//W3C//DTD SVG 1.1//EN" "http://www.w3.org/Graphics/SVG/1.1/DTD/svg11.dtd">
<svg width="100%" height="100%" viewBox="0 0 300 400" version="1.1" xmlns="http://www.w3.org/2000/svg" xmlns:xlink="http://www.w3.org/1999/xlink" xml:space="preserve" xmlns:serif="http://www.serif.com/" style="fill-rule:evenodd;clip-rule:evenodd;stroke-linejoin:round;stroke-miterlimit:2;">
    <g id="left" transform="matrix(1,0,0,1,-196.31,-13.5237)">
        <g transform="matrix(1,0,0,1,-17,0)">
            <path d="M406.779,48.665C406.779,48.665 430.592,95.592 444.487,155.204C449.423,176.38 453.105,199.156 454.031,222.025C454.637,237.004 454.111,252.023 451.859,266.652C445.361,311.667 425.398,333.992 399.902,344.321C369.729,356.546 332.186,352.434 300.3,348.993C299.121,348.851 298.049,349.692 297.907,350.871C297.765,352.05 298.607,353.122 299.785,353.264C323.061,356.373 349.304,359.859 373.767,357.261C390.983,355.433 407.321,350.596 421.21,340.724C439.953,327.402 454.3,304.885 460.2,267.922C462.041,255.762 462.804,243.344 462.617,230.901C462.339,212.363 460.06,193.77 456.563,175.919C442.776,105.54 410.584,46.658 410.584,46.658C410.03,45.608 408.728,45.205 407.678,45.759C406.628,46.313 406.225,47.615 406.779,48.665Z" style="fill:rgb(74,121,129);"/>
        </g>
        <path d="M256.463,353.222C257.312,353.623 258.37,354.043 259.182,354.476C264.635,357.387 273.032,360.774 281.211,364.774C289.02,368.593 296.579,372.962 301.471,377.797C302.348,378.585 302.42,379.937 301.632,380.815C300.843,381.692 299.491,381.764 298.614,380.975C291.971,375.532 280.886,371.506 271.018,367.873C262.356,364.683 254.591,361.768 250.859,359.15C248.352,357.392 247.247,355.353 247.006,353.68C246.727,351.747 247.278,349.7 249.529,347.847C252.691,345.376 260.428,339.981 269,334.49C282.915,325.578 298.856,316.225 298.856,316.225C299.837,315.571 301.165,315.835 301.82,316.816C302.475,317.797 302.21,319.125 301.229,319.78L256.463,353.222ZM255.399,352.633C255.411,352.205 255.412,351.564 255.137,351.818C254.857,352.077 255.007,352.349 255.399,352.633Z" style="fill:rgb(74,121,129);"/>
    </g>
</svg>
