<svg width="72" height="72" viewBox="0 0 24 24" fill="none" xmlns="http://www.w3.org/2000/svg" data-reactroot="">
<path fill="#ffffff" d="M18.5 15.0019C19.33 15.0019 20 15.6717 20 16.5014C20 17.3312 19.33 18.001 18.5 18.001H16H18C18.83 18.001 19.5 18.6707 19.5 19.5005C19.5 20.3302 18.83 21 18 21H17H9C5.69 21 3 18.3009 3 14.9819C3 12.2828 4.77 9.99349 7.22 9.23373C8.45 8.84386 9.37 7.80419 9.77 6.56458L10.69 3.73548C10.85 3.08568 11.51 2.91574 12.17 3.0357C13.22 3.21564 14.11 4.56521 14.11 7.00444L14 9.0038H19.5C20.33 9.0038 21 9.67359 21 10.5033C21 11.3331 20.33 12.0029 19.5 12.0029H17H19C19.83 12.0029 20.5 12.6726 20.5 13.5024C20.5 14.3321 19.83 15.0019 19 15.0019H16.5" undefined="1"></path>
</svg>
