<svg width="72" height="72" viewBox="0 0 24 24" fill="none" xmlns="http://www.w3.org/2000/svg" data-reactroot="">
<path stroke-linejoin="round" stroke-linecap="round" stroke-miterlimit="10" stroke-width="1" stroke="#ffffff" fill="none" d="M12.84 4.01999H5.5C4.12 4.01999 3 5.13999 3 6.51999V19.52C3 20.9 4.12 22.02 5.5 22.02H18.5C19.88 22.02 21 20.9 21 19.52V6.51999C21 5.71999 20.62 4.99999 20.03 4.54999L20.04 4.55999C20.21 5.00999 20.31 5.49999 20.31 6.00999C20.31 8.21999 16.31 16 16.31 16C16.31 16 12.31 8.21999 12.31 6.00999C12.31 5.27999 12.5 4.60999 12.84 4.01999Z"></path>
<path stroke-linejoin="round" stroke-linecap="round" stroke-miterlimit="10" stroke-width="1" stroke="#ffffff" d="M12.49 7.10999L3.47998 20.99"></path>
<path stroke-linejoin="round" stroke-linecap="round" stroke-miterlimit="10" stroke-width="1" stroke="#ffffff" d="M14.51 22.02L6.90002 15.72"></path>
<path stroke-linejoin="round" stroke-linecap="round" stroke-miterlimit="10" stroke-width="1" stroke="#ffffff" d="M19.17 21.93L8.55005 13.17"></path>
<path stroke-linejoin="round" stroke-linecap="round" stroke-miterlimit="10" stroke-width="1" stroke="#ffffff" fill="none" d="M20.3101 6.01C20.3101 8.23 16.3101 16 16.3101 16C16.3101 16 12.3101 8.23 12.3101 6.01C12.3101 3.79 14.1001 2 16.3101 2C18.5201 2 20.3101 3.8 20.3101 6.01Z"></path>
<path stroke-miterlimit="10" stroke-width="1" stroke="#ffffff" fill="none" d="M16.3101 6.48001C16.5862 6.48001 16.8101 6.25615 16.8101 5.98001C16.8101 5.70387 16.5862 5.48001 16.3101 5.48001C16.0339 5.48001 15.8101 5.70387 15.8101 5.98001C15.8101 6.25615 16.0339 6.48001 16.3101 6.48001Z"></path>
</svg>
