<svg width="72" height="72" viewBox="0 0 24 24" fill="none" xmlns="http://www.w3.org/2000/svg" data-reactroot="">
<path stroke-linejoin="round" stroke-linecap="round" stroke-miterlimit="10" stroke-width="1" stroke="#fcfcfc" fill="#C4B6FF" d="M17.64 14.97C16.71 14.79 16 13.98 16 13C16 12.86 16.02 12.71 16.05 12.58C14.99 11.6 13.57 11 12 11C10.43 11 9.01 11.6 7.95 12.58C7.98 12.71 8 12.86 8 13C8 13.98 7.29 14.79 6.36 14.97C6.35 14.99 6.34 15 6.34 15.02C8.39 15.19 10 16.9 10 19H14C14 16.9 15.61 15.19 17.66 15.02C17.66 15 17.65 14.99 17.64 14.97Z"></path>
<path stroke-linejoin="round" stroke-linecap="round" stroke-miterlimit="10" stroke-width="1" stroke="#fcfcfc" fill="#C4B6FF" d="M12 11C13.6569 11 15 9.65685 15 8C15 6.34315 13.6569 5 12 5C10.3431 5 9 6.34315 9 8C9 9.65685 10.3431 11 12 11Z"></path>
<path stroke-linejoin="round" stroke-linecap="round" stroke-miterlimit="10" stroke-width="1" stroke="#fcfcfc" fill="#7D55FF" d="M18 15C15.79 15 14 16.79 14 19C14.01 19 22 19 22 19C22 16.79 20.21 15 18 15Z"></path>
<path stroke-linejoin="round" stroke-linecap="round" stroke-miterlimit="10" stroke-width="1" stroke="#fcfcfc" fill="#7D55FF" d="M18 15C19.1046 15 20 14.1046 20 13C20 11.8954 19.1046 11 18 11C16.8954 11 16 11.8954 16 13C16 14.1046 16.8954 15 18 15Z"></path>
<path stroke-linejoin="round" stroke-linecap="round" stroke-miterlimit="10" stroke-width="1" stroke="#fcfcfc" fill="#7D55FF" d="M6 15C3.79 15 2 16.79 2 19C2.01 19 10 19 10 19C10 16.79 8.21 15 6 15Z"></path>
<path stroke-linejoin="round" stroke-linecap="round" stroke-miterlimit="10" stroke-width="1" stroke="#fcfcfc" fill="#7D55FF" d="M6 15C7.10457 15 8 14.1046 8 13C8 11.8954 7.10457 11 6 11C4.89543 11 4 11.8954 4 13C4 14.1046 4.89543 15 6 15Z"></path>
</svg>
