<svg width="600" height="450" viewBox="0 0 800 600" fill="none" xmlns="http://www.w3.org/2000/svg" data-reactroot="">
<path d="M330.389 489.468C316.402 493.413 301.052 492.552 288.715 483.658C280.968 478.063 275.876 470.46 270.927 463.144C268.775 459.916 266.766 456.903 264.543 454.106C258.589 446.503 249.121 440.047 241.446 442.845L236.641 429.36C251.99 423.837 267.412 434.524 275.876 445.284C278.386 448.511 280.681 451.882 282.905 455.182C287.28 461.781 291.512 468.021 297.179 472.038C307.723 479.641 327.233 480.215 344.161 466.73C358.865 454.967 368.118 436.533 376.223 420.25L389.062 426.706C380.24 444.351 370.27 464.291 353.127 477.991C346.599 483.012 338.781 487.101 330.389 489.468Z" stroke="#78D2EE" stroke-width="1.43456" stroke-miterlimit="10" stroke-linejoin="round"></path>
<path d="M239.079 436.031C250.484 431.943 262.749 440.12 270.209 449.66C277.669 459.199 283.048 470.748 292.875 477.849C309.157 489.54 332.899 484.806 348.536 472.326C364.172 459.845 373.569 441.339 382.535 423.407" stroke="#78D2EE" stroke-width="1.43456" stroke-miterlimit="10" stroke-linejoin="round"></path>
<path d="M359.295 431.441C357.717 428.715 356.713 426.993 355.135 424.268L359.869 397.657C360.73 392.923 362.092 387.4 367.113 386.037C370.269 385.176 373.569 386.396 375.721 388.834C380.168 393.927 379.666 400.598 379.092 406.766C385.045 400.311 390.21 393.066 396.163 386.611C401.758 380.657 408.357 374.202 416.534 374.489C424.711 374.776 430.879 381.733 436.044 388.189C440.347 393.568 444.866 399.952 443.288 406.695C441.925 412.72 436.044 416.521 430.664 419.677C415.386 428.643 400.036 437.609 384.758 446.575C376.581 440.407 368.62 434.884 359.295 431.441Z" fill="#FF7373"></path>
<path d="M373.138 440.621L378.948 442.271L388.201 449.085L424.28 386.395C424.28 386.395 410.078 373.771 406.204 377.716C402.259 381.589 373.138 440.621 373.138 440.621Z" fill="#2249B3"></path>
<path d="M604.532 539.391L433.604 37.5112L724.389 88.0076L656.821 548.5L604.532 539.391Z" fill="#2249B3"></path>
<path d="M756.524 197.679L565.441 298.528L556.905 277.655L747.988 176.806L756.524 197.679Z" fill="white"></path>
<g opacity="0.4">
<path opacity="0.3" d="M721.737 93.2445C723.602 93.6031 724.822 95.3963 724.535 97.2613C724.176 99.1262 722.383 100.346 720.518 100.059C718.653 99.7 717.434 97.9068 717.72 96.0419C718.007 94.177 719.801 92.8859 721.737 93.2445Z" fill="#303030"></path>
</g>
<g opacity="0.4">
<path opacity="0.3" d="M738.665 96.328C740.53 96.6866 741.749 98.4798 741.462 100.345C741.104 102.21 739.311 103.429 737.446 103.142C735.581 102.784 734.361 100.99 734.648 99.1254C735.007 97.2605 736.8 95.9694 738.665 96.328Z" fill="#303030"></path>
</g>
<g opacity="0.4">
<path opacity="0.3" d="M728.623 103.286C730.488 103.645 731.707 105.438 731.42 107.303C731.062 109.168 729.269 110.387 727.404 110.1C725.539 109.742 724.319 107.948 724.606 106.083C724.965 104.147 726.758 102.927 728.623 103.286Z" fill="#303030"></path>
</g>
<g opacity="0.4">
<path opacity="0.3" d="M711.695 100.201C713.56 100.56 714.78 102.353 714.493 104.218C714.134 106.083 712.341 107.302 710.476 107.015C708.611 106.657 707.392 104.863 707.678 102.999C708.037 101.062 709.83 99.8425 711.695 100.201Z" fill="#303030"></path>
</g>
<g opacity="0.4">
<path opacity="0.3" d="M731.706 86.3584C733.571 86.717 734.79 88.5102 734.503 90.3751C734.145 92.24 732.352 93.4594 730.487 93.1725C728.622 92.8139 727.402 91.0207 727.689 89.1557C728.048 87.2191 729.841 85.9997 731.706 86.3584Z" fill="#303030"></path>
</g>
<g opacity="0.4">
<path opacity="0.3" d="M714.779 83.2739C716.644 83.6325 717.864 85.4257 717.577 87.2906C717.218 89.1556 715.425 90.3749 713.56 90.088C711.695 89.7294 710.476 87.9362 710.762 86.0713C711.121 84.1346 712.914 82.9152 714.779 83.2739Z" fill="#303030"></path>
</g>
<g opacity="0.4">
<path opacity="0.3" d="M724.749 76.3158C726.614 76.6744 727.833 78.4676 727.546 80.3326C727.188 82.1975 725.394 83.4168 723.53 83.1299C721.665 82.7713 720.445 80.9781 720.732 79.1132C721.091 77.2483 722.884 75.9572 724.749 76.3158Z" fill="#303030"></path>
</g>
<g opacity="0.4">
<path opacity="0.3" d="M741.748 79.4003C743.613 79.7589 744.832 81.5521 744.545 83.417C744.187 85.2819 742.393 86.5013 740.529 86.2144C738.664 85.8558 737.444 84.0626 737.731 82.1976C738.09 80.3327 739.883 79.0416 741.748 79.4003Z" fill="#303030"></path>
</g>
<g opacity="0.4">
<path opacity="0.3" d="M715.567 127.099C717.432 127.458 718.652 129.251 718.365 131.116C718.006 132.981 716.213 134.2 714.348 133.914C712.483 133.555 711.264 131.762 711.551 129.897C711.909 128.032 713.702 126.812 715.567 127.099Z" fill="#303030"></path>
</g>
<g opacity="0.4">
<path opacity="0.3" d="M732.496 130.184C734.361 130.543 735.58 132.336 735.293 134.201C734.935 136.066 733.142 137.285 731.277 136.998C729.412 136.64 728.192 134.847 728.479 132.982C728.838 131.117 730.631 129.897 732.496 130.184Z" fill="#303030"></path>
</g>
<g opacity="0.4">
<path opacity="0.3" d="M722.455 137.141C724.32 137.5 725.539 139.293 725.252 141.158C724.894 143.023 723.101 144.243 721.236 143.956C719.371 143.597 718.151 141.804 718.438 139.939C718.797 138.074 720.59 136.783 722.455 137.141Z" fill="#303030"></path>
</g>
<g opacity="0.4">
<path opacity="0.3" d="M705.525 134.057C707.39 134.415 708.61 136.208 708.323 138.073C707.964 139.938 706.171 141.158 704.306 140.871C702.441 140.512 701.222 138.719 701.509 136.854C701.867 134.989 703.66 133.698 705.525 134.057Z" fill="#303030"></path>
</g>
<g opacity="0.4">
<path opacity="0.3" d="M725.538 120.213C727.403 120.572 728.622 122.365 728.335 124.23C727.977 126.095 726.184 127.314 724.319 127.027C722.454 126.669 721.234 124.876 721.521 123.011C721.88 121.074 723.673 119.855 725.538 120.213Z" fill="#303030"></path>
</g>
<g opacity="0.4">
<path opacity="0.3" d="M708.61 117.129C710.475 117.488 711.695 119.281 711.408 121.146C711.049 123.011 709.256 124.23 707.391 123.943C705.526 123.584 704.307 121.791 704.594 119.926C704.952 117.99 706.745 116.77 708.61 117.129Z" fill="#303030"></path>
</g>
<g opacity="0.4">
<path opacity="0.3" d="M718.652 110.172C720.517 110.531 721.737 112.324 721.45 114.189C721.091 116.054 719.298 117.273 717.433 116.986C715.568 116.628 714.349 114.834 714.636 112.97C714.994 111.105 716.787 109.885 718.652 110.172Z" fill="#303030"></path>
</g>
<g opacity="0.4">
<path opacity="0.3" d="M735.58 113.255C737.445 113.614 738.664 115.407 738.377 117.272C738.019 119.137 736.226 120.356 734.361 120.069C732.496 119.711 731.276 117.918 731.563 116.053C731.922 114.188 733.715 112.897 735.58 113.255Z" fill="#303030"></path>
</g>
<g opacity="0.4">
<path opacity="0.3" d="M709.399 161.027C711.264 161.385 712.484 163.179 712.197 165.044C711.838 166.908 710.045 168.128 708.18 167.841C706.315 167.482 705.096 165.689 705.383 163.824C705.741 161.888 707.534 160.668 709.399 161.027Z" fill="#303030"></path>
</g>
<g opacity="0.4">
<path opacity="0.3" d="M726.327 164.11C728.192 164.469 729.411 166.262 729.124 168.127C728.766 169.992 726.973 171.211 725.108 170.924C723.243 170.566 722.023 168.773 722.31 166.908C722.669 164.971 724.462 163.752 726.327 164.11Z" fill="#303030"></path>
</g>
<g opacity="0.4">
<path opacity="0.3" d="M716.285 170.996C718.15 171.355 719.369 173.148 719.082 175.013C718.724 176.878 716.931 178.098 715.066 177.811C713.201 177.452 711.981 175.659 712.268 173.794C712.627 171.929 714.42 170.638 716.285 170.996Z" fill="#303030"></path>
</g>
<g opacity="0.4">
<path opacity="0.3" d="M699.357 167.913C701.222 168.271 702.442 170.065 702.155 171.93C701.796 173.795 700.003 175.014 698.138 174.727C696.273 174.368 695.054 172.575 695.341 170.71C695.699 168.845 697.492 167.626 699.357 167.913Z" fill="#303030"></path>
</g>
<g opacity="0.4">
<path opacity="0.3" d="M719.37 154.069C721.235 154.427 722.454 156.221 722.167 158.085C721.809 159.95 720.016 161.17 718.151 160.883C716.286 160.524 715.066 158.731 715.353 156.866C715.712 155.001 717.505 153.71 719.37 154.069Z" fill="#303030"></path>
</g>
<g opacity="0.4">
<path opacity="0.3" d="M702.442 150.985C704.307 151.344 705.527 153.137 705.24 155.002C704.881 156.867 703.088 158.086 701.223 157.799C699.358 157.441 698.139 155.648 698.426 153.783C698.784 151.918 700.577 150.627 702.442 150.985Z" fill="#303030"></path>
</g>
<g opacity="0.4">
<path opacity="0.3" d="M692.472 157.942C694.337 158.3 695.556 160.094 695.269 161.959C694.91 163.824 693.117 165.043 691.252 164.756C689.387 164.397 688.168 162.604 688.455 160.739C688.813 158.803 690.607 157.583 692.472 157.942Z" fill="#303030"></path>
</g>
<g opacity="0.4">
<path opacity="0.3" d="M712.484 144.1C714.349 144.458 715.569 146.251 715.282 148.116C714.923 149.981 713.13 151.201 711.265 150.914C709.4 150.555 708.181 148.762 708.468 146.897C708.826 144.96 710.619 143.741 712.484 144.1Z" fill="#303030"></path>
</g>
<g opacity="0.4">
<path opacity="0.3" d="M729.412 147.112C731.277 147.47 732.496 149.263 732.209 151.128C731.851 152.993 730.058 154.213 728.193 153.926C726.328 153.567 725.108 151.774 725.395 149.909C725.754 148.044 727.547 146.825 729.412 147.112Z" fill="#303030"></path>
</g>
<g opacity="0.4">
<path opacity="0.3" d="M703.231 194.882C705.096 195.24 706.316 197.034 706.029 198.899C705.67 200.763 703.877 201.983 702.012 201.696C700.147 201.337 698.928 199.544 699.215 197.679C699.573 195.743 701.366 194.523 703.231 194.882Z" fill="#303030"></path>
</g>
<g opacity="0.4">
<path opacity="0.3" d="M720.158 197.967C722.023 198.325 723.242 200.119 722.956 201.984C722.597 203.848 720.804 205.068 718.939 204.781C717.074 204.422 715.854 202.629 716.141 200.764C716.5 198.827 718.293 197.608 720.158 197.967Z" fill="#303030"></path>
</g>
<g opacity="0.4">
<path opacity="0.3" d="M710.188 204.853C712.053 205.211 713.273 207.005 712.986 208.87C712.627 210.734 710.834 211.954 708.969 211.667C707.104 211.308 705.885 209.515 706.172 207.65C706.459 205.785 708.252 204.566 710.188 204.853Z" fill="#303030"></path>
</g>
<g opacity="0.4">
<path opacity="0.3" d="M693.189 201.84C695.054 202.199 696.274 203.992 695.987 205.857C695.628 207.722 693.835 208.941 691.97 208.654C690.105 208.296 688.886 206.503 689.173 204.638C689.531 202.701 691.324 201.482 693.189 201.84Z" fill="#303030"></path>
</g>
<g opacity="0.4">
<path opacity="0.3" d="M713.201 187.925C715.066 188.284 716.285 190.077 715.998 191.942C715.64 193.807 713.847 195.026 711.982 194.739C710.117 194.381 708.897 192.587 709.184 190.722C709.543 188.858 711.336 187.638 713.201 187.925Z" fill="#303030"></path>
</g>
<g opacity="0.4">
<path opacity="0.3" d="M696.274 184.84C698.139 185.199 699.359 186.992 699.072 188.857C698.713 190.722 696.92 191.941 695.055 191.654C693.19 191.296 691.971 189.502 692.258 187.637C692.616 185.773 694.409 184.553 696.274 184.84Z" fill="#303030"></path>
</g>
<g opacity="0.4">
<path opacity="0.3" d="M706.316 177.955C708.181 178.313 709.401 180.106 709.114 181.971C708.755 183.836 706.962 185.056 705.097 184.769C703.232 184.41 702.013 182.617 702.3 180.752C702.658 178.815 704.451 177.596 706.316 177.955Z" fill="#303030"></path>
</g>
<g opacity="0.4">
<path opacity="0.3" d="M723.243 181.04C725.108 181.398 726.327 183.191 726.04 185.056C725.682 186.921 723.889 188.141 722.024 187.854C720.159 187.495 718.939 185.702 719.226 183.837C719.585 181.9 721.378 180.681 723.243 181.04Z" fill="#303030"></path>
</g>
<g opacity="0.4">
<path opacity="0.3" d="M697.062 228.737C698.927 229.096 700.147 230.889 699.86 232.754C699.501 234.619 697.708 235.838 695.843 235.551C693.978 235.193 692.759 233.399 693.046 231.535C693.404 229.67 695.198 228.379 697.062 228.737Z" fill="#303030"></path>
</g>
<g opacity="0.4">
<path opacity="0.3" d="M713.99 231.822C715.855 232.181 717.074 233.974 716.788 235.839C716.429 237.704 714.636 238.923 712.771 238.636C710.906 238.278 709.686 236.484 709.973 234.62C710.332 232.755 712.125 231.464 713.99 231.822Z" fill="#303030"></path>
</g>
<g opacity="0.4">
<path opacity="0.3" d="M704.019 238.78C705.884 239.139 707.104 240.932 706.817 242.797C706.458 244.662 704.665 245.881 702.8 245.594C700.935 245.236 699.716 243.443 700.003 241.578C700.361 239.641 702.155 238.422 704.019 238.78Z" fill="#303030"></path>
</g>
<g opacity="0.4">
<path opacity="0.3" d="M687.093 235.695C688.958 236.054 690.177 237.847 689.89 239.712C689.531 241.577 687.738 242.796 685.873 242.509C684.008 242.151 682.789 240.358 683.076 238.493C683.363 236.556 685.156 235.337 687.093 235.695Z" fill="#303030"></path>
</g>
<g opacity="0.4">
<path opacity="0.3" d="M707.104 221.851C708.969 222.21 710.189 224.003 709.902 225.868C709.543 227.733 707.75 228.952 705.885 228.665C704.02 228.307 702.801 226.513 703.088 224.648C703.446 222.712 705.168 221.492 707.104 221.851Z" fill="#303030"></path>
</g>
<g opacity="0.4">
<path opacity="0.3" d="M690.104 218.768C691.969 219.127 693.189 220.92 692.902 222.785C692.543 224.65 690.75 225.869 688.885 225.582C687.02 225.224 685.801 223.43 686.088 221.565C686.446 219.629 688.239 218.409 690.104 218.768Z" fill="#303030"></path>
</g>
<g opacity="0.4">
<path opacity="0.3" d="M700.146 211.809C702.011 212.168 703.231 213.961 702.944 215.826C702.585 217.691 700.792 218.91 698.927 218.624C697.062 218.265 695.843 216.472 696.13 214.607C696.488 212.742 698.281 211.451 700.146 211.809Z" fill="#303030"></path>
</g>
<g opacity="0.4">
<path opacity="0.3" d="M717.075 214.894C718.94 215.253 720.159 217.046 719.873 218.911C719.514 220.776 717.721 221.995 715.856 221.709C713.991 221.35 712.771 219.557 713.058 217.692C713.417 215.827 715.21 214.536 717.075 214.894Z" fill="#303030"></path>
</g>
<g opacity="0.4">
<path opacity="0.3" d="M690.894 262.594C692.759 262.952 693.979 264.745 693.692 266.61C693.333 268.475 691.54 269.695 689.675 269.408C687.81 269.049 686.591 267.256 686.878 265.391C687.236 263.526 689.03 262.307 690.894 262.594Z" fill="#303030"></path>
</g>
<g opacity="0.4">
<path opacity="0.3" d="M707.822 265.677C709.687 266.036 710.906 267.829 710.62 269.694C710.261 271.559 708.468 272.778 706.603 272.491C704.738 272.133 703.519 270.339 703.805 268.474C704.164 266.609 705.957 265.39 707.822 265.677Z" fill="#303030"></path>
</g>
<g opacity="0.4">
<path opacity="0.3" d="M697.851 272.636C699.716 272.994 700.936 274.787 700.649 276.652C700.29 278.517 698.497 279.737 696.632 279.45C694.767 279.091 693.548 277.298 693.835 275.433C694.193 273.568 695.987 272.277 697.851 272.636Z" fill="#303030"></path>
</g>
<g opacity="0.4">
<path opacity="0.3" d="M680.924 269.551C682.789 269.909 684.008 271.702 683.721 273.567C683.362 275.432 681.569 276.652 679.704 276.365C677.839 276.006 676.62 274.213 676.907 272.348C677.266 270.483 679.059 269.192 680.924 269.551Z" fill="#303030"></path>
</g>
<g opacity="0.4">
<path opacity="0.3" d="M700.936 255.707C702.801 256.066 704.021 257.859 703.734 259.724C703.375 261.589 701.582 262.809 699.717 262.522C697.852 262.163 696.633 260.37 696.92 258.505C697.278 256.568 699.072 255.349 700.936 255.707Z" fill="#303030"></path>
</g>
<g opacity="0.4">
<path opacity="0.3" d="M684.008 252.623C685.873 252.982 687.092 254.775 686.805 256.64C686.446 258.505 684.653 259.724 682.788 259.437C680.923 259.079 679.704 257.285 679.991 255.42C680.35 253.484 682.071 252.264 684.008 252.623Z" fill="#303030"></path>
</g>
<g opacity="0.4">
<path opacity="0.3" d="M673.966 259.581C675.831 259.94 677.05 261.733 676.763 263.598C676.404 265.463 674.611 266.682 672.746 266.395C670.881 266.037 669.662 264.243 669.949 262.378C670.308 260.442 672.101 259.222 673.966 259.581Z" fill="#303030"></path>
</g>
<g opacity="0.4">
<path opacity="0.3" d="M693.977 245.666C695.842 246.025 697.062 247.818 696.775 249.683C696.416 251.548 694.623 252.767 692.758 252.48C690.893 252.122 689.674 250.329 689.961 248.464C690.319 246.599 692.113 245.379 693.977 245.666Z" fill="#303030"></path>
</g>
<g opacity="0.4">
<path opacity="0.3" d="M710.905 248.749C712.77 249.108 713.989 250.901 713.703 252.766C713.344 254.631 711.551 255.85 709.686 255.563C707.821 255.205 706.602 253.412 706.888 251.547C707.247 249.682 709.04 248.462 710.905 248.749Z" fill="#303030"></path>
</g>
<g opacity="0.4">
<path opacity="0.3" d="M684.725 296.521C686.589 296.88 687.809 298.673 687.522 300.538C687.163 302.403 685.37 303.622 683.505 303.335C681.64 302.976 680.421 301.183 680.708 299.318C681.066 297.382 682.86 296.162 684.725 296.521Z" fill="#303030"></path>
</g>
<g opacity="0.4">
<path opacity="0.3" d="M701.653 299.604C703.518 299.963 704.738 301.756 704.451 303.621C704.092 305.486 702.299 306.706 700.434 306.419C698.569 306.06 697.35 304.267 697.636 302.402C697.995 300.465 699.788 299.246 701.653 299.604Z" fill="#303030"></path>
</g>
<g opacity="0.4">
<path opacity="0.3" d="M691.684 306.491C693.548 306.849 694.768 308.642 694.481 310.507C694.122 312.372 692.329 313.592 690.464 313.305C688.599 312.946 687.38 311.153 687.667 309.288C688.025 307.423 689.819 306.132 691.684 306.491Z" fill="#303030"></path>
</g>
<g opacity="0.4">
<path opacity="0.3" d="M674.756 303.407C676.621 303.766 677.84 305.559 677.553 307.424C677.195 309.289 675.401 310.508 673.536 310.221C671.672 309.862 670.452 308.069 670.739 306.204C671.098 304.339 672.891 303.12 674.756 303.407Z" fill="#303030"></path>
</g>
<g opacity="0.4">
<path opacity="0.3" d="M694.767 289.563C696.631 289.922 697.851 291.715 697.564 293.58C697.205 295.445 695.412 296.664 693.547 296.377C691.682 296.018 690.463 294.225 690.75 292.36C691.108 290.495 692.902 289.204 694.767 289.563Z" fill="#303030"></path>
</g>
<g opacity="0.4">
<path opacity="0.3" d="M677.839 286.478C679.704 286.837 680.923 288.63 680.636 290.495C680.278 292.36 678.484 293.579 676.619 293.292C674.755 292.933 673.535 291.14 673.822 289.275C674.181 287.41 675.974 286.119 677.839 286.478Z" fill="#303030"></path>
</g>
<g opacity="0.4">
<path opacity="0.3" d="M687.809 279.592C689.674 279.951 690.894 281.744 690.607 283.609C690.248 285.474 688.455 286.693 686.59 286.406C684.725 286.048 683.506 284.255 683.793 282.39C684.151 280.453 685.945 279.234 687.809 279.592Z" fill="#303030"></path>
</g>
<g opacity="0.4">
<path opacity="0.3" d="M704.737 282.677C706.602 283.036 707.822 284.829 707.535 286.694C707.176 288.559 705.383 289.778 703.518 289.491C701.653 289.133 700.434 287.34 700.72 285.475C701.079 283.538 702.872 282.319 704.737 282.677Z" fill="#303030"></path>
</g>
<g opacity="0.4">
<path opacity="0.3" d="M678.557 330.377C680.422 330.735 681.641 332.529 681.354 334.394C680.995 336.259 679.202 337.478 677.337 337.191C675.472 336.832 674.253 335.039 674.54 333.174C674.898 331.309 676.692 330.018 678.557 330.377Z" fill="#303030"></path>
</g>
<g opacity="0.4">
<path opacity="0.3" d="M695.557 333.461C697.421 333.82 698.641 335.613 698.354 337.478C697.995 339.343 696.202 340.562 694.337 340.275C692.472 339.916 691.253 338.123 691.54 336.258C691.827 334.322 693.62 333.102 695.557 333.461Z" fill="#303030"></path>
</g>
<g opacity="0.4">
<path opacity="0.3" d="M685.515 340.347C687.379 340.706 688.599 342.499 688.312 344.364C687.953 346.229 686.16 347.448 684.295 347.161C682.43 346.802 681.211 345.009 681.498 343.144C681.856 341.279 683.65 340.06 685.515 340.347Z" fill="#303030"></path>
</g>
<g opacity="0.4">
<path opacity="0.3" d="M668.586 337.333C670.451 337.692 671.67 339.485 671.383 341.35C671.025 343.215 669.231 344.434 667.366 344.147C665.502 343.788 664.282 341.995 664.569 340.13C664.928 338.194 666.721 336.974 668.586 337.333Z" fill="#303030"></path>
</g>
<g opacity="0.4">
<path opacity="0.3" d="M688.599 323.418C690.464 323.776 691.683 325.57 691.396 327.435C691.037 329.299 689.244 330.519 687.379 330.232C685.514 329.873 684.295 328.08 684.582 326.215C684.94 324.35 686.734 323.131 688.599 323.418Z" fill="#303030"></path>
</g>
<g opacity="0.4">
<path opacity="0.3" d="M671.672 320.335C673.537 320.693 674.756 322.487 674.469 324.351C674.111 326.216 672.317 327.436 670.452 327.149C668.587 326.79 667.368 324.997 667.655 323.132C668.014 321.267 669.807 320.048 671.672 320.335Z" fill="#303030"></path>
</g>
<g opacity="0.4">
<path opacity="0.3" d="M681.642 313.449C683.506 313.807 684.726 315.601 684.439 317.465C684.08 319.33 682.287 320.55 680.422 320.263C678.557 319.904 677.338 318.111 677.625 316.246C677.983 314.309 679.777 313.09 681.642 313.449Z" fill="#303030"></path>
</g>
<g opacity="0.4">
<path opacity="0.3" d="M698.568 316.531C700.433 316.89 701.653 318.683 701.366 320.548C701.007 322.413 699.214 323.632 697.349 323.345C695.484 322.987 694.265 321.194 694.552 319.329C694.91 317.392 696.703 316.173 698.568 316.531Z" fill="#303030"></path>
</g>
<g opacity="0.4">
<path opacity="0.3" d="M672.46 364.231C674.325 364.59 675.544 366.383 675.257 368.248C674.899 370.113 673.105 371.332 671.241 371.045C669.376 370.687 668.156 368.894 668.443 367.029C668.73 365.164 670.523 363.873 672.46 364.231Z" fill="#303030"></path>
</g>
<g opacity="0.4">
<path opacity="0.3" d="M689.388 367.317C691.253 367.675 692.472 369.469 692.185 371.334C691.826 373.198 690.033 374.418 688.168 374.131C686.303 373.772 685.084 371.979 685.371 370.114C685.73 368.249 687.523 366.958 689.388 367.317Z" fill="#303030"></path>
</g>
<g opacity="0.4">
<path opacity="0.3" d="M679.345 374.273C681.21 374.632 682.429 376.425 682.142 378.29C681.783 380.155 679.99 381.374 678.125 381.087C676.26 380.728 675.041 378.935 675.328 377.07C675.687 375.134 677.48 373.914 679.345 374.273Z" fill="#303030"></path>
</g>
<g opacity="0.4">
<path opacity="0.3" d="M662.418 371.189C664.283 371.548 665.502 373.341 665.215 375.206C664.857 377.071 663.063 378.29 661.199 378.004C659.334 377.645 658.114 375.852 658.401 373.987C658.76 372.05 660.553 370.831 662.418 371.189Z" fill="#303030"></path>
</g>
<g opacity="0.4">
<path opacity="0.3" d="M682.43 357.345C684.295 357.704 685.514 359.497 685.227 361.362C684.868 363.227 683.075 364.446 681.21 364.159C679.345 363.801 678.126 362.007 678.413 360.143C678.771 358.206 680.565 356.987 682.43 357.345Z" fill="#303030"></path>
</g>
<g opacity="0.4">
<path opacity="0.3" d="M665.503 354.263C667.368 354.621 668.587 356.414 668.3 358.279C667.942 360.144 666.148 361.364 664.284 361.077C662.419 360.718 661.199 358.925 661.486 357.06C661.845 355.123 663.638 353.904 665.503 354.263Z" fill="#303030"></path>
</g>
<g opacity="0.4">
<path opacity="0.3" d="M675.473 347.304C677.337 347.662 678.557 349.455 678.27 351.32C677.911 353.185 676.118 354.405 674.253 354.118C672.388 353.759 671.169 351.966 671.456 350.101C671.814 348.236 673.608 346.945 675.473 347.304Z" fill="#303030"></path>
</g>
<g opacity="0.4">
<path opacity="0.3" d="M692.472 350.389C694.337 350.747 695.556 352.54 695.269 354.405C694.91 356.27 693.117 357.49 691.252 357.203C689.387 356.844 688.168 355.051 688.455 353.186C688.813 351.321 690.607 350.03 692.472 350.389Z" fill="#303030"></path>
</g>
<g opacity="0.4">
<path opacity="0.3" d="M666.291 398.088C668.156 398.446 669.375 400.239 669.088 402.104C668.73 403.969 666.936 405.189 665.072 404.902C663.207 404.543 661.987 402.75 662.274 400.885C662.633 399.02 664.426 397.801 666.291 398.088Z" fill="#303030"></path>
</g>
<g opacity="0.4">
<path opacity="0.3" d="M683.219 401.172C685.084 401.531 686.303 403.324 686.016 405.189C685.657 407.054 683.864 408.273 681.999 407.986C680.134 407.628 678.915 405.834 679.202 403.97C679.561 402.105 681.354 400.885 683.219 401.172Z" fill="#303030"></path>
</g>
<g opacity="0.4">
<path opacity="0.3" d="M676.262 391.202C678.127 391.56 679.346 393.353 679.059 395.218C678.7 397.083 676.907 398.303 675.042 398.016C673.177 397.657 671.958 395.864 672.245 393.999C672.604 392.062 674.397 390.843 676.262 391.202Z" fill="#303030"></path>
</g>
<g opacity="0.4">
<path opacity="0.3" d="M659.334 388.117C661.199 388.475 662.418 390.268 662.131 392.133C661.773 393.998 659.979 395.218 658.115 394.931C656.25 394.572 655.03 392.779 655.317 390.914C655.676 388.977 657.469 387.758 659.334 388.117Z" fill="#303030"></path>
</g>
<g opacity="0.4">
<path opacity="0.3" d="M669.376 381.159C671.241 381.518 672.46 383.311 672.173 385.176C671.815 387.041 670.021 388.26 668.157 387.973C666.292 387.614 665.072 385.821 665.359 383.956C665.718 382.091 667.511 380.872 669.376 381.159Z" fill="#303030"></path>
</g>
<g opacity="0.4">
<path opacity="0.3" d="M686.304 384.243C688.169 384.602 689.388 386.395 689.101 388.26C688.742 390.125 686.949 391.344 685.084 391.058C683.219 390.699 682 388.906 682.287 387.041C682.646 385.176 684.439 383.957 686.304 384.243Z" fill="#303030"></path>
</g>
<g opacity="0.4">
<path opacity="0.3" d="M699.716 107.374C700.146 107.231 700.577 107.087 701.007 107.087C701.222 107.087 701.437 107.087 701.724 107.159C703.589 107.518 704.809 109.311 704.522 111.176C704.163 113.041 702.37 114.26 700.505 113.973C700.29 113.902 700.075 113.83 699.859 113.758C699.429 113.615 699.07 113.328 698.712 113.041C697.923 112.252 697.492 111.104 697.708 109.957C697.923 108.737 698.64 107.805 699.716 107.374Z" fill="#303030"></path>
</g>
<g opacity="0.4">
<path opacity="0.3" d="M687.809 87.075C689.674 87.4336 690.894 89.2268 690.607 91.0917C690.248 92.9566 688.455 94.176 686.59 93.8891C684.725 93.5305 683.506 91.7373 683.793 89.8724C684.151 88.0074 685.945 86.7881 687.809 87.075Z" fill="#303030"></path>
</g>
<g opacity="0.4">
<path opacity="0.3" d="M702.801 90.3753C703.231 90.2318 703.662 90.0884 704.092 90.0884C704.307 90.0884 704.522 90.0884 704.809 90.1601C706.674 90.5187 707.894 92.3119 707.607 94.1769C707.248 96.0418 705.455 97.2612 703.59 96.9742C703.375 96.9025 703.16 96.8308 702.944 96.7591C702.514 96.6156 702.155 96.3287 701.797 96.0418C701.008 95.2528 700.577 94.1051 700.793 92.9575C701.008 91.8098 701.725 90.8774 702.801 90.3753Z" fill="#303030"></path>
</g>
<g opacity="0.4">
<path opacity="0.3" d="M694.767 97.1176C696.631 97.4763 697.851 99.2695 697.564 101.134C697.205 102.999 695.412 104.219 693.547 103.932C691.682 103.573 690.463 101.78 690.75 99.915C691.108 97.9784 692.902 96.759 694.767 97.1176Z" fill="#303030"></path>
</g>
<g opacity="0.4">
<path opacity="0.3" d="M677.839 94.0327C679.704 94.3913 680.923 96.1845 680.636 98.0494C680.278 99.9144 678.484 101.134 676.619 100.847C674.755 100.488 673.535 98.695 673.822 96.8301C674.181 94.8934 675.974 93.674 677.839 94.0327Z" fill="#303030"></path>
</g>
<g opacity="0.4">
<path opacity="0.3" d="M697.851 80.1889C699.716 80.5476 700.936 82.3408 700.649 84.2057C700.29 86.0706 698.497 87.29 696.632 87.0031C694.767 86.6444 693.548 84.8512 693.835 82.9863C694.193 81.0497 695.987 79.8303 697.851 80.1889Z" fill="#303030"></path>
</g>
<g opacity="0.4">
<path opacity="0.3" d="M680.924 77.1054C682.789 77.4641 684.008 79.2573 683.721 81.1222C683.362 82.9871 681.569 84.2065 679.704 83.9196C677.839 83.5609 676.62 81.7677 676.907 79.9028C677.266 77.9662 679.059 76.7468 680.924 77.1054Z" fill="#303030"></path>
</g>
<g opacity="0.4">
<path opacity="0.3" d="M690.894 70.1473C692.759 70.506 693.979 72.2992 693.692 74.1641C693.333 76.029 691.54 77.2484 689.675 76.9615C687.81 76.6028 686.591 74.8096 686.878 72.9447C687.236 71.0798 689.03 69.7887 690.894 70.1473Z" fill="#303030"></path>
</g>
<g opacity="0.4">
<path opacity="0.3" d="M705.813 73.4466C706.243 73.3031 706.673 73.1597 707.104 73.1597C707.319 73.1597 707.534 73.1597 707.821 73.2314C709.686 73.59 710.905 75.3832 710.618 77.2482C710.26 79.1131 708.467 80.3324 706.602 80.0455C706.386 79.9738 706.171 79.9021 705.956 79.8304C705.526 79.6869 705.167 79.4 704.808 79.1131C704.019 78.3241 703.589 77.1764 703.804 76.0288C704.019 74.8094 704.808 73.9487 705.813 73.4466Z" fill="#303030"></path>
</g>
<g opacity="0.4">
<path opacity="0.3" d="M696.633 124.302C697.063 124.158 697.494 124.015 697.924 124.015C698.139 124.015 698.354 124.015 698.641 124.086C700.506 124.445 701.726 126.238 701.439 128.103C701.08 129.968 699.287 131.187 697.422 130.901C697.207 130.829 696.992 130.757 696.776 130.685C696.346 130.542 695.987 130.255 695.629 129.968C694.84 129.179 694.409 128.031 694.625 126.884C694.84 125.664 695.629 124.732 696.633 124.302Z" fill="#303030"></path>
</g>
<g opacity="0.4">
<path opacity="0.3" d="M688.599 130.973C690.464 131.332 691.683 133.125 691.396 134.99C691.037 136.855 689.244 138.074 687.379 137.787C685.514 137.429 684.295 135.635 684.582 133.77C684.94 131.905 686.734 130.614 688.599 130.973Z" fill="#303030"></path>
</g>
<g opacity="0.4">
<path opacity="0.3" d="M691.684 114.045C693.548 114.404 694.768 116.197 694.481 118.062C694.122 119.927 692.329 121.146 690.464 120.859C688.599 120.501 687.38 118.708 687.667 116.843C688.025 114.978 689.819 113.687 691.684 114.045Z" fill="#303030"></path>
</g>
<g opacity="0.4">
<path opacity="0.3" d="M684.725 104.004C686.589 104.362 687.809 106.156 687.522 108.02C687.163 109.885 685.37 111.105 683.505 110.818C681.64 110.459 680.421 108.666 680.708 106.801C681.066 104.936 682.86 103.717 684.725 104.004Z" fill="#303030"></path>
</g>
<g opacity="0.4">
<path opacity="0.3" d="M685.515 147.9C687.379 148.259 688.599 150.052 688.312 151.917C687.953 153.782 686.16 155.001 684.295 154.714C682.43 154.356 681.211 152.563 681.498 150.698C681.856 148.833 683.65 147.542 685.515 147.9Z" fill="#303030"></path>
</g>
<g opacity="0.4">
<path opacity="0.3" d="M693.548 141.229C693.978 141.086 694.409 140.942 694.839 140.942C695.054 140.942 695.269 140.942 695.556 141.014C697.421 141.373 698.641 143.166 698.354 145.031C697.995 146.896 696.202 148.115 694.337 147.828C694.122 147.757 693.907 147.685 693.691 147.613C693.261 147.47 692.902 147.183 692.544 146.896C691.755 146.107 691.324 144.959 691.54 143.811C691.755 142.592 692.544 141.66 693.548 141.229Z" fill="#303030"></path>
</g>
<g opacity="0.4">
<path opacity="0.3" d="M684.295 192.013C684.725 191.87 685.156 191.726 685.586 191.726C685.801 191.726 686.017 191.726 686.303 191.798C688.168 192.156 689.388 193.95 689.101 195.815C688.742 197.679 686.949 198.899 685.084 198.612C684.869 198.54 684.654 198.468 684.438 198.397C684.008 198.253 683.649 197.966 683.291 197.679C682.502 196.89 682.071 195.743 682.287 194.595C682.502 193.376 683.291 192.443 684.295 192.013Z" fill="#303030"></path>
</g>
<g opacity="0.4">
<path opacity="0.3" d="M687.379 175.086C687.809 174.942 688.24 174.799 688.67 174.799C688.885 174.799 689.1 174.799 689.387 174.871C691.252 175.229 692.472 177.022 692.185 178.887C691.826 180.752 690.033 181.972 688.168 181.685C687.953 181.613 687.738 181.541 687.522 181.47C687.092 181.326 686.733 181.039 686.375 180.752C685.586 179.963 685.155 178.816 685.371 177.668C685.586 176.449 686.375 175.516 687.379 175.086Z" fill="#303030"></path>
</g>
<g opacity="0.4">
<path opacity="0.3" d="M678.126 225.941C678.556 225.798 678.987 225.654 679.417 225.654C679.632 225.654 679.848 225.654 680.134 225.726C681.999 226.085 683.219 227.878 682.932 229.743C682.573 231.608 680.78 232.827 678.915 232.54C678.7 232.468 678.485 232.397 678.27 232.325C677.839 232.182 677.481 231.895 677.122 231.608C676.333 230.819 675.903 229.671 676.118 228.523C676.333 227.304 677.122 226.372 678.126 225.941Z" fill="#303030"></path>
</g>
<g opacity="0.4">
<path opacity="0.3" d="M681.211 208.941C681.641 208.797 682.072 208.654 682.502 208.654C682.717 208.654 682.933 208.654 683.219 208.726C685.084 209.084 686.304 210.877 686.017 212.742C685.658 214.607 683.865 215.827 682 215.54C681.785 215.468 681.57 215.396 681.354 215.324C680.924 215.181 680.566 214.894 680.207 214.607C679.418 213.818 678.987 212.671 679.203 211.523C679.418 210.304 680.207 209.443 681.211 208.941Z" fill="#303030"></path>
</g>
<g opacity="0.4">
<path opacity="0.3" d="M668.873 276.723C669.304 276.58 669.734 276.437 670.164 276.437C670.379 276.437 670.595 276.437 670.882 276.508C672.746 276.867 673.966 278.66 673.679 280.525C673.32 282.39 671.527 283.609 669.662 283.322C669.447 283.251 669.232 283.179 669.017 283.107C668.586 282.964 668.228 282.677 667.869 282.39C667.08 281.601 666.65 280.453 666.865 279.306C667.08 278.086 667.869 277.154 668.873 276.723Z" fill="#303030"></path>
</g>
<g opacity="0.4">
<path opacity="0.3" d="M675.041 242.868C675.471 242.725 675.902 242.582 676.332 242.582C676.547 242.582 676.763 242.582 677.049 242.653C678.914 243.012 680.134 244.805 679.847 246.67C679.488 248.535 677.695 249.754 675.83 249.467C675.615 249.396 675.4 249.324 675.185 249.252C674.754 249.109 674.396 248.822 674.037 248.535C673.248 247.746 672.818 246.598 673.033 245.451C673.248 244.231 674.037 243.299 675.041 242.868Z" fill="#303030"></path>
</g>
<g opacity="0.4">
<path opacity="0.3" d="M665.789 293.651C666.22 293.507 666.65 293.364 667.08 293.364C667.295 293.364 667.511 293.364 667.798 293.435C669.662 293.794 670.882 295.587 670.595 297.452C670.236 299.317 668.443 300.537 666.578 300.25C666.363 300.178 666.148 300.106 665.933 300.034C665.502 299.891 665.144 299.604 664.785 299.317C663.996 298.528 663.566 297.381 663.781 296.233C663.996 295.014 664.785 294.081 665.789 293.651Z" fill="#303030"></path>
</g>
<g opacity="0.4">
<path opacity="0.3" d="M659.62 327.507C660.051 327.364 660.481 327.22 660.911 327.22C661.126 327.22 661.342 327.22 661.629 327.292C663.494 327.651 664.713 329.444 664.426 331.309C664.067 333.174 662.274 334.393 660.409 334.106C660.194 334.034 659.979 333.963 659.764 333.891C659.333 333.747 658.975 333.461 658.616 333.174C657.827 332.385 657.397 331.237 657.612 330.089C657.827 328.87 658.616 327.937 659.62 327.507Z" fill="#303030"></path>
</g>
<g opacity="0.4">
<path opacity="0.3" d="M662.705 310.58C663.136 310.436 663.566 310.293 663.996 310.293C664.211 310.293 664.427 310.293 664.714 310.365C666.578 310.723 667.798 312.517 667.511 314.381C667.152 316.246 665.359 317.466 663.494 317.179C663.279 317.107 663.064 317.035 662.849 316.964C662.418 316.82 662.06 316.533 661.701 316.246C660.912 315.457 660.482 314.31 660.697 313.162C660.912 311.943 661.701 311.01 662.705 310.58Z" fill="#303030"></path>
</g>
<g opacity="0.4">
<path opacity="0.3" d="M653.524 361.433C653.954 361.29 654.384 361.146 654.815 361.146C655.03 361.146 655.245 361.146 655.532 361.218C657.397 361.577 658.616 363.37 658.329 365.235C657.971 367.1 656.177 368.319 654.313 368.032C654.097 367.961 653.882 367.889 653.667 367.817C653.237 367.674 652.878 367.387 652.519 367.1C651.73 366.311 651.3 365.163 651.515 364.016C651.73 362.796 652.448 361.864 653.524 361.433Z" fill="#303030"></path>
</g>
<g opacity="0.4">
<path opacity="0.3" d="M656.536 344.435C656.967 344.291 657.397 344.148 657.827 344.148C658.043 344.148 658.258 344.148 658.545 344.22C660.41 344.578 661.629 346.372 661.342 348.236C660.983 350.101 659.19 351.321 657.325 351.034C657.11 350.962 656.895 350.89 656.68 350.819C656.249 350.675 655.891 350.388 655.532 350.101C654.743 349.312 654.313 348.165 654.528 347.017C654.815 345.798 655.532 344.937 656.536 344.435Z" fill="#303030"></path>
</g>
<g opacity="0.4">
<path opacity="0.3" d="M647.355 395.289C647.785 395.145 648.215 395.002 648.646 395.002C648.861 395.002 649.076 395.002 649.363 395.074C651.228 395.432 652.447 397.226 652.16 399.09C651.802 400.955 650.009 402.175 648.144 401.888C647.928 401.816 647.713 401.744 647.498 401.673C647.068 401.529 646.709 401.242 646.35 400.955C645.561 400.166 645.131 399.019 645.346 397.871C645.561 396.652 646.35 395.719 647.355 395.289Z" fill="#303030"></path>
</g>
<g opacity="0.4">
<path opacity="0.3" d="M650.44 378.363C650.87 378.219 651.3 378.076 651.731 378.076C651.946 378.076 652.161 378.076 652.448 378.147C654.313 378.506 655.532 380.299 655.245 382.164C654.887 384.029 653.093 385.248 651.229 384.962C651.013 384.89 650.798 384.818 650.583 384.746C650.153 384.603 649.794 384.316 649.435 384.029C648.646 383.24 648.216 382.092 648.431 380.945C648.646 379.725 649.435 378.793 650.44 378.363Z" fill="#303030"></path>
</g>
<g opacity="0.4">
<path opacity="0.3" d="M663.063 415.804C664.928 416.162 666.148 417.955 665.861 419.82C665.502 421.685 663.709 422.905 661.844 422.618C659.979 422.259 658.76 420.466 659.047 418.601C659.405 416.736 661.198 415.445 663.063 415.804Z" fill="#303030"></path>
</g>
<g opacity="0.4">
<path opacity="0.3" d="M679.991 418.889C681.856 419.247 683.075 421.04 682.789 422.905C682.43 424.77 680.637 425.99 678.772 425.703C676.907 425.344 675.687 423.551 675.974 421.686C676.333 419.821 678.126 418.53 679.991 418.889Z" fill="#303030"></path>
</g>
<g opacity="0.4">
<path opacity="0.3" d="M669.949 425.846C671.814 426.204 673.033 427.997 672.747 429.862C672.388 431.727 670.595 432.947 668.73 432.66C666.865 432.301 665.645 430.508 665.932 428.643C666.291 426.706 668.084 425.487 669.949 425.846Z" fill="#303030"></path>
</g>
<g opacity="0.4">
<path opacity="0.3" d="M653.021 422.762C654.886 423.121 656.106 424.914 655.819 426.779C655.46 428.644 653.667 429.863 651.802 429.576C649.937 429.218 648.718 427.424 649.005 425.56C649.363 423.623 651.156 422.404 653.021 422.762Z" fill="#303030"></path>
</g>
<g opacity="0.4">
<path opacity="0.3" d="M673.034 408.918C674.899 409.277 676.118 411.07 675.831 412.935C675.473 414.8 673.68 416.019 671.815 415.732C669.95 415.373 668.73 413.58 669.017 411.715C669.376 409.779 671.169 408.559 673.034 408.918Z" fill="#303030"></path>
</g>
<g opacity="0.4">
<path opacity="0.3" d="M656.106 405.832C657.971 406.191 659.191 407.984 658.904 409.849C658.545 411.714 656.752 412.933 654.887 412.646C653.022 412.287 651.803 410.494 652.09 408.629C652.448 406.693 654.241 405.473 656.106 405.832Z" fill="#303030"></path>
</g>
<g opacity="0.4">
<path opacity="0.3" d="M656.895 449.659C658.76 450.018 659.98 451.811 659.693 453.676C659.334 455.541 657.541 456.76 655.676 456.473C653.811 456.114 652.592 454.321 652.879 452.456C653.237 450.591 655.031 449.372 656.895 449.659Z" fill="#303030"></path>
</g>
<g opacity="0.4">
<path opacity="0.3" d="M673.822 452.742C675.687 453.101 676.906 454.894 676.62 456.759C676.261 458.624 674.468 459.843 672.603 459.557C670.738 459.198 669.519 457.405 669.805 455.54C670.164 453.675 671.957 452.456 673.822 452.742Z" fill="#303030"></path>
</g>
<g opacity="0.4">
<path opacity="0.3" d="M663.852 459.701C665.717 460.059 666.937 461.852 666.65 463.717C666.291 465.582 664.498 466.802 662.633 466.515C660.768 466.156 659.549 464.363 659.836 462.498C660.123 460.633 661.916 459.342 663.852 459.701Z" fill="#303030"></path>
</g>
<g opacity="0.4">
<path opacity="0.3" d="M646.853 456.617C648.718 456.976 649.938 458.769 649.651 460.634C649.292 462.499 647.499 463.718 645.634 463.431C643.769 463.073 642.55 461.279 642.837 459.414C643.195 457.55 644.989 456.258 646.853 456.617Z" fill="#303030"></path>
</g>
<g opacity="0.4">
<path opacity="0.3" d="M666.865 442.772C668.73 443.131 669.949 444.924 669.663 446.789C669.304 448.654 667.511 449.873 665.646 449.586C663.781 449.227 662.561 447.434 662.848 445.569C663.207 443.633 665 442.413 666.865 442.772Z" fill="#303030"></path>
</g>
<g opacity="0.4">
<path opacity="0.3" d="M649.936 439.689C651.801 440.048 653.021 441.841 652.734 443.706C652.375 445.571 650.582 446.79 648.717 446.504C646.852 446.145 645.633 444.352 645.92 442.487C646.278 440.55 648.072 439.331 649.936 439.689Z" fill="#303030"></path>
</g>
<g opacity="0.4">
<path opacity="0.3" d="M659.978 432.731C661.843 433.09 663.063 434.883 662.776 436.748C662.417 438.613 660.624 439.832 658.759 439.545C656.894 439.187 655.675 437.394 655.962 435.529C656.32 433.664 658.114 432.444 659.978 432.731Z" fill="#303030"></path>
</g>
<g opacity="0.4">
<path opacity="0.3" d="M676.907 435.816C678.772 436.175 679.991 437.968 679.705 439.833C679.346 441.698 677.553 442.917 675.688 442.63C673.823 442.272 672.603 440.479 672.89 438.614C673.249 436.749 675.042 435.529 676.907 435.816Z" fill="#303030"></path>
</g>
<g opacity="0.4">
<path opacity="0.3" d="M650.726 483.586C652.591 483.945 653.811 485.738 653.524 487.603C653.165 489.468 651.372 490.687 649.507 490.401C647.642 490.042 646.423 488.249 646.71 486.384C647.068 484.447 648.862 483.228 650.726 483.586Z" fill="#303030"></path>
</g>
<g opacity="0.4">
<path opacity="0.3" d="M667.654 486.67C669.519 487.029 670.739 488.822 670.452 490.687C670.093 492.552 668.3 493.771 666.435 493.485C664.57 493.126 663.351 491.333 663.637 489.468C663.996 487.531 665.789 486.312 667.654 486.67Z" fill="#303030"></path>
</g>
<g opacity="0.4">
<path opacity="0.3" d="M660.768 476.628C662.633 476.987 663.853 478.78 663.566 480.645C663.207 482.51 661.414 483.729 659.549 483.442C657.684 483.084 656.465 481.291 656.752 479.426C657.11 477.561 658.904 476.27 660.768 476.628Z" fill="#303030"></path>
</g>
<g opacity="0.4">
<path opacity="0.3" d="M643.769 473.545C645.633 473.903 646.853 475.697 646.566 477.562C646.207 479.426 644.414 480.646 642.549 480.359C640.684 480 639.465 478.207 639.752 476.342C640.11 474.477 641.904 473.186 643.769 473.545Z" fill="#303030"></path>
</g>
<g opacity="0.4">
<path opacity="0.3" d="M653.81 466.659C655.675 467.017 656.895 468.811 656.608 470.675C656.249 472.54 654.456 473.76 652.591 473.473C650.726 473.114 649.507 471.321 649.794 469.456C650.152 467.519 651.946 466.3 653.81 466.659Z" fill="#303030"></path>
</g>
<g opacity="0.4">
<path opacity="0.3" d="M670.738 469.744C672.603 470.102 673.823 471.895 673.536 473.76C673.177 475.625 671.384 476.845 669.519 476.558C667.654 476.199 666.435 474.406 666.721 472.541C667.08 470.604 668.873 469.385 670.738 469.744Z" fill="#303030"></path>
</g>
<g opacity="0.4">
<path opacity="0.3" d="M644.127 413.006C644.557 412.863 644.988 412.719 645.418 412.719C645.633 412.719 645.849 412.719 646.135 412.791C648 413.15 649.22 414.943 648.933 416.808C648.574 418.673 646.781 419.892 644.916 419.605C644.701 419.533 644.486 419.462 644.271 419.39C643.84 419.247 643.482 418.96 643.123 418.673C642.334 417.884 641.903 416.736 642.119 415.588C642.334 414.369 643.123 413.437 644.127 413.006Z" fill="#303030"></path>
</g>
<g opacity="0.4">
<path opacity="0.3" d="M637.958 446.862C638.388 446.718 638.819 446.575 639.249 446.575C639.464 446.575 639.68 446.575 639.966 446.646C641.831 447.005 643.051 448.798 642.764 450.663C642.405 452.528 640.612 453.748 638.747 453.461C638.532 453.389 638.317 453.317 638.102 453.245C637.671 453.102 637.313 452.815 636.954 452.528C636.165 451.739 635.735 450.591 635.95 449.444C636.165 448.224 636.954 447.292 637.958 446.862Z" fill="#303030"></path>
</g>
<g opacity="0.4">
<path opacity="0.3" d="M641.043 429.933C641.473 429.79 641.904 429.646 642.334 429.646C642.549 429.646 642.765 429.646 643.051 429.718C644.916 430.077 646.136 431.87 645.849 433.735C645.49 435.6 643.697 436.819 641.832 436.532C641.617 436.461 641.402 436.389 641.187 436.317C640.756 436.174 640.398 435.887 640.039 435.6C639.25 434.811 638.82 433.663 639.035 432.516C639.25 431.296 640.039 430.364 641.043 429.933Z" fill="#303030"></path>
</g>
<g opacity="0.4">
<path opacity="0.3" d="M631.79 480.718C632.221 480.574 632.651 480.431 633.081 480.431C633.296 480.431 633.512 480.431 633.799 480.502C635.663 480.861 636.883 482.654 636.596 484.519C636.237 486.384 634.444 487.603 632.579 487.317C632.364 487.245 632.149 487.173 631.934 487.101C631.503 486.958 631.145 486.671 630.786 486.384C629.997 485.595 629.567 484.447 629.782 483.3C629.997 482.08 630.786 481.148 631.79 480.718Z" fill="#303030"></path>
</g>
<g opacity="0.4">
<path opacity="0.3" d="M634.874 463.79C635.304 463.646 635.735 463.503 636.165 463.503C636.38 463.503 636.596 463.503 636.882 463.575C638.747 463.933 639.967 465.726 639.68 467.591C639.321 469.456 637.528 470.676 635.663 470.389C635.448 470.317 635.233 470.245 635.018 470.174C634.587 470.03 634.229 469.743 633.87 469.456C633.081 468.667 632.651 467.52 632.866 466.372C633.081 465.153 633.87 464.22 634.874 463.79Z" fill="#303030"></path>
</g>
<g opacity="0.4">
<path opacity="0.3" d="M656.895 494.848C658.76 495.206 659.98 496.999 659.693 498.864C659.334 500.729 657.541 501.949 655.676 501.662C653.811 501.303 652.592 499.51 652.879 497.645C653.237 495.708 655.031 494.489 656.895 494.848Z" fill="#303030"></path>
</g>
<g opacity="0.4">
<path opacity="0.3" d="M639.968 491.764C641.833 492.122 643.052 493.915 642.765 495.78C642.406 497.645 640.613 498.865 638.748 498.578C636.883 498.219 635.664 496.426 635.951 494.561C636.31 492.624 638.103 491.405 639.968 491.764Z" fill="#303030"></path>
</g>
<g opacity="0.4">
<path opacity="0.3" d="M643.769 518.662C645.633 519.021 646.853 520.814 646.566 522.679C646.207 524.544 644.414 525.763 642.549 525.476C640.684 525.117 639.465 523.324 639.752 521.459C640.11 519.594 641.904 518.375 643.769 518.662Z" fill="#303030"></path>
</g>
<g opacity="0.4">
<path opacity="0.3" d="M660.767 521.746C662.632 522.105 663.852 523.898 663.565 525.763C663.206 527.628 661.413 528.847 659.548 528.56C657.683 528.201 656.464 526.408 656.751 524.543C657.109 522.678 658.903 521.459 660.767 521.746Z" fill="#303030"></path>
</g>
<g opacity="0.4">
<path opacity="0.3" d="M650.726 528.704C652.591 529.062 653.811 530.855 653.524 532.72C653.165 534.585 651.372 535.805 649.507 535.518C647.642 535.159 646.423 533.366 646.71 531.501C647.068 529.564 648.862 528.345 650.726 528.704Z" fill="#303030"></path>
</g>
<g opacity="0.4">
<path opacity="0.3" d="M633.798 525.619C635.663 525.977 636.882 527.77 636.595 529.635C636.237 531.5 634.443 532.72 632.578 532.433C630.713 532.074 629.494 530.281 629.781 528.416C630.14 526.551 631.933 525.26 633.798 525.619Z" fill="#303030"></path>
</g>
<g opacity="0.4">
<path opacity="0.3" d="M653.81 511.776C655.675 512.134 656.895 513.928 656.608 515.793C656.249 517.657 654.456 518.877 652.591 518.59C650.726 518.231 649.507 516.438 649.794 514.573C650.152 512.637 651.946 511.417 653.81 511.776Z" fill="#303030"></path>
</g>
<g opacity="0.4">
<path opacity="0.3" d="M636.883 508.691C638.748 509.05 639.967 510.843 639.68 512.708C639.321 514.573 637.528 515.792 635.663 515.506C633.798 515.147 632.579 513.354 632.866 511.489C633.225 509.552 635.018 508.333 636.883 508.691Z" fill="#303030"></path>
</g>
<g opacity="0.4">
<path opacity="0.3" d="M646.853 501.734C648.718 502.093 649.938 503.886 649.651 505.751C649.292 507.616 647.499 508.835 645.634 508.548C643.769 508.19 642.55 506.397 642.837 504.532C643.195 502.667 644.989 501.376 646.853 501.734Z" fill="#303030"></path>
</g>
<g opacity="0.4">
<path opacity="0.3" d="M663.852 504.818C665.717 505.176 666.937 506.97 666.65 508.834C666.291 510.699 664.498 511.919 662.633 511.632C660.768 511.273 659.549 509.48 659.836 507.615C660.123 505.75 661.916 504.459 663.852 504.818Z" fill="#303030"></path>
</g>
<g opacity="0.4">
<path opacity="0.3" d="M637.671 552.588C639.536 552.947 640.755 554.74 640.468 556.605C640.11 558.47 638.316 559.689 636.451 559.402C634.587 559.044 633.367 557.251 633.654 555.386C634.013 553.449 635.806 552.23 637.671 552.588Z" fill="#303030"></path>
</g>
<g opacity="0.4">
<path opacity="0.3" d="M654.599 555.673C656.463 556.031 657.683 557.825 657.396 559.69C657.037 561.554 655.244 562.774 653.379 562.487C651.514 562.128 650.295 560.335 650.582 558.47C650.94 556.534 652.734 555.314 654.599 555.673Z" fill="#303030"></path>
</g>
<g opacity="0.4">
<path opacity="0.3" d="M647.642 545.631C649.506 545.99 650.726 547.783 650.439 549.648C650.08 551.513 648.287 552.732 646.422 552.445C644.557 552.087 643.338 550.294 643.625 548.429C643.983 546.564 645.777 545.273 647.642 545.631Z" fill="#303030"></path>
</g>
<g opacity="0.4">
<path opacity="0.3" d="M630.715 542.546C632.58 542.905 633.799 544.698 633.512 546.563C633.154 548.428 631.36 549.647 629.495 549.36C627.63 549.002 626.411 547.209 626.698 545.344C627.057 543.479 628.85 542.188 630.715 542.546Z" fill="#303030"></path>
</g>
<g opacity="0.4">
<path opacity="0.3" d="M640.756 535.588C642.621 535.947 643.84 537.74 643.553 539.605C643.195 541.47 641.401 542.689 639.536 542.402C637.672 542.044 636.452 540.25 636.739 538.386C637.026 536.521 638.819 535.301 640.756 535.588Z" fill="#303030"></path>
</g>
<g opacity="0.4">
<path opacity="0.3" d="M657.684 538.674C659.548 539.033 660.768 540.826 660.481 542.691C660.122 544.556 658.329 545.775 656.464 545.488C654.599 545.13 653.38 543.336 653.667 541.471C654.025 539.607 655.819 538.387 657.684 538.674Z" fill="#303030"></path>
</g>
<g opacity="0.4">
<path opacity="0.3" d="M624.832 515.864C625.262 515.721 625.693 515.577 626.123 515.577C626.338 515.577 626.554 515.577 626.84 515.649C628.705 516.007 629.925 517.801 629.638 519.666C629.279 521.531 627.486 522.75 625.621 522.463C625.406 522.391 625.191 522.32 624.976 522.248C624.545 522.104 624.187 521.817 623.828 521.531C623.039 520.742 622.609 519.594 622.824 518.446C623.039 517.227 623.828 516.294 624.832 515.864Z" fill="#303030"></path>
</g>
<g opacity="0.4">
<path opacity="0.3" d="M627.917 498.937C628.347 498.793 628.778 498.65 629.208 498.65C629.423 498.65 629.639 498.65 629.925 498.722C631.79 499.08 633.01 500.873 632.723 502.738C632.364 504.603 630.571 505.823 628.706 505.536C628.491 505.464 628.276 505.392 628.061 505.321C627.63 505.177 627.272 504.89 626.913 504.603C626.124 503.814 625.694 502.667 625.909 501.519C626.124 500.3 626.913 499.367 627.917 498.937Z" fill="#303030"></path>
</g>
<g opacity="0.4">
<path opacity="0.3" d="M621.82 532.792C622.251 532.648 622.681 532.505 623.111 532.505C623.327 532.505 623.542 532.505 623.829 532.577C625.694 532.935 626.913 534.728 626.626 536.593C626.268 538.458 624.474 539.678 622.609 539.391C622.394 539.319 622.179 539.247 621.964 539.176C621.534 539.032 621.175 538.745 620.816 538.458C620.027 537.669 619.597 536.522 619.812 535.374C620.027 534.155 620.744 533.222 621.82 532.792Z" fill="#303030"></path>
</g>
<g opacity="0.4">
<path opacity="0.3" d="M665.789 101.206C666.22 101.062 666.65 100.919 667.08 100.919C667.295 100.919 667.511 100.919 667.798 100.991C669.662 101.349 670.882 103.143 670.595 105.007C670.236 106.872 668.443 108.092 666.578 107.805C666.363 107.733 666.148 107.661 665.933 107.59C665.502 107.446 665.144 107.159 664.785 106.872C663.996 106.083 663.566 104.936 663.781 103.788C663.996 102.569 664.785 101.636 665.789 101.206Z" fill="#303030"></path>
</g>
<g opacity="0.4">
<path opacity="0.3" d="M653.955 80.9065C655.82 81.2651 657.039 83.0583 656.752 84.9233C656.394 86.7882 654.601 88.0076 652.736 87.7206C650.871 87.362 649.651 85.5688 649.938 83.7039C650.297 81.839 652.09 80.6196 653.955 80.9065Z" fill="#303030"></path>
</g>
<g opacity="0.4">
<path opacity="0.3" d="M668.873 84.2786C669.304 84.1352 669.734 83.9917 670.164 83.9917C670.379 83.9917 670.595 83.9917 670.882 84.0634C672.746 84.4221 673.966 86.2153 673.679 88.0802C673.32 89.9451 671.527 91.1645 669.662 90.8776C669.447 90.8058 669.232 90.7341 669.017 90.6624C668.586 90.5189 668.228 90.232 667.869 89.9451C667.08 89.1561 666.65 88.0085 666.865 86.8608C667.08 85.6414 667.869 84.709 668.873 84.2786Z" fill="#303030"></path>
</g>
<g opacity="0.4">
<path opacity="0.3" d="M660.912 90.9481C662.777 91.3068 663.996 93.1 663.709 94.9649C663.351 96.8298 661.558 98.0492 659.693 97.7623C657.828 97.4036 656.608 95.6104 656.895 93.7455C657.254 91.8806 659.047 90.5895 660.912 90.9481Z" fill="#303030"></path>
</g>
<g opacity="0.4">
<path opacity="0.3" d="M643.913 87.8646C645.778 88.2233 646.997 90.0165 646.71 91.8814C646.352 93.7463 644.559 94.9657 642.694 94.6788C640.829 94.3201 639.609 92.5269 639.896 90.662C640.255 88.7971 642.048 87.506 643.913 87.8646Z" fill="#303030"></path>
</g>
<g opacity="0.4"><path opacity="0.3" d="M663.996 74.0205C665.861 74.3791 667.08 76.1723 666.793 78.0372C666.435 79.9021 664.642 81.1215 662.777 80.8346C660.912 80.476 659.692 78.6828 659.979 76.8178C660.266 74.8812 662.059 73.6618 663.996 74.0205Z" fill="#303030"></path>
</g>
<g opacity="0.4">
<path opacity="0.3" d="M646.996 70.937C648.861 71.2956 650.08 73.0888 649.793 74.9537C649.435 76.8187 647.642 78.038 645.777 77.7511C643.912 77.3925 642.692 75.5993 642.979 73.7344C643.338 71.7977 645.131 70.5783 646.996 70.937Z" fill="#303030"></path>
</g>
<g opacity="0.4">
<path opacity="0.3" d="M657.038 63.9788C658.903 64.3374 660.122 66.1306 659.835 67.9955C659.477 69.8605 657.684 71.0798 655.819 70.7929C653.954 70.4343 652.734 68.6411 653.021 66.7762C653.38 64.9112 655.173 63.6919 657.038 63.9788Z" fill="#303030"></path>
</g>
<g opacity="0.4">
<path opacity="0.3" d="M671.958 67.2781C672.388 67.1347 672.819 66.9912 673.249 66.9912C673.464 66.9912 673.68 66.9912 673.966 67.0629C675.831 67.4216 677.051 69.2148 676.764 71.0797C676.405 72.9446 674.612 74.164 672.747 73.8771C672.532 73.8054 672.317 73.7336 672.102 73.6619C671.671 73.5184 671.313 73.2315 670.954 72.9446C670.165 72.1556 669.735 71.008 669.95 69.8603C670.165 68.7127 670.954 67.7802 671.958 67.2781Z" fill="#303030"></path>
</g>
<g opacity="0.4">
<path opacity="0.3" d="M650.87 97.9067C652.735 98.2653 653.954 100.059 653.667 101.923C653.309 103.788 651.516 105.008 649.651 104.721C647.786 104.362 646.566 102.569 646.853 100.704C647.212 98.7674 649.005 97.5481 650.87 97.9067Z" fill="#303030"></path>
</g>
<g opacity="0.4">
<path opacity="0.3" d="M631.934 95.0379C632.364 94.8944 632.794 94.751 633.225 94.751C633.44 94.751 633.655 94.751 633.942 94.8227C635.807 95.1813 637.026 96.9745 636.739 98.8395C636.381 100.704 634.588 101.924 632.723 101.637C632.508 101.565 632.292 101.493 632.077 101.422C631.647 101.278 631.288 100.991 630.93 100.704C630.141 99.9154 629.71 98.7677 629.925 97.6201C630.141 96.4007 630.93 95.4683 631.934 95.0379Z" fill="#303030"></path>
</g>
<g opacity="0.4">
<path opacity="0.3" d="M620.099 74.809C621.964 75.1677 623.183 76.9609 622.896 78.8258C622.537 80.6907 620.744 81.9101 618.879 81.6232C617.014 81.2645 615.795 79.4713 616.082 77.6064C616.44 75.6698 618.234 74.4504 620.099 74.809Z" fill="#303030"></path>
</g>
<g opacity="0.4">
<path opacity="0.3" d="M635.018 78.1087C635.448 77.9652 635.878 77.8218 636.309 77.8218C636.524 77.8218 636.739 77.8218 637.026 77.8935C638.891 78.2521 640.11 80.0453 639.823 81.9103C639.465 83.7752 637.672 84.9946 635.807 84.7076C635.591 84.6359 635.376 84.5642 635.161 84.4925C634.731 84.349 634.372 84.0621 634.013 83.7752C633.224 82.9862 632.794 81.8385 633.009 80.6909C633.224 79.4715 634.013 78.5391 635.018 78.1087Z" fill="#303030"></path>
</g>
<g opacity="0.4">
<path opacity="0.3" d="M626.983 84.7801C628.848 85.1388 630.068 86.932 629.781 88.7969C629.422 90.6618 627.629 91.8812 625.764 91.5943C623.899 91.2357 622.68 89.4425 622.967 87.5775C623.325 85.7126 625.118 84.4215 626.983 84.7801Z" fill="#303030"></path>
</g>
<g opacity="0.4">
<path opacity="0.3" d="M610.057 81.6952C611.922 82.0538 613.141 83.847 612.854 85.7119C612.495 87.5769 610.702 88.7962 608.837 88.5093C606.972 88.1507 605.753 86.3575 606.04 84.4926C606.398 82.6277 608.192 81.3365 610.057 81.6952Z" fill="#303030"></path>
</g>
<g opacity="0.4">
<path opacity="0.3" d="M630.068 67.8524C631.933 68.2111 633.153 70.0043 632.866 71.8692C632.507 73.7341 630.714 74.9535 628.849 74.6666C626.984 74.3079 625.765 72.5147 626.052 70.6498C626.41 68.7849 628.203 67.4938 630.068 67.8524Z" fill="#303030"></path>
</g>
<g opacity="0.4">
<path opacity="0.3" d="M613.142 64.7675C615.006 65.1261 616.226 66.9193 615.939 68.7842C615.58 70.6491 613.787 71.8685 611.922 71.5816C610.057 71.223 608.838 69.4298 609.125 67.5648C609.483 65.6999 611.277 64.4088 613.142 64.7675Z" fill="#303030"></path>
</g>
<g opacity="0.4">
<path opacity="0.3" d="M603.171 71.726C605.036 72.0847 606.255 73.8779 605.968 75.7428C605.61 77.6077 603.816 78.8271 601.951 78.5402C600.087 78.1815 598.867 76.3883 599.154 74.5234C599.513 72.5868 601.306 71.3674 603.171 71.726Z" fill="#303030"></path>
</g>
<g opacity="0.4">
<path opacity="0.3" d="M623.184 57.8108C625.048 58.1694 626.268 59.9626 625.981 61.8276C625.622 63.6925 623.829 64.9119 621.964 64.6249C620.099 64.2663 618.88 62.4731 619.167 60.6082C619.525 58.7433 621.319 57.5239 623.184 57.8108Z" fill="#303030"></path>
</g>
<g opacity="0.4">
<path opacity="0.3" d="M638.102 61.1814C638.532 61.038 638.962 60.8945 639.393 60.8945C639.608 60.8945 639.823 60.8945 640.11 60.9663C641.975 61.3249 643.194 63.1181 642.907 64.983C642.549 66.8479 640.756 68.0673 638.891 67.7804C638.675 67.7087 638.46 67.6369 638.245 67.5652C637.815 67.4218 637.456 67.1349 637.097 66.8479C636.308 66.0589 635.878 64.9113 636.093 63.7636C636.308 62.5443 637.097 61.6118 638.102 61.1814Z" fill="#303030"></path>
</g>
<g opacity="0.4">
<path opacity="0.3" d="M617.015 91.7382C618.879 92.0969 620.099 93.8901 619.812 95.755C619.453 97.6199 617.66 98.8393 615.795 98.5524C613.93 98.1937 612.711 96.4005 612.998 94.5356C613.356 92.599 615.15 91.3796 617.015 91.7382Z" fill="#303030"></path>
</g>
<g opacity="0.4">
<path opacity="0.3" d="M593.129 78.6117C594.994 78.9703 596.213 80.7635 595.926 82.6285C595.568 84.4934 593.774 85.7127 591.909 85.4258C590.045 85.0672 588.825 83.274 589.112 81.4091C589.471 79.5442 591.264 78.2531 593.129 78.6117Z" fill="#303030"></path>
</g>
<g opacity="0.4">
<path opacity="0.3" d="M596.214 61.6844C598.079 62.0431 599.298 63.8363 599.011 65.7012C598.653 67.5661 596.859 68.7855 594.994 68.4986C593.13 68.1399 591.91 66.3468 592.197 64.4818C592.556 62.6169 594.349 61.3258 596.214 61.6844Z" fill="#303030"></path>
</g>
<g opacity="0.4">
<path opacity="0.3" d="M604.246 55.013C604.677 54.8695 605.107 54.7261 605.537 54.7261C605.752 54.7261 605.968 54.7261 606.255 54.7978C608.119 55.1564 609.339 56.9496 609.052 58.8146C608.693 60.6795 606.9 61.8989 605.035 61.6119C604.82 61.5402 604.605 61.4685 604.39 61.3968C603.959 61.2533 603.601 60.9664 603.242 60.6795C602.453 59.8905 602.023 58.7428 602.238 57.5952C602.453 56.3758 603.242 55.4434 604.246 55.013Z" fill="#303030"></path>
</g>
<g opacity="0.4">
<path opacity="0.3" d="M598.078 88.868C598.509 88.7245 598.939 88.5811 599.369 88.5811C599.584 88.5811 599.8 88.5811 600.087 88.6528C601.952 89.0114 603.171 90.8046 602.884 92.6695C602.525 94.5345 600.732 95.7538 598.867 95.4669C598.652 95.3952 598.437 95.3235 598.222 95.2517C597.791 95.1083 597.433 94.8214 597.074 94.5345C596.285 93.7455 595.855 92.5978 596.07 91.4502C596.285 90.2308 597.074 89.2983 598.078 88.868Z" fill="#303030"></path>
</g>
<path d="M585.166 248.534L327.519 386.826L245.319 65.1265L599.439 90.5898L585.166 248.534Z" fill="#FF7373"></path>
<path d="M738.232 182.115L59.041 540.897V109.813C61.5515 107.303 62.986 105.868 65.4965 103.358H738.232V182.115Z" fill="#B0C1E1"></path>
<path d="M380.956 103.859C380.669 111.605 374.07 117.631 366.252 117.631H73.6027C73.1724 117.631 72.8855 117.917 72.8855 118.348V309.789C72.8855 317.536 66.8603 324.207 59.1137 324.494C50.9367 324.78 44.1943 318.253 44.1943 310.148V109.741C44.1943 105.939 45.7006 102.281 48.4263 99.6269L54.8818 93.1714C57.6074 90.4457 61.1938 88.9395 64.9954 88.9395H366.683C374.716 88.9395 381.315 95.6819 380.956 103.859Z" stroke="#DEDEDE" stroke-width="1.43456" stroke-miterlimit="10"></path>
<path d="M373.855 103.285C373.855 107.23 370.628 110.457 366.683 110.457H67.9363L65.7127 112.681V310.076C65.7127 314.021 62.485 317.249 58.54 317.249C54.5949 317.249 51.3672 314.021 51.3672 310.076V109.74C51.3672 107.803 52.1562 106.01 53.4473 104.647L59.9028 98.1919C61.2656 96.8291 63.0588 96.1118 64.9955 96.1118H366.683C370.628 96.1118 373.855 99.3396 373.855 103.285Z" stroke="#DEDEDE" stroke-width="1.43456" stroke-miterlimit="10"></path>
<path d="M58.54 310.148V109.74C61.0505 107.23 62.4851 105.795 64.9955 103.285H366.683" stroke="#DEDEDE" stroke-width="1.43456" stroke-miterlimit="10"></path>
<path d="M422.559 186.993C438.626 188.786 451.967 197.465 463.228 204.853C471.692 210.376 480.371 216.042 486.325 215.899C492.421 215.755 500.885 209.228 509.134 202.916C510.712 201.697 512.29 200.477 513.868 199.33C544.639 176.162 567.736 179.461 581.723 186.204C598.363 194.309 606.253 209.73 611.992 220.992C612.566 222.067 613.068 223.143 613.641 224.219C616.08 228.953 618.232 231.607 619.595 232.898C620.671 232.038 622.321 230.46 624.257 227.806C625.477 226.156 626.768 224.219 628.059 222.283C632.865 215.182 638.818 206.287 648.214 199.473C666.074 186.562 691.538 185.845 710.115 197.752C726.039 207.937 735.722 226.228 735.364 245.451C735.292 248.535 735.005 251.691 734.359 254.704C733.14 260.872 729.625 266.18 724.389 269.623C719.153 273.138 712.913 274.357 706.744 273.138C695.555 270.914 687.593 261.087 687.808 249.683C687.808 248.32 687.951 246.885 688.238 245.522C688.31 245.236 688.31 244.877 688.31 244.518C688.382 241.721 686.732 238.493 684.652 237.13C682.213 235.552 677.91 235.696 675.614 237.417C672.96 239.354 670.019 243.729 666.863 248.392C665.357 250.687 663.707 253.054 661.986 255.493C653.379 267.184 638.818 281.028 618.089 280.454C605.106 280.095 586.6 273.855 571.968 245.881C571.394 244.733 570.748 243.586 570.174 242.438C567.52 237.274 563.575 229.599 561.065 228.379C559.487 227.59 552.816 228.666 541.985 236.772C540.551 237.848 539.116 238.923 537.682 240.071C524.771 249.97 508.775 262.307 487.185 262.737C466.815 263.167 450.604 252.552 437.55 244.088C434.179 241.864 430.879 239.712 427.795 237.919" stroke="#3D3D3D" stroke-width="2.86911" stroke-miterlimit="10" stroke-linejoin="round"></path>
<path d="M456.845 214.607C467.245 221.35 477.072 227.734 486.54 227.59C496.51 227.375 506.122 219.987 516.235 212.24C517.813 211.021 519.32 209.873 520.898 208.726C546.935 189.144 565.512 191.439 576.558 196.819C589.685 203.203 596.212 216.042 601.52 226.371C602.093 227.447 602.667 228.594 603.241 229.67C608.405 239.497 614.144 245.235 619.093 245.379C623.325 245.522 628.633 241.649 633.654 234.763C635.016 232.898 636.379 230.961 637.742 228.809C642.261 222.139 647.282 214.607 655.029 209.013C669.087 198.827 689.099 198.325 703.732 207.65C718.364 217.046 726.182 235.408 722.811 252.48C721.52 258.863 715.352 262.952 709.04 261.733C702.656 260.441 698.567 254.273 699.787 247.961C701.293 240.429 697.491 231.607 691.036 227.447C684.58 223.286 674.969 223.573 668.729 228.092C664.353 231.248 660.838 236.484 657.109 242.007C655.602 244.231 654.096 246.454 652.446 248.678C642.548 262.235 630.713 269.192 618.304 268.905C608.477 268.618 594.203 263.526 582.297 240.645C581.723 239.497 581.077 238.349 580.503 237.202C576.2 228.881 572.183 220.991 566.158 218.05C556.403 213.316 542.344 221.995 534.884 227.662C533.378 228.738 531.944 229.885 530.437 231.033C518.315 240.358 504.615 250.902 486.899 251.26C470.186 251.619 456.199 242.509 443.934 234.476" stroke="#3D3D3D" stroke-width="2.86911" stroke-miterlimit="10" stroke-linejoin="round"></path>
<path d="M711.335 250.114C713.773 237.777 708.035 224.22 697.419 217.478C686.804 210.735 672.099 211.094 661.914 218.482C653.809 224.363 649.003 233.616 643.121 241.65C637.24 249.683 628.776 257.358 618.734 257.071C606.827 256.784 598.292 245.667 592.768 235.123C587.245 224.579 582.081 212.6 571.322 207.364C557.192 200.478 540.407 208.655 527.855 218.123C515.302 227.591 502.463 239.068 486.683 239.426C458.853 240 437.55 205.14 410.293 210.879" stroke="#3D3D3D" stroke-width="2.86911" stroke-miterlimit="10" stroke-linejoin="round"></path>
<path d="M259.952 536.378H120.083V147.685C122.88 144.888 124.53 143.238 127.328 140.441H252.708C255.505 143.238 257.155 144.888 259.952 147.685V536.378Z" fill="#2249B3"></path>
<path d="M194.034 235.839H186V309.001H194.034V235.839Z" stroke="#3D3D3D" stroke-width="1.43456" stroke-miterlimit="10" stroke-linejoin="bevel"></path>
<path d="M526.133 334.896L501.028 304.699L466.527 292.649L428.727 304.771C428.727 304.771 429.229 303.193 429.946 302.475L476.928 257.646C480.012 261.949 483.814 266.181 488.045 269.122C494.501 273.569 507.053 272.637 517.024 270.843L526.133 334.896Z" fill="#2249B3"></path>
<path d="M373.566 483.229L381.672 456.905L419.974 443.851L454.834 454.61L479.078 487.031L470.901 513.355L432.814 525.692L398.026 514.933L373.566 483.229Z" fill="#2249B3"></path>
<path d="M455.265 454.823L419.545 443.777L383.466 456.043L429.874 305.917L466.885 293.938L500.812 304.41L524.554 335.181L478.075 485.38L455.265 454.823Z" fill="#FF7373"></path>
<path d="M466.885 295.373L499.952 305.63L522.976 335.469L477.573 482.224L456.7 454.322L456.126 453.604L455.265 453.318L420.406 442.558L419.545 442.271L418.684 442.558L385.689 453.82L431.093 307.065L466.885 295.373ZM466.885 292.432L428.798 304.769L381.242 458.339L419.545 445.284L454.405 456.043L478.649 488.464L526.204 334.895L501.745 303.191L466.885 292.432Z" fill="#3D3D3D"></path>
<path d="M459.211 320.264L492.277 330.521L515.302 360.359L469.898 507.114L449.025 479.212L448.452 478.495L447.591 478.208L412.731 467.449L411.87 467.162L411.01 467.449L378.015 478.71L423.419 331.955L459.211 320.264ZM459.139 317.251L421.052 329.588L373.496 483.157L411.799 470.103L446.658 480.862L470.902 513.283L518.458 359.714L493.999 328.01L459.139 317.251Z" fill="#3D3D3D"></path>
<path d="M446.73 480.932L493.569 329.802" stroke="#3D3D3D" stroke-width="2.86911" stroke-miterlimit="10"></path>
<path d="M502.246 270.843C496.292 270.843 491.773 269.839 488.904 267.902C485.533 265.607 482.162 262.236 478.862 257.788L506.693 231.249C507.123 230.819 507.625 230.747 507.984 230.747C508.845 230.747 509.705 231.321 509.92 232.397L515.515 269.695C510.566 270.484 506.119 270.843 502.246 270.843Z" fill="#FF7373"></path>
<path d="M507.985 232.181C507.985 232.181 508.415 232.181 508.487 232.611L513.867 268.475C509.563 269.12 505.69 269.479 502.247 269.479C496.58 269.479 492.348 268.547 489.766 266.753C486.825 264.745 483.813 261.732 480.8 258.003L507.698 232.324C507.77 232.181 507.841 232.181 507.985 232.181ZM507.985 229.312C507.196 229.312 506.335 229.598 505.69 230.244L476.927 257.644C480.011 261.948 483.813 266.18 488.045 269.12C491.488 271.487 496.58 272.348 502.175 272.348C507.124 272.348 512.36 271.703 517.023 270.842L511.284 232.181C511.069 230.387 509.563 229.312 507.985 229.312Z" fill="#3D3D3D"></path>
<path d="M411.153 469.886L458.063 318.755" stroke="#3D3D3D" stroke-width="2.86911" stroke-miterlimit="10"></path>
<path d="M215.194 188.355C218.637 192.444 224.017 194.237 229.253 193.089C248.476 188.786 269.635 191.44 287.209 200.262C290.652 201.984 294.525 202.27 298.183 201.051C301.841 199.832 304.782 197.321 306.504 193.878C309.086 188.714 308.369 182.545 304.639 178.17C303.419 176.664 301.841 175.516 300.12 174.584C276.378 162.677 248.978 159.234 223.084 165.044C215.338 166.765 210.46 174.44 212.182 182.187C212.684 184.482 213.688 186.634 215.194 188.355Z" stroke="#FFE458" stroke-width="2.15183" stroke-miterlimit="10" stroke-linejoin="round"></path>
<path d="M220.645 183.763C222.295 185.772 225.02 186.776 227.674 186.13C248.475 181.468 271.356 184.337 290.436 193.877C293.951 195.67 298.254 194.236 300.048 190.721C301.841 187.206 300.406 182.903 296.892 181.109C274.584 169.92 248.906 166.692 224.59 172.143C220.717 173.004 218.278 176.806 219.139 180.679C219.426 181.827 219.928 182.903 220.645 183.763Z" stroke="#FFE458" stroke-width="2.15183" stroke-miterlimit="10" stroke-linejoin="round"></path>
<path d="M293.664 187.494C273.006 177.093 248.69 174.081 226.168 179.102" stroke="#FFE458" stroke-width="2.15183" stroke-miterlimit="10" stroke-linejoin="round"></path>
<path d="M167.351 323.778C170.291 333.604 179.042 340.49 188.941 340.849C199.843 341.279 209.957 334.967 212.611 323.778C197.548 324.28 182.413 323.347 167.351 323.778Z" fill="white"></path>
<path d="M133.639 446.719V525.261" stroke="#3D3D3D" stroke-width="2.86911" stroke-miterlimit="10"></path>
<path d="M147.696 446.719V525.261" stroke="#3D3D3D" stroke-width="2.86911" stroke-miterlimit="10"></path>
<path d="M161.827 446.719V525.261" stroke="#3D3D3D" stroke-width="2.86911" stroke-miterlimit="10"></path>
<path d="M175.886 446.719V525.261" stroke="#3D3D3D" stroke-width="2.86911" stroke-miterlimit="10"></path>
<path d="M190.016 446.719V525.261" stroke="#3D3D3D" stroke-width="2.86911" stroke-miterlimit="10"></path>
<path d="M204.074 446.719V525.261" stroke="#3D3D3D" stroke-width="2.86911" stroke-miterlimit="10"></path>
<path d="M218.134 446.719V525.261" stroke="#3D3D3D" stroke-width="2.86911" stroke-miterlimit="10"></path>
<path d="M232.264 446.719V525.261" stroke="#3D3D3D" stroke-width="2.86911" stroke-miterlimit="10"></path>
<path d="M246.322 446.719V525.261" stroke="#3D3D3D" stroke-width="2.86911" stroke-miterlimit="10"></path>
<path d="M273.437 402.605C273.079 400.453 270.425 398.803 269.134 397.01C267.412 394.715 266.551 391.774 266.695 388.833C266.91 384.96 268.918 381.374 269.134 377.5C269.134 377.07 269.134 376.568 268.847 376.209C268.632 375.922 268.273 375.779 267.986 375.707C262.319 373.627 256.223 374.775 250.269 374.99C243.598 375.205 237 375.42 230.329 375.635C217.059 375.994 203.718 376.353 190.448 376.496C164.124 376.926 137.872 376.926 111.548 376.568C108.678 377.07 108.176 379.939 108.392 382.88C108.607 385.821 109.97 388.546 110.543 391.415C110.902 393.28 110.974 395.217 110.974 397.154C110.974 399.879 111.046 402.677 111.046 405.402C113.341 405.976 115.564 406.837 117.788 407.769V452.814H262.248V411.571C263.037 411.427 263.826 411.212 264.615 410.997C266.767 410.423 268.99 409.778 270.712 408.415C272.505 407.052 273.724 404.829 273.437 402.605Z" fill="#FF7373"></path>
<path d="M181.983 377.501C181.983 377.501 236.64 378.075 273.436 373.699" stroke="white" stroke-width="2.15183" stroke-miterlimit="10" stroke-linejoin="round"></path>
<path d="M240.512 312.946C240.512 314.883 242.018 316.389 243.955 316.389C245.891 316.389 247.398 314.883 247.398 312.946C247.398 311.01 245.891 309.503 243.955 309.503C242.018 309.503 240.512 311.081 240.512 312.946Z" fill="#303030"></path>
<path d="M249.119 321.554C249.119 323.49 250.697 324.997 252.562 324.997C254.499 324.997 256.005 323.49 256.005 321.554C256.005 319.617 254.499 318.111 252.562 318.111C250.625 318.111 249.119 319.689 249.119 321.554Z" fill="#303030"></path>
<path d="M231.904 321.554C231.904 323.49 233.411 324.997 235.347 324.997C237.284 324.997 238.79 323.49 238.79 321.554C238.79 319.617 237.284 318.111 235.347 318.111C233.411 318.111 231.904 319.689 231.904 321.554Z" fill="#303030"></path>
<path d="M274.941 312.946C274.941 314.883 276.448 316.389 278.384 316.389C280.321 316.389 281.827 314.883 281.827 312.946C281.827 311.01 280.321 309.503 278.384 309.503C276.448 309.503 274.941 311.081 274.941 312.946Z" fill="#303030"></path>
<path d="M266.334 321.554C266.334 323.49 267.84 324.997 269.777 324.997C271.714 324.997 273.22 323.49 273.22 321.554C273.22 319.617 271.714 318.111 269.777 318.111C267.84 318.111 266.334 319.689 266.334 321.554Z" fill="#303030"></path>
<path d="M257.727 312.946C257.727 314.883 259.305 316.389 261.169 316.389C263.106 316.389 264.612 314.883 264.612 312.946C264.612 311.01 263.106 309.503 261.169 309.503C259.233 309.503 257.727 311.081 257.727 312.946Z" fill="#303030"></path>
<path d="M139.447 312.946C139.447 314.883 137.941 316.389 136.004 316.389C134.068 316.389 132.562 314.883 132.562 312.946C132.562 311.009 134.068 309.503 136.004 309.503C137.941 309.503 139.447 311.081 139.447 312.946Z" fill="#303030"></path>
<path d="M130.841 321.553C130.841 323.49 129.263 324.996 127.398 324.996C125.461 324.996 123.955 323.49 123.955 321.553C123.955 319.617 125.461 318.11 127.398 318.11C129.335 318.11 130.841 319.688 130.841 321.553Z" fill="#303030"></path>
<path d="M148.055 321.553C148.055 323.49 146.549 324.996 144.612 324.996C142.675 324.996 141.169 323.49 141.169 321.553C141.169 319.617 142.675 318.11 144.612 318.11C146.549 318.11 148.055 319.688 148.055 321.553Z" fill="#303030"></path>
<path d="M105.019 312.946C105.019 314.883 103.512 316.389 101.576 316.389C99.6391 316.389 98.1328 314.883 98.1328 312.946C98.1328 311.009 99.6391 309.503 101.576 309.503C103.512 309.503 105.019 311.081 105.019 312.946Z" fill="#303030"></path>
<path d="M113.626 321.553C113.626 323.49 112.12 324.996 110.183 324.996C108.247 324.996 106.74 323.49 106.74 321.553C106.74 319.617 108.247 318.11 110.183 318.11C112.12 318.11 113.626 319.688 113.626 321.553Z" fill="#303030"></path>
<path d="M122.234 312.946C122.234 314.883 120.656 316.389 118.791 316.389C116.854 316.389 115.348 314.883 115.348 312.946C115.348 311.009 116.854 309.503 118.791 309.503C120.727 309.503 122.234 311.081 122.234 312.946Z" fill="#303030"></path>
<path d="M167.423 296.091H106.239C103.728 293.58 102.294 292.146 99.7832 289.635V223.933C102.294 221.422 103.728 219.988 106.239 217.477H167.423C169.933 219.988 171.368 221.422 173.878 223.933V289.635C171.368 292.146 169.933 293.58 167.423 296.091Z" fill="white"></path>
<path d="M162.187 256.784C162.187 270.771 150.854 282.104 136.867 282.104C129.335 282.104 122.593 278.876 118.002 273.64C115.707 271.129 113.986 268.117 112.838 264.817C111.977 262.307 111.547 259.581 111.547 256.712C111.547 242.725 122.88 231.392 136.867 231.392C140.023 231.392 143.035 231.966 145.761 233.042C148.989 234.261 151.93 236.126 154.44 238.493C159.174 243.084 162.187 249.611 162.187 256.784Z" fill="#3D3D3D"></path>
<path d="M142.891 238.564C142.891 248.534 134.786 256.64 124.816 256.64C119.436 256.64 114.63 254.344 111.331 250.614C109.681 248.821 108.462 246.669 107.673 244.302C107.099 242.509 106.74 240.573 106.74 238.564C106.74 228.594 114.845 220.489 124.816 220.489C127.039 220.489 129.191 220.919 131.199 221.636C133.495 222.497 135.647 223.86 137.368 225.51C140.739 228.809 142.891 233.471 142.891 238.564Z" fill="white"></path>
<path d="M273.722 296.09H212.539C210.028 293.58 208.593 292.145 206.083 289.635V223.932C208.593 221.422 210.028 219.987 212.539 217.477H273.722C276.233 219.987 277.667 221.422 280.178 223.932V289.635C277.667 292.145 276.233 293.58 273.722 296.09Z" fill="white"></path>
<path d="M268.487 256.784C268.487 270.771 257.154 282.104 243.167 282.104C235.635 282.104 228.893 278.876 224.302 273.64C222.007 271.129 220.285 268.117 219.138 264.817C218.277 262.307 217.847 259.581 217.847 256.712C217.847 242.725 229.18 231.392 243.167 231.392C246.323 231.392 249.335 231.966 252.061 233.042C255.289 234.261 258.229 236.126 260.74 238.493C265.546 243.084 268.487 249.611 268.487 256.784Z" fill="#3D3D3D"></path>
<path d="M249.192 238.564C249.192 248.534 241.087 256.64 231.116 256.64C225.737 256.64 220.931 254.344 217.632 250.614C215.982 248.821 214.762 246.669 213.973 244.302C213.4 242.509 213.041 240.573 213.041 238.564C213.041 228.594 221.146 220.489 231.116 220.489C233.34 220.489 235.492 220.919 237.5 221.636C239.795 222.497 241.947 223.86 243.669 225.51C247.112 228.809 249.192 233.471 249.192 238.564Z" fill="white"></path>
<path d="M704.304 345.869L666.217 338.768C665.069 337.118 664.495 336.185 663.348 334.607L669.301 302.688C670.951 301.541 671.883 300.967 673.461 299.819L711.549 306.92C712.696 308.57 713.27 309.503 714.418 311.081L708.464 342.999C706.815 344.147 705.882 344.793 704.304 345.869Z" fill="#FF7373" stroke="#3D3D3D" stroke-width="2.86911" stroke-miterlimit="10" stroke-linejoin="round"></path>
<path d="M694.336 419.748L656.248 412.647C655.1 410.998 654.527 410.065 653.379 408.487L659.332 376.568C660.982 375.421 661.915 374.847 663.493 373.699L701.58 380.8C702.728 382.45 703.301 383.382 704.449 384.96L698.496 416.879C696.846 418.027 695.985 418.673 694.336 419.748Z" stroke="#3D3D3D" stroke-width="2.86911" stroke-miterlimit="10" stroke-linejoin="round"></path>
<path d="M684.365 493.701L646.277 486.6C645.13 484.95 644.556 484.017 643.408 482.439L649.362 450.52C651.011 449.373 651.944 448.799 653.522 447.651L691.609 454.752C692.757 456.402 693.331 457.335 694.478 458.913L688.525 490.832C686.875 491.907 686.014 492.553 684.365 493.701Z" fill="#FF7373" stroke="#3D3D3D" stroke-width="2.86911" stroke-miterlimit="10" stroke-linejoin="round"></path>
<path d="M682.429 322.127L688.884 332.241L731.993 310.148" stroke="#3D3D3D" stroke-width="2.86911" stroke-miterlimit="10" stroke-linejoin="round"></path>
<path d="M661.412 459.414L676.547 481.864" stroke="#3D3D3D" stroke-width="2.86911" stroke-miterlimit="10" stroke-linejoin="round"></path>
<path d="M680.564 463.646L657.324 477.633" stroke="#3D3D3D" stroke-width="2.86911" stroke-miterlimit="10" stroke-linejoin="round"></path>
<path d="M672.816 121.863C683.037 121.863 691.322 113.578 691.322 103.357C691.322 93.1369 683.037 84.8516 672.816 84.8516C662.596 84.8516 654.311 93.1369 654.311 103.357C654.311 113.578 662.596 121.863 672.816 121.863Z" fill="white"></path>
<path d="M561.638 103.142H412.301V110.817H561.638V103.142Z" fill="white"></path>
<path d="M367.542 435.17C367.542 435.17 380.095 442.2 381.242 443.849L378.23 448.368L366.036 438.04L367.542 435.17Z" fill="#2249B3"></path>
<path d="M164.77 179.46C163.478 184.696 159.462 188.713 154.226 189.932C135.074 194.595 117.286 206.286 105.379 221.995C103.084 225.079 99.7125 227.016 95.9109 227.518C92.1093 228.02 88.3077 227.087 85.2952 224.72C80.7046 221.277 78.6245 215.396 79.9873 209.801C80.4894 207.936 81.2784 206.143 82.4978 204.637C98.4931 183.405 121.589 168.271 147.411 162.03C155.086 160.165 162.905 164.899 164.77 172.574C165.343 174.798 165.343 177.165 164.77 179.46Z" stroke="#FFE458" stroke-width="2.15183" stroke-miterlimit="10" stroke-linejoin="round"></path>
<path d="M157.812 177.667C157.167 180.178 155.23 182.258 152.576 182.903C131.847 187.924 112.624 200.62 99.7127 217.62C97.3457 220.776 92.8269 221.421 89.6709 218.982C86.5148 216.615 85.8693 212.097 88.308 208.941C103.371 189.072 124.961 174.87 149.205 168.916C153.078 167.984 156.952 170.351 157.884 174.224C158.099 175.444 158.099 176.591 157.812 177.667Z" stroke="#FFE458" stroke-width="2.15183" stroke-miterlimit="10" stroke-linejoin="round"></path>
<path d="M93.9746 213.317C107.89 194.883 128.332 181.47 150.855 175.947" stroke="#FFE458" stroke-width="2.15183" stroke-miterlimit="10" stroke-linejoin="round"></path>
<path d="M157.381 495.493H188.224C190.735 498.004 192.169 499.438 194.68 501.949V536.378H120.083V517.729L157.381 495.493Z" fill="#FF7373"></path>
<path d="M231.978 495.493H262.821C265.332 498.004 266.766 499.438 269.277 501.949V529.923C266.766 532.433 265.332 533.868 262.821 536.378H194.68V517.729L231.978 495.493Z" fill="#FF7373"></path>
</svg>
