<svg width="600" height="450" viewBox="0 0 800 600" fill="none" xmlns="http://www.w3.org/2000/svg" data-reactroot="">
<path d="M76.0477 497.808C62.3096 493.826 61.0335 459.17 60.818 453.314C59.6258 420.936 72.2952 394.228 79.9148 380.963C95.0686 354.58 105.875 354.165 114.818 333.316C116.998 328.233 118.571 323.094 119.654 317.984C121.487 309.337 132.796 309.061 134.791 317.594C138.465 333.313 140.164 346.913 140.992 357.427C142.555 377.246 143.972 397.713 136.331 422.789C128.397 448.829 115.247 464.901 107.677 473.96C96.3071 487.565 85.4659 500.537 76.0477 497.808Z" fill="#2249B3"></path>
<path d="M70.4589 485.01C54.2594 479.843 36.5139 464.598 38.1339 450.643C39.6516 437.569 57.1296 434.535 56.2724 423.656C55.4615 413.365 39.5555 412.699 37.2491 401.315C34.4842 387.668 55.6719 380.379 54.4633 363.998C53.4498 350.263 37.8121 347.169 39.4475 335.768C40.9446 325.333 54.593 323.964 56.7148 310.401C57.8387 303.217 54.6877 299.263 57.8208 295.802C61.4134 291.834 70.391 291.691 75.0744 295.802C79.9941 300.12 77.1614 305.289 81.9316 313.498C87.3284 322.786 93.9267 320.758 97.1945 327.655C102.517 338.889 87.0959 348.67 91.0009 361.278C94.8814 373.807 112.524 371.943 115.333 383.176C118.708 396.674 95.6231 408.924 99.8592 418.999C102.961 426.377 116.221 421.905 124.402 432.283C129.843 439.186 131.298 450.451 127.278 458.163C123.34 465.716 118.477 465.035 106.409 477.155C100.447 483.142 100.766 487.814 96.7067 489.92C87.5294 494.684 75.2337 486.533 70.4589 485.01Z" fill="#FF7373"></path>
<path d="M325.733 424.415H305.308L298.123 405.951H332.918L325.733 424.415Z" fill="#2249B3"></path>
<path d="M304.232 421.649L295.876 400.312H289.177C288.148 399.908 288.058 398.39 288.961 398.39H297.387L306.023 420.659L304.232 421.649Z" fill="#2249B3"></path>
<path d="M307.925 431.671C309.26 431.671 310.341 430.589 310.341 429.254C310.341 427.92 309.26 426.838 307.925 426.838C306.591 426.838 305.509 427.92 305.509 429.254C305.509 430.589 306.591 431.671 307.925 431.671Z" fill="#2249B3"></path>
<path d="M323.116 431.671C324.45 431.671 325.532 430.589 325.532 429.254C325.532 427.92 324.45 426.838 323.116 426.838C321.781 426.838 320.699 427.92 320.699 429.254C320.699 430.589 321.781 431.671 323.116 431.671Z" fill="#2249B3"></path>
<path d="M139.985 239.847V239.847C139.985 230.84 147.287 215.895 156.294 215.895H176.305C185.312 215.895 192.614 230.84 192.614 239.847V239.847C192.614 248.854 139.985 248.854 139.985 239.847Z" fill="#2249B3"></path>
<path d="M166.3 212.044C173.844 212.044 179.96 205.929 179.96 198.384C179.96 190.84 173.844 184.724 166.3 184.724C158.755 184.724 152.639 190.84 152.639 198.384C152.639 205.929 158.755 212.044 166.3 212.044Z" fill="#2249B3"></path>
<path d="M293.305 280.049H195.696C193.147 280.049 191.08 277.983 191.08 275.434V274.047C191.08 271.498 193.147 269.432 195.696 269.432H293.305C295.854 269.432 297.92 271.498 297.92 274.047V275.434C297.92 277.983 295.854 280.049 293.305 280.049Z" fill="#2249B3"></path>
<path d="M293.305 299.969H195.696C193.147 299.969 191.08 297.903 191.08 295.354V293.967C191.08 291.418 193.147 289.352 195.696 289.352H293.305C295.854 289.352 297.92 291.418 297.92 293.967V295.354C297.92 297.903 295.854 299.969 293.305 299.969Z" fill="#2249B3"></path>
<path d="M293.305 320.299H195.696C193.147 320.299 191.08 318.232 191.08 315.683V314.297C191.08 311.748 193.147 309.681 195.696 309.681H293.305C295.854 309.681 297.92 311.748 297.92 314.297V315.683C297.92 318.232 295.854 320.299 293.305 320.299Z" fill="#2249B3"></path>
<path d="M175.652 280.049H173.329C170.855 280.049 168.85 278.044 168.85 275.57V273.247C168.85 270.774 170.855 268.768 173.329 268.768H175.652C178.125 268.768 180.131 270.774 180.131 273.247V275.57C180.131 278.044 178.125 280.049 175.652 280.049Z" fill="#B0C1E1"></path>
<path d="M175.652 300.301H173.329C170.855 300.301 168.85 298.295 168.85 295.821V293.499C168.85 291.025 170.855 289.02 173.329 289.02H175.652C178.125 289.02 180.131 291.025 180.131 293.499V295.821C180.131 298.295 178.125 300.301 175.652 300.301Z" fill="#B0C1E1"></path>
<path d="M175.652 320.552H173.329C170.855 320.552 168.85 318.547 168.85 316.073V313.75C168.85 311.276 170.855 309.271 173.329 309.271H175.652C178.125 309.271 180.131 311.276 180.131 313.75V316.073C180.131 318.547 178.125 320.552 175.652 320.552Z" fill="#B0C1E1"></path>
<path d="M325.277 365.986H161.217C158.011 365.986 155.412 363.387 155.412 360.181V338.179C155.412 334.973 158.011 332.374 161.217 332.374H325.277C328.484 332.374 331.083 334.973 331.083 338.179V360.181C331.083 363.387 328.484 365.986 325.277 365.986Z" fill="#B0C1E1"></path>
<path d="M370.126 518.472H225.119C222.099 518.472 219.65 516.023 219.65 513.003V490.33C219.65 487.309 222.099 484.86 225.119 484.86H370.126C373.147 484.86 375.596 487.309 375.596 490.33V513.003C375.596 516.023 373.147 518.472 370.126 518.472Z" fill="#2249B3"></path>
<path fill-rule="evenodd" clip-rule="evenodd" d="M128.048 385.467H125.882V384.601H128.048V385.467Z" fill="#FF7373"></path>
<path fill-rule="evenodd" clip-rule="evenodd" d="M136.119 385.467H134.018V384.601H136.119V385.467ZM144.524 385.467H140.322V384.601H144.524V385.467ZM152.929 385.467H148.727V384.601H152.929V385.467ZM161.334 385.467H157.132V384.601H161.334V385.467ZM169.739 385.467H165.537V384.601H169.739V385.467ZM178.144 385.467H173.942V384.601H178.144V385.467ZM186.549 385.467H182.347V384.601H186.549V385.467ZM194.954 385.467H190.752V384.601H194.954V385.467ZM203.359 385.467H199.157V384.601H203.359V385.467ZM211.764 385.467H207.562V384.601H211.764V385.467ZM220.169 385.467H215.967V384.601H220.169V385.467ZM228.574 385.467H224.371V384.601H228.574V385.467ZM236.979 385.467H232.776V384.601H236.979V385.467ZM245.384 385.467H241.181V384.601H245.384V385.467ZM253.789 385.467H249.586V384.601H253.789V385.467ZM262.194 385.467H257.991V384.601H262.194V385.467ZM270.599 385.467H266.396V384.601H270.599V385.467ZM279.004 385.467H274.801V384.601H279.004V385.467ZM287.409 385.467H283.206V384.601H287.409V385.467ZM295.814 385.467H291.611V384.601H295.814V385.467ZM304.219 385.467H300.016V384.601H304.219V385.467ZM312.624 385.467H308.421V384.601H312.624V385.467ZM321.029 385.467H316.826V384.601H321.029V385.467ZM329.434 385.467H325.231V384.601H329.434V385.467ZM335.737 385.467H333.636V384.601H335.737V385.467Z" fill="#FF7373"></path>
<path fill-rule="evenodd" clip-rule="evenodd" d="M340.889 385.467H338.723V384.601H340.889V385.467Z" fill="#FF7373"></path>
<path d="M358.785 378.996C362.017 378.996 364.638 376.375 364.638 373.143C364.638 369.91 362.017 367.29 358.785 367.29C355.552 367.29 352.931 369.91 352.931 373.143C352.931 376.375 355.552 378.996 358.785 378.996Z" fill="#2249B3"></path>
<path d="M136.69 108.076C140.621 108.076 143.808 104.889 143.808 100.958C143.808 97.0268 140.621 93.8398 136.69 93.8398C132.759 93.8398 129.572 97.0268 129.572 100.958C129.572 104.889 132.759 108.076 136.69 108.076Z" stroke="#242424" stroke-miterlimit="10"></path>
<path d="M291.36 202.377C293.565 202.377 295.353 200.589 295.353 198.384C295.353 196.179 293.565 194.392 291.36 194.392C289.155 194.392 287.368 196.179 287.368 198.384C287.368 200.589 289.155 202.377 291.36 202.377Z" stroke="#242424" stroke-miterlimit="10"></path>
<path d="M382.797 80.6035C382.797 80.6035 382.333 91.9264 378.475 93.8397L400.704 93.8397L382.797 80.6035Z" fill="#B0C1E1"></path>
<path d="M399.1 93.8389L445.43 93.8389C456.431 93.8389 465.349 84.9204 465.349 73.919V73.9189C465.349 62.9175 456.431 53.999 445.43 53.999L402.365 53.999C391.363 53.999 382.445 62.9175 382.445 73.9189V77.1838C382.445 86.3821 389.902 93.8389 399.1 93.8389Z" fill="#B0C1E1"></path>
<path d="M403.164 88.6062C404.787 88.6062 406.103 87.2906 406.103 85.6676C406.103 84.0447 404.787 82.729 403.164 82.729C401.541 82.729 400.226 84.0447 400.226 85.6676C400.226 87.2906 401.541 88.6062 403.164 88.6062Z" fill="#FF7373"></path>
<path d="M394.313 88.6053C395.936 88.6053 397.252 87.2896 397.252 85.6666C397.252 84.0437 395.936 82.728 394.313 82.728C392.69 82.728 391.374 84.0437 391.374 85.6666C391.374 87.2896 392.69 88.6053 394.313 88.6053Z" fill="#2249B3"></path>
<path fill-rule="evenodd" clip-rule="evenodd" d="M163.746 347.682C166.435 366.316 162.398 377.929 157.652 385.322L157.157 385.005L157.652 385.322C150.467 396.518 139.744 401.013 129.612 405.186L129.337 405.299C119.259 409.45 109.86 413.32 104.579 423.001L103.547 422.437C109.028 412.389 118.777 408.375 128.734 404.276C128.878 404.217 129.021 404.158 129.164 404.099C139.321 399.915 149.7 395.534 156.663 384.687C161.245 377.546 165.233 366.222 162.582 347.85L163.746 347.682Z" fill="#FF7373"></path>
<path fill-rule="evenodd" clip-rule="evenodd" d="M104.502 422.958C104.17 423.566 103.855 424.197 103.556 424.853C100.836 430.826 101.209 435.142 101.644 440.098L101.646 440.115C102.083 445.098 102.574 450.683 99.9746 459.031C94.4776 476.683 80.9701 488.068 70.9439 494.736L70.3901 493.903C80.3471 487.281 93.6246 476.059 99.0198 458.733C101.56 450.574 101.084 445.146 100.649 440.2L100.648 440.185C100.21 435.204 99.8119 430.663 102.646 424.439L103.101 424.646L102.646 424.439C102.954 423.761 103.281 423.109 103.624 422.479L104.502 422.958Z" fill="#2249B3"></path>
<path d="M65.6226 483.405H101.122C103.109 483.405 104.832 484.787 105.267 486.725C109.106 503.826 112.11 537.812 112.11 537.812C112.11 541.987 108.725 545.373 104.549 545.373H62.1955C58.0197 545.373 54.6345 541.987 54.6345 537.812C54.6345 537.812 57.6384 503.826 61.4774 486.725C61.9125 484.787 63.6364 483.405 65.6226 483.405Z" fill="#2249B3"></path>
<path fill-rule="evenodd" clip-rule="evenodd" d="M192.012 545.873H37.645V544.873H192.012V545.873Z" fill="#B0C1E1"></path>
<path d="M255.295 495.71L257.23 499.632L261.557 500.26L258.426 503.312L259.165 507.622L255.295 505.587L251.424 507.622L252.164 503.312L249.032 500.26L253.36 499.632L255.295 495.71Z" fill="#FF7373"></path>
<path d="M276.459 495.71L278.394 499.632L282.721 500.26L279.59 503.312L280.329 507.622L276.459 505.587L272.589 507.622L273.328 503.312L270.197 500.26L274.524 499.632L276.459 495.71Z" fill="#FF7373"></path>
<path d="M297.623 495.71L299.558 499.632L303.885 500.26L300.754 503.312L301.493 507.622L297.623 505.587L293.752 507.622L294.492 503.312L291.36 500.26L295.688 499.632L297.623 495.71Z" fill="#FF7373"></path>
<path d="M318.787 495.71L320.722 499.632L325.049 500.26L321.918 503.312L322.657 507.622L318.787 505.587L314.916 507.622L315.656 503.312L312.524 500.26L316.852 499.632L318.787 495.71Z" fill="#FF7373"></path>
<path d="M339.951 495.71L341.886 499.632L346.213 500.26L343.082 503.312L343.821 507.622L339.951 505.587L336.08 507.622L336.82 503.312L333.688 500.26L338.016 499.632L339.951 495.71Z" fill="#FF7373"></path>
<path fill-rule="evenodd" clip-rule="evenodd" d="M220.666 481.474H178.749V480.297H220.666V481.474Z" fill="#B0C1E1"></path>
<path fill-rule="evenodd" clip-rule="evenodd" d="M237.796 489.422H178.749V488.246H237.796V489.422Z" fill="#B0C1E1"></path>
<path d="M357.701 135.9C370.057 135.9 380.074 125.883 380.074 113.527C380.074 101.171 370.057 91.1543 357.701 91.1543C345.345 91.1543 335.328 101.171 335.328 113.527C335.328 125.883 345.345 135.9 357.701 135.9Z" fill="#2249B3"></path>
<path d="M349.626 109.944C350.837 109.944 351.819 108.962 351.819 107.751C351.819 106.54 350.837 105.559 349.626 105.559C348.415 105.559 347.433 106.54 347.433 107.751C347.433 108.962 348.415 109.944 349.626 109.944Z" fill="#FF7373"></path>
<path d="M366.201 109.702C367.412 109.702 368.394 108.721 368.394 107.51C368.394 106.299 367.412 105.317 366.201 105.317C364.99 105.317 364.009 106.299 364.009 107.51C364.009 108.721 364.99 109.702 366.201 109.702Z" fill="#FF7373"></path>
<path d="M346.681 119.307C346.903 119.665 350.64 125.464 357.403 125.454C364.775 125.443 368.479 118.542 368.721 118.074" stroke="#FFE458" stroke-width="1.24934" stroke-miterlimit="10" stroke-linecap="round"></path>
<path d="M264.388 76.3008H224.914V81.1162H264.388V76.3008Z" fill="#FF7373"></path>
<path d="M251.904 86.3398H224.914V91.1552H251.904V86.3398Z" fill="#FF7373"></path>
<path d="M257.655 96.3784H224.914V101.194H257.655V96.3784Z" fill="#FF7373"></path>
<path d="M423.955 145.243H430.116V233.385H423.955C419.551 233.385 415.981 229.815 415.981 225.411V153.217C415.981 148.813 419.551 145.243 423.955 145.243Z" fill="#2249B3"></path>
<path d="M423.048 300.301H368.989V306.926H423.048V300.301Z" fill="#B0C1E1"></path>
<path d="M423.048 313.673H396.281V320.299H423.048V313.673Z" fill="#B0C1E1"></path>
<path d="M709.898 471.93H385.595C369.912 471.93 357.199 459.217 357.199 443.535V443.534C357.199 427.852 369.912 415.139 385.595 415.139H709.898C725.58 415.139 738.293 427.852 738.293 443.534V443.535C738.293 459.217 725.58 471.93 709.898 471.93Z" fill="#2249B3"></path>
<path d="M662.113 226.079C707.774 226.079 744.789 189.064 744.789 143.403C744.789 97.7416 707.774 60.7261 662.113 60.7261C616.452 60.7261 579.436 97.7416 579.436 143.403C579.436 189.064 616.452 226.079 662.113 226.079Z" fill="#B0C1E1"></path>
<path d="M423.513 253.365V237.854" stroke="#242424" stroke-width="0.866369" stroke-miterlimit="10"></path>
<path d="M423.513 176.197V129.001C423.513 122.408 428.858 117.062 435.452 117.062H671.231C677.825 117.062 683.17 122.408 683.17 129.001V513.465C683.17 520.058 677.825 525.403 671.231 525.403H435.452C428.858 525.403 423.513 520.058 423.513 513.465V285.176" stroke="#242424" stroke-miterlimit="10"></path>
<path d="M632.938 130.432H473.745C470.488 130.432 467.848 127.791 467.848 124.535V109.59C467.848 106.333 470.488 103.693 473.745 103.693H632.938C636.194 103.693 638.834 106.333 638.834 109.59V124.535C638.834 127.791 636.194 130.432 632.938 130.432Z" fill="#2249B3"></path>
<path d="M472.693 157.464H446.559C444.726 157.464 443.241 155.979 443.241 154.146V154.146C443.241 152.314 444.726 150.828 446.559 150.828H472.693C474.526 150.828 476.012 152.314 476.012 154.146V154.146C476.012 155.979 474.526 157.464 472.693 157.464Z" fill="#2249B3"></path>
<path d="M514.279 157.464H488.144C486.312 157.464 484.826 155.979 484.826 154.146V154.146C484.826 152.314 486.312 150.828 488.144 150.828H514.279C516.112 150.828 517.597 152.314 517.597 154.146V154.146C517.597 155.979 516.112 157.464 514.279 157.464Z" fill="#2249B3"></path>
<path d="M555.865 157.464H529.73C527.898 157.464 526.412 155.979 526.412 154.146V154.146C526.412 152.314 527.898 150.828 529.73 150.828H555.865C557.697 150.828 559.183 152.314 559.183 154.146V154.146C559.183 155.979 557.697 157.464 555.865 157.464Z" fill="#2249B3"></path>
<path d="M660.124 157.464H633.989C632.156 157.464 630.671 155.979 630.671 154.146V154.146C630.671 152.314 632.156 150.828 633.989 150.828H660.124C661.956 150.828 663.442 152.314 663.442 154.146V154.146C663.442 155.979 661.956 157.464 660.124 157.464Z" fill="#2249B3"></path>
<path d="M484.38 290.087C482.695 288.402 479.964 288.402 478.28 290.087L477.676 290.691L477.071 290.087C475.387 288.402 472.656 288.402 470.971 290.087C469.287 291.771 469.287 294.502 470.971 296.187L471.576 296.791L477.676 302.891L484.38 296.187C486.064 294.502 486.064 291.771 484.38 290.087Z" fill="#2249B3"></path>
<path d="M502.81 289.069H494.461C492.366 289.069 490.668 290.768 490.668 292.863V296.281C490.668 298.376 492.366 300.074 494.461 300.074H499.957L504.004 302.891V299.864C505.51 299.361 506.603 297.956 506.603 296.281V292.863C506.603 290.768 504.905 289.069 502.81 289.069Z" stroke="#005B9D" stroke-miterlimit="10"></path>
<path d="M605.113 305.891C601.708 305.891 598.939 303.121 598.939 299.717V291.997C598.939 288.593 601.708 285.823 605.113 285.823H635.66C639.065 285.823 641.834 288.593 641.834 291.997V299.717C641.834 303.121 639.065 305.891 635.66 305.891H605.113Z" fill="#2249B3"></path>
<path d="M635.66 302.891H605.113C603.36 302.891 601.939 301.47 601.939 299.717V291.997C601.939 290.244 603.36 288.823 605.113 288.823H635.66C637.413 288.823 638.834 290.244 638.834 291.997V299.717C638.834 301.47 637.413 302.891 635.66 302.891Z" fill="#B0C1E1"></path>
<path d="M629.977 277.843H478.565C473.674 277.843 469.708 273.878 469.708 268.986V186.718C469.708 181.826 473.674 177.861 478.565 177.861H629.977C634.869 177.861 638.834 181.826 638.834 186.718V268.986C638.834 273.878 634.869 277.843 629.977 277.843Z" fill="#2249B3"></path>
<path d="M629.977 450.846H478.565C473.674 450.846 469.708 446.881 469.708 441.989V359.721C469.708 354.829 473.674 350.864 478.565 350.864H629.977C634.869 350.864 638.834 354.829 638.834 359.721V441.989C638.834 446.881 634.869 450.846 629.977 450.846Z" fill="#B0C1E1"></path>
<path d="M484.38 463.09C482.695 461.405 479.964 461.405 478.28 463.09L477.676 463.694L477.071 463.09C475.387 461.405 472.656 461.405 470.971 463.09C469.287 464.774 469.287 467.505 470.971 469.19L471.576 469.794L477.676 475.894L484.38 469.19C486.064 467.505 486.064 464.774 484.38 463.09Z" fill="#B0C1E1"></path>
<path d="M502.81 462.072H494.461C492.366 462.072 490.668 463.771 490.668 465.866V469.284C490.668 471.379 492.366 473.077 494.461 473.077H499.957L504.004 475.894V472.867C505.51 472.364 506.603 470.959 506.603 469.284V465.866C506.603 463.771 504.905 462.072 502.81 462.072Z" fill="#B0C1E1"></path>
<path d="M635.66 475.894H605.113C603.36 475.894 601.939 474.473 601.939 472.72V465C601.939 463.247 603.36 461.826 605.113 461.826H635.66C637.413 461.826 638.834 463.247 638.834 465V472.72C638.834 474.473 637.413 475.894 635.66 475.894Z" fill="#B0C1E1"></path>
<path d="M459.155 326.877H649.387" stroke="#242424" stroke-width="0.866369" stroke-miterlimit="10" stroke-linecap="round"></path>
<path d="M733.284 241.416L741.12 244.412L748.957 247.408L742.444 252.696L735.931 257.985L734.607 249.7L733.284 241.416Z" fill="#2249B3"></path>
<path d="M564.059 203.032V203.032C564.059 197.216 559.345 192.501 553.529 192.501H519.511C513.695 192.501 508.98 197.216 508.98 203.032V253.882C508.98 259.698 513.695 264.412 519.511 264.412H552.654H564.059H589.032C594.847 264.412 599.562 259.698 599.562 253.882V224.093C599.562 218.277 594.847 213.563 589.032 213.563H574.59C568.774 213.563 564.059 208.848 564.059 203.032Z" fill="#FF7373"></path>
<path d="M564.059 375.28C564.059 369.464 559.345 364.75 553.529 364.75H519.511C513.695 364.75 508.98 369.464 508.98 375.28V426.13C508.98 431.946 513.695 436.66 519.511 436.66H552.654H564.059H589.032C594.847 436.66 599.562 431.946 599.562 426.13V396.341C599.562 390.525 594.847 385.811 589.032 385.811H574.59C568.774 385.811 564.059 381.096 564.059 375.28Z" fill="#FF7373"></path>
<path d="M622.414 296.023C591.07 354.517 541.383 386.537 502.523 376.983C474.182 370.014 458.321 342.739 445.233 320.245C414.463 267.364 408.307 196.557 426.579 187.878C430.569 185.983 436.187 186.83 438.375 189.847C447.64 202.618 402.485 265.18 376.816 258.198C353.01 251.723 365.397 194.479 333.747 173.921C302.758 153.792 249.117 175.552 197.941 206.644" stroke="#005B9D" stroke-miterlimit="10" stroke-dasharray="4.33 4.33"></path>
<path d="M657.715 113.602H674.071C681.22 113.602 687.015 119.397 687.015 126.546V145.243" stroke="#242424" stroke-miterlimit="10"></path>
<path d="M688.701 502.22V518.576C688.701 525.725 682.906 531.52 675.757 531.52H657.06" stroke="#242424" stroke-miterlimit="10"></path>
<path d="M687.015 151.239V175.377V184.667" stroke="#242424" stroke-miterlimit="10"></path>
<path d="M687.015 193.958V249.7" stroke="#242424" stroke-miterlimit="10"></path>
<path opacity="0.3" d="M423.513 415.139H419.508V471.93H423.513V415.139Z" fill="#242424"></path>
<path d="M439.729 531.52H597.842" stroke="#242424" stroke-miterlimit="10"></path>
<path d="M149.271 160.593C150.035 160.593 150.654 159.974 150.654 159.211C150.654 158.447 150.035 157.828 149.271 157.828C148.508 157.828 147.889 158.447 147.889 159.211C147.889 159.974 148.508 160.593 149.271 160.593Z" fill="#242424"></path>
<path d="M86.486 98.9525C87.2496 98.9525 87.8685 98.3335 87.8685 97.57C87.8685 96.8065 87.2496 96.1875 86.486 96.1875C85.7225 96.1875 85.1035 96.8065 85.1035 97.57C85.1035 98.3335 85.7225 98.9525 86.486 98.9525Z" fill="#242424"></path>
<path d="M194.418 112.193C195.182 112.193 195.801 111.574 195.801 110.81C195.801 110.047 195.182 109.428 194.418 109.428C193.655 109.428 193.036 110.047 193.036 110.81C193.036 111.574 193.655 112.193 194.418 112.193Z" fill="#242424"></path>
<path d="M76.1196 179.244C76.8831 179.244 77.5021 178.625 77.5021 177.861C77.5021 177.097 76.8831 176.479 76.1196 176.479C75.356 176.479 74.7371 177.097 74.7371 177.861C74.7371 178.625 75.356 179.244 76.1196 179.244Z" fill="#242424"></path>
<path d="M103.568 259.368C104.331 259.368 104.95 258.749 104.95 257.985C104.95 257.222 104.331 256.603 103.568 256.603C102.804 256.603 102.185 257.222 102.185 257.985C102.185 258.749 102.804 259.368 103.568 259.368Z" fill="#242424"></path>
<path d="M164.02 61.3495C164.783 61.3495 165.402 60.7305 165.402 59.967C165.402 59.2034 164.783 58.5845 164.02 58.5845C163.256 58.5845 162.637 59.2034 162.637 59.967C162.637 60.7305 163.256 61.3495 164.02 61.3495Z" fill="#242424"></path>
<path d="M277.94 229.881H312.766" stroke="#005B9D" stroke-miterlimit="10"></path>
<path d="M277.94 235.904H312.766" stroke="#005B9D" stroke-miterlimit="10"></path>
<path d="M277.94 241.927H312.766" stroke="#005B9D" stroke-miterlimit="10"></path>
<path fill-rule="evenodd" clip-rule="evenodd" d="M194.781 420.313L201.998 427.53L209.183 420.344L216.068 427.229L222.704 420.593L230.227 428.116C230.396 428.285 230.396 428.559 230.227 428.728C230.058 428.897 229.784 428.897 229.615 428.728L222.704 421.818L216.068 428.454L209.183 421.569L201.998 428.755L194.781 421.538L187.46 428.859L180.243 421.643L173.293 428.593C173.124 428.762 172.849 428.762 172.68 428.593C172.511 428.424 172.511 428.15 172.68 427.98L180.243 420.417L187.46 427.634L194.781 420.313Z" fill="#B0C1E1"></path>
<path fill-rule="evenodd" clip-rule="evenodd" d="M209.785 428.901L217.002 436.118L224.188 428.932L231.073 435.817L237.709 429.181L245.232 436.703C245.401 436.873 245.401 437.147 245.232 437.316C245.063 437.485 244.788 437.485 244.619 437.316L237.709 430.406L231.073 437.042L224.188 430.157L217.002 437.343L209.785 430.126L202.464 437.447L195.248 430.23L188.297 437.181C188.128 437.35 187.854 437.35 187.684 437.181C187.515 437.012 187.515 436.738 187.684 436.568L195.248 429.005L202.464 436.222L209.785 428.901Z" fill="#B0C1E1"></path>
<path d="M573.428 509.663H533.255C529.965 509.663 527.299 506.996 527.299 503.707C527.299 500.417 529.965 497.751 533.255 497.751H573.428C576.717 497.751 579.384 500.417 579.384 503.707C579.384 506.996 576.717 509.663 573.428 509.663Z" fill="#2249B3"></path>
<path d="M91.3887 484.409C79.8325 474.66 65.8281 451.646 67.0632 436.359C68.2673 421.455 81.2372 417.488 85.983 400.321C91.2878 381.132 79.1123 371.513 73.3698 346.265C64.9816 309.383 83.4273 296.784 81.4783 260.675C80.4833 242.24 74.0272 214.982 46.3416 182.293" stroke="#005B9D" stroke-miterlimit="10"></path>
<path d="M743.977 380.567L735.892 362.34H735.892L717.39 320.627C714.693 314.546 707.578 311.804 701.498 314.501H701.498C697.772 316.153 695.307 319.468 694.572 323.184C691.323 321.234 687.213 320.837 683.487 322.49C679.76 324.143 677.296 327.457 676.561 331.173C673.312 329.224 669.201 328.826 665.475 330.479C659.395 333.175 656.653 340.29 659.349 346.37L637.35 296.772C634.653 290.692 627.538 287.95 621.458 290.647H621.458C615.377 293.344 612.635 300.459 615.332 306.539L649.877 384.421C650.435 385.679 649.868 387.151 648.61 387.709C647.697 388.114 646.63 387.934 645.899 387.252L626.135 368.784C621.688 363.837 614.073 363.432 609.127 367.879H609.127C604.18 372.325 603.775 379.94 608.222 384.887L649.874 423.807C655.466 429.031 663.63 430.429 670.641 427.36L737.161 398.249C743.926 395.248 746.978 387.332 743.977 380.567Z" fill="#FF7373"></path>
<path d="M761.464 419.997L757.654 411.397C755.624 406.836 750.294 404.776 745.734 406.796L679.144 436.857C674.584 438.877 672.524 444.217 674.544 448.777L678.364 457.377C680.384 461.937 685.724 463.997 690.284 461.977L756.874 431.917C761.434 429.887 763.484 424.557 761.464 419.997ZM748.074 426.196C745.574 427.307 742.654 426.177 741.544 423.687C740.434 421.187 741.564 418.267 744.064 417.156C746.564 416.046 749.484 417.177 750.594 419.667C751.704 422.167 750.574 425.097 748.074 426.196Z" fill="#FF7373"></path>
</svg>
