<?xml version="1.0" encoding="UTF-8" standalone="no"?>
<!DOCTYPE svg PUBLIC "-//W3C//DTD SVG 1.1//EN" "http://www.w3.org/Graphics/SVG/1.1/DTD/svg11.dtd">
<svg width="100%" height="100%" viewBox="0 0 300 400" version="1.1" xmlns="http://www.w3.org/2000/svg" xmlns:xlink="http://www.w3.org/1999/xlink" xml:space="preserve" xmlns:serif="http://www.serif.com/" style="fill-rule:evenodd;clip-rule:evenodd;stroke-linejoin:round;stroke-miterlimit:2;">
    <g id="left" transform="matrix(-1,0,0,1,496.31,-13.5237)">
        <g transform="matrix(1,0,0,1,-17,0)">
            <path d="M410.584,46.658C410.584,46.658 442.776,105.54 456.563,175.919C460.06,193.77 462.339,212.363 462.617,230.901C462.804,243.344 462.041,255.762 460.2,267.922C454.3,304.885 439.953,327.402 421.21,340.724C407.321,350.596 390.983,355.433 373.767,357.261C349.304,359.859 323.061,356.373 299.785,353.264C298.607,353.122 297.765,352.05 297.907,350.871C298.049,349.692 299.121,348.851 300.3,348.993C332.186,352.434 369.729,356.546 399.902,344.321C425.398,333.992 445.361,311.667 451.859,266.652C454.111,252.023 454.637,237.004 454.031,222.025C453.105,199.156 449.423,176.38 444.487,155.204C430.592,95.592 406.779,48.665 406.779,48.665C406.225,47.615 406.628,46.313 407.678,45.759C408.728,45.205 410.03,45.608 410.584,46.658Z" style="fill:rgb(183,71,52);"/>
        </g>
        <path d="M256.463,353.222L301.229,319.78C302.21,319.125 302.475,317.797 301.82,316.816C301.165,315.835 299.837,315.571 298.856,316.225C298.856,316.225 282.915,325.578 269,334.49C260.428,339.981 252.691,345.376 249.529,347.847C247.278,349.7 246.727,351.747 247.006,353.68C247.247,355.353 248.352,357.392 250.859,359.15C254.591,361.768 262.356,364.683 271.018,367.873C280.886,371.506 291.971,375.532 298.614,380.975C299.491,381.764 300.843,381.692 301.632,380.815C302.42,379.937 302.348,378.585 301.471,377.797C296.579,372.962 289.02,368.593 281.211,364.774C273.032,360.774 264.635,357.387 259.182,354.476C258.37,354.043 257.312,353.623 256.463,353.222ZM255.399,352.633C255.007,352.349 254.857,352.077 255.137,351.818C255.412,351.564 255.411,352.205 255.399,352.633Z" style="fill:rgb(183,72,51);"/>
    </g>
</svg>
