<svg width="600" height="450" viewBox="0 0 800 600" fill="none" xmlns="http://www.w3.org/2000/svg" data-reactroot="">
<g clip-path="url(#clip0)">
<path d="M0 421.049C0 419.944 0.89543 419.049 2 419.049H412.172C417.695 419.049 422.172 423.526 422.172 429.049V468.261C422.172 473.784 417.695 478.261 412.172 478.261H0V421.049Z" fill="#2249B3"></path>
<path d="M65.1899 391.867L-1.14355 407.749H801.278V391.867H65.1899Z" fill="#FF7373"></path>
<rect x="497.29" y="500.156" width="302.71" height="99.8442" fill="#2249B3"></rect>
<path d="M801.748 408.249H-1.67676M-1.67668 489.061H801.748" stroke="#005B9D" stroke-width="2"></path>
<path d="M430.203 429.049C430.203 423.526 434.68 419.049 440.203 419.049H800V478.261H440.203C434.68 478.261 430.203 473.784 430.203 468.261V429.049Z" fill="#2249B3"></path>
<rect x="628.445" y="445.142" width="41.6765" height="8.15916" rx="4.07958" fill="black" fill-opacity="0.27"></rect>
<rect x="628.202" y="445.142" width="41.6765" height="7.02752" rx="3.51376" fill="#FF7373"></rect>
<rect x="628.202" y="546.564" width="41.6765" height="7.02752" rx="3.51376" fill="#FF7373"></rect>
<rect y="500.156" width="229.386" height="99.8442" fill="#2249B3"></rect>
<rect x="93.8545" y="546.564" width="41.6765" height="7.02752" rx="3.51376" fill="#FF7373"></rect>
<path d="M137.213 400.58C137.213 401.733 117.128 401.695 101.734 401.695C86.3391 401.695 83.4336 401.733 83.4336 400.58C83.4336 399.427 86.3391 398.492 101.734 398.492C117.129 398.492 137.213 399.427 137.213 400.58Z" fill="black" fill-opacity="0.5"></path>
<path fill-rule="evenodd" clip-rule="evenodd" d="M91.5082 351.657C88.1886 351.657 85.4787 354.354 85.7809 357.659C87.4542 375.964 96.7079 399.808 121.046 399.808C146.761 399.808 155.494 375.965 157.046 357.661C157.327 354.353 154.616 351.657 151.297 351.657H91.5082Z" fill="#2249B3"></path>
<path d="M92.9686 233.87C90.7867 215.347 115.872 206.151 126.241 199.607C122.315 206.151 102.936 216.552 106.257 230.548C109.902 245.904 135.849 233.14 143.102 247.158C152.579 265.475 117.469 276.456 112.283 296.417C107.354 315.39 126.241 346.03 126.241 346.03C126.241 346.03 92.0929 312.589 90.5526 299.405C88.3708 280.732 122.468 279.27 119.243 260.748C116.725 246.287 94.6857 248.448 92.9686 233.87Z" fill="#B0C1E1"></path>
<path d="M123.605 300.862C122.745 293.563 136.819 284.823 140.904 282.245C139.357 284.823 129.541 295.347 130.85 300.862C132.287 306.914 143.236 305.636 146.094 311.16C148.816 316.419 133.985 338.839 133.985 338.839C133.985 338.839 136.332 329.335 133.985 315.855C132.992 310.157 124.281 306.607 123.605 300.862Z" fill="#B0C1E1"></path>
<path d="M93.8746 274.828C94.7344 267.529 80.6608 258.789 76.5748 256.21C78.122 258.789 87.9379 269.313 86.629 274.828C85.1928 280.88 74.243 279.601 71.385 285.125C68.6638 290.385 90.8133 315.856 90.8133 315.856C90.8133 315.856 81.1474 303.301 83.4947 289.821C84.4869 284.123 93.1979 280.573 93.8746 274.828Z" fill="#B0C1E1"></path>
<rect x="453.961" y="354.536" width="86.6581" height="36.8975" fill="#2249B3"></rect>
<path d="M453.961 354.536H540.619V358.852L453.961 366.032V354.536Z" fill="black" fill-opacity="0.5"></path>
<rect x="360.631" y="391.433" width="273.319" height="9.81986" fill="#2249B3"></rect>
<rect x="281.151" y="140.959" width="432.278" height="213.577" rx="12" fill="#2249B3"></rect>
<rect x="295.51" y="151.149" width="403.561" height="193.197" rx="12" fill="white"></rect>
<rect x="322.916" y="170.47" width="253.02" height="122.904" rx="9.16882" fill="#B0C1E1"></rect>
<g opacity="0.65">
<path d="M328.592 274.573L570.984 274.573" stroke="black" stroke-opacity="0.3" stroke-width="2" stroke-linecap="round"></path>
<path d="M328.837 274.573L400.791 274.573" stroke="#005B9D" stroke-width="3" stroke-linecap="round"></path>
</g>
<path d="M575.936 274.573V284.205C575.936 289.269 571.831 293.374 566.767 293.374H332.085C327.021 293.374 322.916 289.269 322.916 284.205V274.573H575.936Z" fill="black" fill-opacity="0.14"></path>
<rect x="418.249" y="215.131" width="50.6325" height="34.4308" rx="5.2546" fill="#2249B3"></rect>
<path d="M451.977 231.233C452.835 231.728 452.835 232.965 451.977 233.46L440.323 240.188C439.466 240.683 438.394 240.065 438.394 239.075L438.394 225.617C438.394 224.628 439.466 224.009 440.323 224.504L451.977 231.233Z" fill="#B0C1E1"></path>
<rect x="322.916" y="302.164" width="253.02" height="6.66537" fill="black" fill-opacity="0.14"></rect>
<rect x="322.916" y="316.641" width="253.02" height="27.7054" fill="black" fill-opacity="0.14"></rect>
<rect x="597.239" y="170.47" width="35.7751" height="26.6065" rx="3.9294" fill="#B0C1E1"></rect>
<rect x="640.642" y="170.47" width="35.7751" height="26.6065" rx="3.9294" fill="#B0C1E1"></rect>
<rect x="597.239" y="204.704" width="35.7751" height="26.6065" rx="3.9294" fill="#B0C1E1"></rect>
<rect x="640.642" y="204.704" width="35.7751" height="26.6065" rx="3.9294" fill="#B0C1E1"></rect>
<rect x="597.239" y="238.937" width="35.7751" height="26.6065" rx="3.9294" fill="#B0C1E1"></rect>
<rect x="640.642" y="238.937" width="35.7751" height="26.6065" rx="3.9294" fill="#B0C1E1"></rect>
<rect x="597.239" y="273.17" width="35.7751" height="26.6065" rx="3.9294" fill="#B0C1E1"></rect>
<rect x="640.642" y="273.17" width="35.7751" height="26.6065" rx="3.9294" fill="#B0C1E1"></rect>
<rect x="597.239" y="307.404" width="35.7751" height="26.6065" rx="3.9294" fill="#B0C1E1"></rect>
<rect x="640.642" y="307.404" width="35.7751" height="26.6065" rx="3.9294" fill="#B0C1E1"></rect>
<path d="M620.696 183.036C621.263 183.364 621.263 184.183 620.696 184.51L612.981 188.965C612.414 189.292 611.704 188.883 611.704 188.227L611.704 179.319C611.704 178.664 612.414 178.254 612.981 178.582L620.696 183.036Z" fill="#2249B3"></path>
<path d="M664.097 183.036C664.665 183.364 664.665 184.183 664.097 184.51L656.382 188.965C655.815 189.292 655.106 188.883 655.106 188.227L655.106 179.319C655.106 178.664 655.815 178.254 656.382 178.582L664.097 183.036Z" fill="#2249B3"></path>
<path d="M620.696 217.27C621.263 217.597 621.263 218.416 620.696 218.744L612.981 223.198C612.414 223.526 611.704 223.116 611.704 222.461L611.704 213.553C611.704 212.897 612.414 212.488 612.981 212.815L620.696 217.27Z" fill="#2249B3"></path>
<path d="M664.097 217.27C664.665 217.597 664.665 218.416 664.097 218.744L656.382 223.198C655.815 223.526 655.106 223.116 655.106 222.461L655.106 213.553C655.106 212.897 655.815 212.488 656.382 212.815L664.097 217.27Z" fill="#2249B3"></path>
<path d="M620.696 251.503C621.263 251.831 621.263 252.65 620.696 252.978L612.981 257.432C612.414 257.759 611.704 257.35 611.704 256.695L611.704 247.786C611.704 247.131 612.414 246.722 612.981 247.049L620.696 251.503Z" fill="#2249B3"></path>
<path d="M664.097 251.503C664.665 251.831 664.665 252.65 664.097 252.978L656.382 257.432C655.815 257.759 655.106 257.35 655.106 256.695L655.106 247.786C655.106 247.131 655.815 246.722 656.382 247.049L664.097 251.503Z" fill="#2249B3"></path>
<path d="M620.696 285.737C621.263 286.065 621.263 286.884 620.696 287.212L612.981 291.666C612.414 291.993 611.704 291.584 611.704 290.929L611.704 282.02C611.704 281.365 612.414 280.956 612.981 281.283L620.696 285.737Z" fill="#2249B3"></path>
<path d="M664.097 285.737C664.665 286.065 664.665 286.884 664.097 287.212L656.382 291.666C655.815 291.993 655.106 291.584 655.106 290.929L655.106 282.02C655.106 281.365 655.815 280.956 656.382 281.283L664.097 285.737Z" fill="#2249B3"></path>
<path d="M620.696 319.971C621.263 320.298 621.263 321.117 620.696 321.445L612.981 325.899C612.414 326.227 611.704 325.817 611.704 325.162L611.704 316.254C611.704 315.598 612.414 315.189 612.981 315.517L620.696 319.971Z" fill="#2249B3"></path>
<path d="M664.097 319.97C664.665 320.297 664.665 321.116 664.097 321.444L656.382 325.898C655.815 326.226 655.106 325.816 655.106 325.161L655.106 316.253C655.106 315.597 655.815 315.188 656.382 315.516L664.097 319.97Z" fill="#2249B3"></path>
<path d="M102.362 354.939C105.947 364.916 109.945 376.04 119.89 384.817C125.306 389.597 131.684 392.179 137.227 394.424C137.703 394.616 138.172 394.806 138.634 394.995C133.924 397.999 128.129 399.808 121.046 399.808C96.7079 399.808 87.4542 375.964 85.7809 357.659C85.4787 354.354 88.1886 351.657 91.5082 351.657H101.174C101.57 352.734 101.964 353.83 102.362 354.939Z" fill="black" fill-opacity="0.2"></path>
<g opacity="0.7">
<circle cx="157.529" cy="126.917" r="31.7338" transform="rotate(-15.6496 157.529 126.917)" fill="#FF7373"></circle>
<path fill-rule="evenodd" clip-rule="evenodd" d="M142.858 136.9C142.858 136.9 151.228 148.512 162.68 145.304C175.224 141.79 175.251 127.826 175.251 127.826C175.251 127.826 168.37 137.847 161.157 139.867C153.943 141.888 142.858 136.9 142.858 136.9Z" fill="black"></path>
<circle cx="146.039" cy="122.968" r="3.31795" transform="rotate(-15.6496 146.039 122.968)" fill="black"></circle>
<circle cx="165.294" cy="117.574" r="3.31795" transform="rotate(-15.6496 165.294 117.574)" fill="black"></circle>
</g>
<g opacity="0.7">
<circle cx="83.4337" cy="54.687" r="11.1622" transform="rotate(18.601 83.4337 54.687)" fill="#FF7373"></circle>
<path fill-rule="evenodd" clip-rule="evenodd" d="M77.1924 54.6852C77.1924 54.6852 77.3271 59.7183 81.2917 61.0526C85.6345 62.5143 88.4068 58.4595 88.4068 58.4595C88.4068 58.4595 84.4226 60.0108 81.9252 59.1703C79.4278 58.3298 77.1924 54.6852 77.1924 54.6852Z" fill="black"></path>
<circle cx="80.8754" cy="51.2641" r="1.16708" transform="rotate(18.601 80.8754 51.2641)" fill="black"></circle>
<circle cx="87.5415" cy="53.5078" r="1.16708" transform="rotate(18.601 87.5415 53.5078)" fill="black"></circle>
</g>
<g opacity="0.6">
<circle cx="307.698" cy="43.1483" r="19.9141" transform="rotate(4.9232 307.698 43.1483)" fill="#FF7373"></circle>
<path fill-rule="evenodd" clip-rule="evenodd" d="M296.877 45.7783C296.877 45.7783 299.234 54.4463 306.669 55.0868C314.814 55.7883 317.909 47.59 317.909 47.59C317.909 47.59 311.657 51.96 306.973 51.5565C302.29 51.1531 296.877 45.7783 296.877 45.7783Z" fill="black"></path>
<circle cx="301.819" cy="38.2941" r="2.08213" transform="rotate(4.9232 301.819 38.2941)" fill="black"></circle>
<circle cx="314.321" cy="39.3709" r="2.08213" transform="rotate(4.9232 314.321 39.3709)" fill="black"></circle>
</g>
<g opacity="0.5">
<circle cx="37.8568" cy="197.077" r="15.2924" transform="rotate(-13.8881 37.8568 197.077)" fill="#FF7373"></circle>
<path fill-rule="evenodd" clip-rule="evenodd" d="M30.6426 201.668C30.6426 201.668 34.5021 207.385 40.0655 206.01C46.1596 204.503 46.3794 197.777 46.3794 197.777C46.3794 197.777 42.9169 202.502 39.4124 203.368C35.9079 204.235 30.6426 201.668 30.6426 201.668Z" fill="black"></path>
<circle cx="32.3813" cy="195.004" r="1.59891" transform="rotate(-13.8881 32.3813 195.004)" fill="black"></circle>
<circle cx="41.7358" cy="192.691" r="1.59891" transform="rotate(-13.8881 41.7358 192.691)" fill="black"></circle>
</g>
<circle cx="399.27" cy="109.518" r="15.2924" transform="rotate(19.3561 399.27 109.518)" fill="#FF7373"></circle>
<path fill-rule="evenodd" clip-rule="evenodd" d="M390.719 109.403C390.719 109.403 390.812 116.3 396.219 118.2C402.142 120.281 406.013 114.776 406.013 114.776C406.013 114.776 400.527 116.829 397.121 115.633C393.715 114.436 390.719 109.403 390.719 109.403Z" fill="black"></path>
<circle cx="395.826" cy="104.783" r="1.59891" transform="rotate(19.3561 395.826 104.783)" fill="black"></circle>
<circle cx="404.918" cy="107.977" r="1.59891" transform="rotate(19.3561 404.918 107.977)" fill="black"></circle>
<circle cx="531.259" cy="42.448" r="15.2924" transform="rotate(-3.77067 531.259 42.448)" fill="#FF7373"></circle>
<path fill-rule="evenodd" clip-rule="evenodd" d="M523.351 45.7004C523.351 45.7004 526.146 52.0067 531.864 51.6298C538.128 51.2169 539.526 44.6343 539.526 44.6343C539.526 44.6343 535.288 48.6773 531.685 48.9147C528.083 49.1521 523.351 45.7004 523.351 45.7004Z" fill="black"></path>
<circle cx="526.233" cy="39.4457" r="1.59891" transform="rotate(-3.77067 526.233 39.4457)" fill="black"></circle>
<circle cx="535.848" cy="38.8118" r="1.59891" transform="rotate(-3.77067 535.848 38.8118)" fill="black"></circle>
<circle cx="390.363" cy="237.605" r="15.2924" transform="rotate(18.3377 390.363 237.605)" fill="#FF7373"></circle>
<path fill-rule="evenodd" clip-rule="evenodd" d="M381.812 237.642C381.812 237.642 382.028 244.537 387.468 246.34C393.427 248.315 397.199 242.742 397.199 242.742C397.199 242.742 391.75 244.893 388.324 243.757C384.897 242.621 381.812 237.642 381.812 237.642Z" fill="black"></path>
<circle cx="386.836" cy="232.932" r="1.59891" transform="rotate(18.3377 386.836 232.932)" fill="black"></circle>
<circle cx="395.982" cy="235.964" r="1.59891" transform="rotate(18.3377 395.982 235.964)" fill="black"></circle>
<path d="M339.358 166.673C340.44 174.14 340.138 187.126 338.821 200.881C340.303 204.233 341.725 207.674 342.157 209.402C342.683 211.505 339.864 215.157 336.761 217.556C334.233 234.145 330.417 249.038 325.984 253.63C314.068 265.971 289.901 248.08 275.006 229.355C263.09 214.375 264.948 206.308 269.062 185.596L339.358 166.673Z" fill="#FF7373"></path>
<path d="M256.611 250.751C260.892 228.465 310.519 233.468 312.216 256.097C314.907 291.972 331.05 304.528 331.05 304.528H223.876C223.876 304.528 248.195 294.564 256.611 250.751Z" fill="#FF7373"></path>
<path d="M452.201 429.226C452.201 524.827 350.59 580.138 275.301 580.138C200.013 580.138 124.857 552.712 124.857 457.111C124.857 361.51 206.962 287.377 282.25 287.377C357.538 287.377 426.781 335.169 452.201 429.226Z" fill="#2249B3"></path>
<path d="M483.478 489.774C487.369 462.541 430.792 356.607 391.24 328.078L401.914 362.388C407.386 417.35 429.669 512.952 442.203 526.083C457.871 542.497 480.192 512.777 483.478 489.774Z" fill="#2249B3"></path>
<path fill-rule="evenodd" clip-rule="evenodd" d="M437.745 558.016C420.995 545.548 376.722 491.59 354.678 474.055C297.464 428.545 233.024 377.288 216.409 379.045C202.021 380.566 184.153 380.705 161.654 379.045C154.719 378.533 149.728 377.152 146.363 375.082C175.714 322.285 230.586 287.377 282.25 287.377C300.527 287.377 318.448 290.194 335.472 295.805C312.14 303.686 276.37 329.575 258.505 356.114C391.135 351.985 440.907 364.839 446.012 441.472C450.58 510.054 459.895 534.663 437.745 558.016Z" fill="black" fill-opacity="0.5"></path>
<path fill-rule="evenodd" clip-rule="evenodd" d="M264.335 240.295C262.876 241.161 261.569 242.173 260.454 243.337C263.22 247.13 260.705 248.442 256.78 249.979C256.717 250.232 256.661 250.489 256.611 250.751C254.665 260.881 251.869 269.202 248.72 276.008C248.72 276.008 248.72 276.008 248.72 276.008C247.638 278.346 246.515 280.505 245.37 282.497C249.151 282.959 253.3 283.515 254.175 283.827C255.857 284.428 298.015 285.579 318.889 286.08C317.473 282.656 316.137 278.695 315.017 274.147C307.352 274.588 293.179 274.018 279.692 273.24C290.924 269.189 302.125 262.818 309.116 256.006C310.157 256.645 311.235 257.081 312.318 257.371L312.314 257.327C315.893 258.014 319.23 257.797 322.137 256.42C316.872 253.561 299.677 245.997 296.895 245.26C296.433 245.585 289.285 244.373 281.197 243.002C275.343 242.009 268.996 240.933 264.335 240.295Z" fill="black" fill-opacity="0.12"></path>
<path d="M236.759 276.091H323.799C328.015 280.329 334.165 291.532 333.359 294.642C332.023 299.795 232.825 319.383 222.672 302.848C217.887 295.056 231.257 276.091 236.759 276.091Z" fill="#2249B3"></path>
<path d="M248.295 187.551C249.688 188.944 284.862 203.222 294.613 202.177C304.364 201.132 331.132 212.064 331.132 212.064C331.132 212.064 337.287 195.749 336.591 184.256C335.894 172.764 350.566 159.378 362.407 142.662C371.879 129.289 313.649 105.738 279.762 111.884C232.077 120.532 210.262 149.518 248.295 187.551Z" fill="#2249B3"></path>
<path d="M320.961 193.357C321.118 190.775 323.339 188.808 325.921 188.965C328.504 189.122 330.47 191.343 330.313 193.926L328.732 219.948C328.575 222.531 326.354 224.497 323.771 224.34C321.189 224.183 319.222 221.963 319.379 219.38L320.961 193.357Z" fill="#FF7373"></path>
<path d="M322.944 201.25C323.204 195.653 327.682 186.421 321.363 191.12L309.277 250.548C313.399 247.023 321.317 238.605 320.016 233.139C318.388 226.305 322.619 208.246 322.944 201.25Z" fill="#020202" fill-opacity="0.39"></path>
<path d="M322.583 177.891C322.583 186.095 321.296 191.812 320.155 207.472C319.698 213.746 317.021 220.122 317.904 231.19C318.884 243.457 315.86 245.215 308.122 254.422C296.151 268.663 260.993 266.067 255.862 258.02C242.1 236.438 219.011 217.123 219.011 187.051C219.011 156.979 247.321 134.856 271.697 134.856C296.073 134.856 322.583 147.819 322.583 177.891Z" fill="#2249B3"></path>
<path d="M310.448 137.135C317.419 128.77 319.928 120.931 318.366 114.163C305.066 111.087 291.061 109.835 279.762 111.884C246.133 117.983 225.37 134.198 229.394 156.568C229.556 156.547 229.72 156.525 229.885 156.502C223.261 164.942 219.011 175.4 219.011 187.051C219.011 209.279 231.626 225.63 243.764 241.363C248.048 246.915 252.272 252.39 255.862 258.02C260.993 266.067 296.151 268.664 308.122 254.422C309.015 253.36 309.845 252.397 310.613 251.505L310.614 251.504C311.618 250.34 312.516 249.298 313.311 248.317C303.601 244.696 291.672 239.672 283.701 230.373C275.938 221.316 276.949 204.892 280.619 189.548C284.085 175.053 287.462 160.933 280.943 153.192C280.79 153.011 280.633 152.834 280.471 152.663C290.021 153.578 301.254 148.168 310.448 137.135Z" fill="black" fill-opacity="0.24"></path>
<path d="M130.488 449.343C127.44 403.187 164.057 364.072 210.314 364.072H364.933C406.954 364.072 441.813 396.583 444.739 438.502L456.059 600.703H140.482L130.488 449.343Z" fill="#FF7373"></path>
<path d="M103.557 459.023C94.1797 409.73 131.97 364.072 182.147 364.072H329.838C371.231 364.072 405.788 395.647 409.514 436.872L424.436 602H130.756L103.557 459.023Z" fill="#B0C1E1"></path>
<path d="M204.74 471.703C205.634 484.485 206.476 496.511 206.719 506.862C207.687 548 237.176 577.6 283.144 602H130.755L103.556 459.023C94.1793 409.73 131.97 364.072 182.147 364.072H208.85C199.122 391.424 202.152 434.725 204.74 471.703Z" fill="black" fill-opacity="0.1"></path>
<path d="M707.31 401.093C707.434 401.695 695.199 401.695 679.804 401.695C664.409 401.695 661.504 401.733 661.504 400.58C661.504 399.427 664.409 398.492 679.804 398.492C695.199 398.492 706.908 399.126 707.31 401.093Z" fill="black" fill-opacity="0.37"></path>
<path fill-rule="evenodd" clip-rule="evenodd" d="M671.812 400.868C669.905 400.848 668.23 399.481 668.143 397.576C667.718 388.213 673.894 382.883 682.981 382.883C695.139 382.883 707.679 390.01 707.679 398.99C707.679 400.307 706.507 401.243 705.19 401.229L671.812 400.868Z" fill="#B0C1E1"></path>
</g>
<defs>
<clipPath id="clip0">
<rect width="800" height="600" fill="white"></rect>
</clipPath>
</defs>
</svg>
