<svg width="600" height="450" viewBox="0 0 800 600" fill="none" xmlns="http://www.w3.org/2000/svg" data-reactroot="">
<path opacity="0.06" d="M737.731 280.209C685.838 326.881 627.832 320.27 625.413 343.123C622.96 366.285 682.657 372.039 714.348 424.542C735.369 459.371 744.907 516.163 721.863 547.297C685.486 596.445 590.511 544.351 409.965 536.024C211.936 526.891 167.046 581.693 99.8494 535.848C-21.0017 453.396 -3.37034 189.106 56.1338 167.997C94.1761 154.501 125.621 248.813 240.864 271.725C245.945 272.735 363.234 294.619 412.257 234.103C436.854 203.74 420.426 182.058 450.641 136.01C482.723 87.1158 530.445 67.054 544.47 61.3731C562.748 53.9694 605.018 37.4882 655.668 48.3111C718.524 61.7419 790 116.339 790 182.643C790 233.699 748.147 270.84 737.731 280.209Z" fill="#161616"></path>
<path fill-rule="evenodd" clip-rule="evenodd" d="M391.858 55.4492H96.4185C95.2852 55.4492 94.3581 56.3663 94.3581 57.5097V447.967C94.3581 449.1 95.2852 450.027 96.4185 450.027H391.858C393.001 450.027 393.918 449.1 393.918 447.967V57.5097C393.918 56.3663 393.001 55.4492 391.858 55.4492ZM598.796 359.837C600.839 356.99 602.055 353.511 602.055 349.747C602.055 340.171 594.264 332.38 584.687 332.38C575.111 332.38 567.32 340.171 567.32 349.747C567.32 353.511 568.536 356.989 570.579 359.837C562.296 364.336 555.801 373.412 555.801 382.373C555.801 386.087 558.822 389.108 562.535 389.108H606.839C610.553 389.108 613.574 386.087 613.574 382.373C613.574 373.412 607.079 364.336 598.796 359.837ZM584.687 342.554C588.654 342.554 591.881 345.781 591.881 349.747C591.881 353.673 588.718 356.87 584.806 356.934H584.568C580.657 356.87 577.494 353.673 577.494 349.747C577.494 345.781 580.721 342.554 584.687 342.554ZM566.58 378.932C568.609 372.93 575.376 367.109 581.239 367.109H584.568C584.578 367.109 584.588 367.109 584.598 367.11C584.607 367.111 584.617 367.111 584.626 367.112C584.635 367.113 584.644 367.113 584.653 367.114C584.664 367.115 584.676 367.115 584.687 367.115C584.727 367.115 584.766 367.109 584.806 367.109H588.135C593.999 367.109 600.766 372.93 602.794 378.932H566.58ZM417.055 163.316C417.055 167.142 413.953 170.244 410.126 170.244C406.3 170.244 403.198 167.142 403.198 163.316C403.198 159.49 406.3 156.388 410.126 156.388C413.953 156.388 417.055 159.49 417.055 163.316ZM410.126 193.296C413.953 193.296 417.055 190.194 417.055 186.367C417.055 182.541 413.953 179.439 410.126 179.439C406.3 179.439 403.198 182.541 403.198 186.367C403.198 190.194 406.3 193.296 410.126 193.296ZM58.5968 443.104C58.5968 446.93 55.4948 450.032 51.6684 450.032C47.8419 450.032 44.74 446.93 44.74 443.104C44.74 439.278 47.8419 436.176 51.6684 436.176C55.4948 436.176 58.5968 439.278 58.5968 443.104ZM74.7218 450.032C78.5483 450.032 81.6502 446.93 81.6502 443.104C81.6502 439.278 78.5483 436.176 74.7218 436.176C70.8954 436.176 67.7934 439.278 67.7934 443.104C67.7934 446.93 70.8954 450.032 74.7218 450.032ZM678.346 97.5913C685.928 84.9091 699.795 76.42 715.65 76.42C739.645 76.42 759.095 95.8707 759.095 119.865C759.095 131.785 754.294 142.581 746.516 150.442C741.128 155.892 734.298 159.931 726.643 161.919C723.13 162.836 719.452 163.32 715.65 163.32C714.208 163.32 712.776 163.248 711.375 163.114V212.586C711.375 214.048 710.19 215.233 708.727 215.233H602.603C601.14 215.233 599.956 214.048 599.956 212.586V137.368C599.956 135.906 601.14 134.721 602.603 134.721H674.812C673.123 130.085 672.206 125.078 672.206 119.865C672.206 117.052 672.474 114.302 672.989 111.633C673.957 106.585 675.791 101.856 678.346 97.5913ZM711.376 221.043H665.695V228.646H711.376V221.043ZM599.76 221.043H625.083V228.646H599.76V221.043Z" fill="#FF7373"></path>
<path opacity="0.09" d="M365.321 328.569V335.277C365.321 336.152 366.026 336.857 366.891 336.857H393.913V326.999H366.891C366.026 326.999 365.321 327.704 365.321 328.569Z" fill="black"></path>
<path opacity="0.09" d="M351.706 301.638C348.388 301.638 345.678 304.34 345.678 307.665V356.2C345.678 359.517 348.388 362.22 351.706 362.22H393.914V354.533H356.049V309.332H393.914V301.638H351.706Z" fill="black"></path>
<g opacity="0.31">
<path opacity="0.19" d="M393.92 302.319V447.973C393.92 449.107 393.003 450.034 391.86 450.034H96.4206C95.2873 450.034 94.3601 449.107 94.3601 447.973V408.073C94.9267 408.114 95.514 408.134 96.0909 408.134C103.941 408.134 111.05 404.951 116.191 399.81C121.29 394.7 124.463 387.664 124.505 379.885V327.282C124.505 319.431 127.688 312.323 132.829 307.182C137.98 302.041 145.078 298.858 152.929 298.858C168.629 298.858 181.353 311.581 181.353 327.282V348.803C181.353 364.504 194.076 377.227 209.777 377.227C217.627 377.227 224.736 374.044 229.877 368.903C235.017 363.762 238.201 356.654 238.201 348.803V285.619C238.201 277.769 241.384 270.66 246.535 265.52C251.676 260.379 258.785 257.195 266.635 257.195C282.326 257.195 295.059 269.919 295.059 285.619V329.002C295.059 344.703 307.783 357.426 323.483 357.426C331.334 357.426 338.442 354.243 343.583 349.102C348.724 343.961 351.907 336.853 351.907 329.002V327.292C351.907 311.591 364.631 298.868 380.331 298.868C385.256 298.868 389.882 300.125 393.92 302.319Z" fill="#1A1A1A"></path>
</g>
<path opacity="0.19" d="M486.099 89.4102H166.442V131.615H486.099V89.4102Z" fill="#1A1A1A"></path>
<path fill-rule="evenodd" clip-rule="evenodd" d="M541.934 319.955C543.005 325.188 546.137 330.463 551.752 336.531C553.74 338.674 554.111 341.816 552.669 344.361C551.463 346.483 549.248 347.74 546.879 347.74C546.425 347.74 545.962 347.689 545.488 347.596L545.477 347.586L515.745 341.209H491.256V517.182C491.256 521.2 487.98 524.476 483.962 524.476H168.65C164.632 524.476 161.356 521.2 161.356 517.182V476.89H46.5576C43.7451 476.89 41.4683 474.613 41.4683 471.801C41.4683 468.988 43.7451 466.711 46.5576 466.711H161.356V235.054H145.068L130.872 238.103L114.81 241.554C113.296 241.874 112.276 240.061 113.327 238.927C118.972 232.839 123.217 226.431 124.505 219.373V163.102C124.505 161.402 125.896 160.012 127.595 160.012H161.356V86.8653C161.356 82.8371 164.632 79.5713 168.65 79.5713H483.962C487.98 79.5713 491.256 82.8371 491.256 86.8653V271.441H533.753C538.266 271.441 541.934 275.109 541.934 279.621V319.955ZM171.525 514.298H481.078V341.209H330.674C326.172 341.209 322.494 337.531 322.494 333.029V279.621C322.494 275.109 326.172 271.441 330.674 271.441H481.078V89.7397H171.525V160.012H330.674C332.385 160.012 333.765 161.402 333.765 163.102V231.963C333.765 233.673 332.385 235.054 330.674 235.054H171.525V466.711H441.713C444.515 466.711 446.792 468.988 446.792 471.801C446.792 474.613 444.515 476.89 441.713 476.89H171.525V514.298ZM332.673 331.03H516.827L537.936 335.563C534.691 330.783 532.713 326.136 531.848 321.346L531.765 320.892V281.62H332.673V331.03ZM333.764 418.631V380.688C333.764 378.978 332.384 377.597 330.674 377.597H199.711C198.011 377.597 196.62 378.978 196.62 380.688V406.042C195.332 413.099 191.088 419.507 185.442 425.596C184.391 426.729 185.411 428.542 186.926 428.223L191.036 427.337L217.184 421.722H330.674C332.384 421.722 333.764 420.341 333.764 418.631ZM520.531 299.774H344.516C343.379 299.774 342.456 300.697 342.456 301.835V310.631C342.456 311.769 343.379 312.692 344.516 312.692H520.531C521.669 312.692 522.591 311.769 522.591 310.631V301.835C522.591 300.697 521.669 299.774 520.531 299.774ZM111.282 272.936C111.282 276.649 108.261 279.67 104.547 279.67H60.2434C56.5299 279.67 53.5086 276.649 53.5086 272.936C53.5086 263.974 60.0037 254.898 68.2868 250.4C66.2443 247.552 65.0278 244.074 65.0278 240.31C65.0278 230.733 72.8189 222.942 82.3953 222.942C91.9717 222.942 99.7629 230.733 99.7629 240.31C99.7629 244.074 98.5464 247.552 96.5038 250.4C104.787 254.898 111.282 263.974 111.282 272.936ZM89.5883 240.31C89.5883 236.343 86.3613 233.116 82.3953 233.116C78.4293 233.116 75.2023 236.343 75.2023 240.31C75.2023 244.236 78.3655 247.432 82.2762 247.497H82.5144C86.4251 247.432 89.5883 244.236 89.5883 240.31ZM82.2762 257.671H78.9475C73.084 257.671 66.3171 263.493 64.2883 269.495H100.502C98.4736 263.493 91.7066 257.671 85.8432 257.671H82.5144C82.4948 257.671 82.4755 257.673 82.4563 257.674C82.4438 257.675 82.4313 257.676 82.4188 257.677C82.411 257.677 82.4032 257.677 82.3953 257.677C82.3857 257.677 82.3761 257.677 82.3666 257.677C82.3558 257.676 82.3451 257.675 82.3344 257.674L82.3127 257.673C82.3006 257.672 82.2885 257.671 82.2762 257.671ZM539.783 484.121H521.483C520.265 484.121 519.277 485.109 519.277 486.327V504.627C519.277 505.845 520.265 506.832 521.483 506.832H539.783C541.001 506.832 541.988 505.845 541.988 504.627V486.327C541.988 485.109 541.001 484.121 539.783 484.121ZM711.374 163.113C712.775 163.247 714.207 163.319 715.65 163.319C719.451 163.319 723.129 162.835 726.642 161.918V246.449C726.642 247.726 726.313 248.931 725.725 249.972C724.489 252.177 722.13 253.66 719.431 253.66H591.898C587.911 253.66 584.687 250.436 584.687 246.449V118.844C584.687 114.857 587.911 111.633 591.898 111.633H672.988C672.473 114.301 672.205 117.052 672.205 119.864C672.205 125.077 673.122 130.084 674.811 134.72H602.603C601.14 134.72 599.955 135.905 599.955 137.368V212.585C599.955 214.048 601.14 215.233 602.603 215.233H708.727C710.19 215.233 711.374 214.048 711.374 212.585V163.113ZM599.759 228.646H625.082V221.043H599.759V228.646ZM665.694 228.646H711.374V221.043H665.694V228.646ZM689.468 141.196H741.829C744.4 141.196 746.492 139.104 746.492 136.533V105.266C746.492 102.694 744.4 100.602 741.829 100.602H689.468C686.896 100.602 684.804 102.694 684.804 105.266V136.533C684.804 139.104 686.896 141.196 689.468 141.196ZM732.976 107.24L715.763 117.017L700.686 107.24H732.976ZM691.442 109.158L715.534 124.781L739.854 110.968V134.558H691.442V109.158ZM739.976 337.03L739.975 337.031C736.143 339.177 733.817 340.67 733.817 343.312C733.817 345.952 736.143 347.446 739.974 349.591C743.849 351.761 748.24 354.22 748.24 359.467C748.24 364.713 743.849 367.173 739.975 369.342C736.143 371.488 733.817 372.981 733.817 375.622C733.817 378.263 736.143 379.757 739.975 381.903L739.977 381.904C743.85 384.074 748.24 386.533 748.24 391.779C748.24 397.027 743.849 399.486 739.975 401.657C736.143 403.803 733.817 405.297 733.817 407.939C733.817 410.58 736.143 412.074 739.975 414.22C743.849 416.39 748.24 418.85 748.24 424.096C748.24 429.343 743.849 431.803 739.975 433.973C736.143 436.119 733.817 437.613 733.817 440.254C733.817 442.896 736.143 444.39 739.975 446.536C743.849 448.706 748.24 451.166 748.24 456.414C748.24 461.661 743.849 464.121 739.975 466.291C736.143 468.437 733.817 469.932 733.817 472.574C733.817 475.215 736.143 476.708 739.974 478.854C743.849 481.025 748.24 483.484 748.24 488.731C748.24 493.978 743.851 496.438 739.977 498.609L739.975 498.61C736.143 500.756 733.817 502.251 733.817 504.893C733.817 507.536 736.143 509.03 739.975 511.177L739.977 511.178C743.851 513.349 748.24 515.809 748.24 521.056C748.24 526.304 743.849 528.765 739.975 530.936C736.143 533.083 733.817 534.578 733.817 537.221C733.817 539.864 736.143 541.358 739.975 543.505C743.849 545.677 748.24 548.137 748.24 553.386C748.24 554.524 747.317 555.447 746.18 555.447C745.042 555.447 744.119 554.524 744.119 553.386C744.119 550.742 741.792 549.248 737.96 547.101C734.086 544.93 729.696 542.469 729.696 537.221C729.696 531.973 734.087 529.512 737.961 527.341C741.792 525.194 744.119 523.699 744.119 521.056C744.119 518.414 741.792 516.92 737.961 514.773L737.96 514.772C734.086 512.601 729.696 510.141 729.696 504.893C729.696 499.646 734.085 497.186 737.958 495.015L737.961 495.014C741.792 492.868 744.119 491.373 744.119 488.731C744.119 486.09 741.792 484.596 737.961 482.45L737.959 482.449C734.085 480.279 729.696 477.82 729.696 472.574C729.696 467.328 734.086 464.868 737.96 462.697L737.961 462.696C741.792 460.55 744.119 459.056 744.119 456.414C744.119 453.772 741.792 452.278 737.961 450.132C734.087 447.962 729.696 445.502 729.696 440.254C729.696 435.007 734.087 432.547 737.961 430.377C741.792 428.231 744.119 426.737 744.119 424.096C744.119 421.455 741.792 419.961 737.961 417.815C734.087 415.645 729.696 413.185 729.696 407.939C729.696 402.691 734.087 400.231 737.961 398.061C741.792 395.915 744.119 394.421 744.119 391.779C744.119 389.138 741.792 387.645 737.961 385.499C734.087 383.329 729.696 380.869 729.696 375.622C729.696 370.376 734.086 367.917 737.96 365.747L737.961 365.746C741.792 363.601 744.119 362.107 744.119 359.467C744.119 356.826 741.792 355.332 737.961 353.187C734.087 351.017 729.696 348.558 729.696 343.312C729.696 338.065 734.087 335.605 737.961 333.435C741.792 331.289 744.119 329.796 744.119 327.155C744.119 324.514 741.792 323.02 737.961 320.875C734.087 318.705 729.696 316.246 729.696 310.999C729.696 305.752 734.087 303.292 737.961 301.122C741.792 298.976 744.119 297.482 744.119 294.841C744.119 293.703 745.042 292.78 746.18 292.78C747.317 292.78 748.24 293.703 748.24 294.841C748.24 300.088 743.849 302.548 739.975 304.718C736.143 306.864 733.817 308.358 733.817 310.999C733.817 313.64 736.143 315.133 739.974 317.279C743.849 319.448 748.24 321.908 748.24 327.155C748.24 332.401 743.85 334.86 739.976 337.03Z" fill="#2249B3"></path>
<path d="M486.168 255.286C473.865 255.286 463.857 245.278 463.857 232.975V89.2738C463.857 76.9714 473.865 66.9629 486.168 66.9629C498.47 66.9629 508.479 76.9714 508.479 89.2738V232.975C508.479 245.278 498.47 255.286 486.168 255.286ZM486.168 68.137C474.513 68.137 465.031 77.6188 465.031 89.2738V232.975C465.031 244.63 474.513 254.112 486.168 254.112C497.823 254.112 507.304 244.63 507.304 232.975V89.2738C507.304 77.6188 497.823 68.137 486.168 68.137Z" fill="#CCCCCC"></path>
<path d="M300.596 544.401H156.894C144.592 544.401 134.583 534.393 134.583 522.09C134.583 509.788 144.592 499.78 156.894 499.78H300.596C312.898 499.78 322.907 509.788 322.907 522.09C322.907 534.393 312.898 544.401 300.596 544.401ZM156.894 500.953C145.239 500.953 135.758 510.436 135.758 522.09C135.758 533.746 145.239 543.228 156.894 543.228H300.596C312.251 543.228 321.733 533.746 321.733 522.09C321.733 510.436 312.251 500.953 300.596 500.953H156.894Z" fill="#CCCCCC"></path>
<path opacity="0.09" d="M505.225 509.491H46.2398C44.6781 509.491 43.4121 508.225 43.4121 506.663V484.293C43.4121 482.731 44.6781 481.465 46.2398 481.465H505.225C506.786 481.465 508.052 482.731 508.052 484.293V506.663C508.052 508.225 506.786 509.491 505.225 509.491Z" fill="black"></path>
<path opacity="0.19" d="M330.355 421.722V423.174C330.355 424.802 329.026 426.121 327.399 426.121H219.132L190.254 432.323C188.812 432.632 187.833 430.901 188.843 429.819C189.605 428.995 190.337 428.171 191.037 427.336L217.185 421.722H330.355Z" fill="#1A1A1A"></path>
<path opacity="0.19" d="M326.306 235.055V248.427C326.306 250.014 325.018 251.312 323.422 251.312H150.364L122.146 257.369C120.734 257.668 119.776 255.979 120.765 254.917C125.648 249.653 129.398 244.131 130.872 238.104L145.068 235.055H326.306Z" fill="#1A1A1A"></path>
<path opacity="0.19" d="M393.913 89.2432V117.348H258.726C257.5 117.348 256.501 116.359 256.501 115.133V89.2432H393.913Z" fill="#1A1A1A"></path>
<path d="M401.245 109.429H251.364C250.286 109.429 249.412 108.555 249.412 107.477V89.4102H403.197V107.477C403.197 108.555 402.323 109.429 401.245 109.429Z" fill="#B0C1E1"></path>
<path opacity="0.09" d="M443.238 499.876C445.667 499.876 447.637 497.907 447.637 495.478C447.637 493.048 445.667 491.079 443.238 491.079C440.809 491.079 438.839 493.048 438.839 495.478C438.839 497.907 440.809 499.876 443.238 499.876Z" fill="black"></path>
<path opacity="0.09" d="M454.967 499.876C457.396 499.876 459.366 497.907 459.366 495.478C459.366 493.048 457.396 491.079 454.967 491.079C452.538 491.079 450.568 493.048 450.568 495.478C450.568 497.907 452.538 499.876 454.967 499.876Z" fill="black"></path>
<path opacity="0.09" d="M466.696 499.876C469.125 499.876 471.095 497.907 471.095 495.478C471.095 493.048 469.125 491.079 466.696 491.079C464.267 491.079 462.297 493.048 462.297 495.478C462.297 497.907 464.267 499.876 466.696 499.876Z" fill="black"></path>
<path opacity="0.19" d="M171.645 148.834H161.315V160.018H171.645V148.834Z" fill="#1A1A1A"></path>
<path opacity="0.19" d="M171.607 235.055H161.277V246.239H171.607V235.055Z" fill="#1A1A1A"></path>
<path opacity="0.19" d="M491.176 255.095H481.022V271.406H491.176V255.095Z" fill="#1A1A1A"></path>
<path opacity="0.19" d="M491.314 341.066H480.984V362.22H491.314V341.066Z" fill="#1A1A1A"></path>
<path opacity="0.29" d="M316.753 180.878H140.739C139.601 180.878 138.678 181.8 138.678 182.938V191.735C138.678 192.873 139.601 193.795 140.739 193.795H316.753C317.891 193.795 318.813 192.873 318.813 191.735V182.938C318.813 181.8 317.891 180.878 316.753 180.878Z" fill="#F2F2F2"></path>
<path opacity="0.29" d="M316.753 199.796H140.739C139.601 199.796 138.679 200.718 138.679 201.856V210.653C138.679 211.791 139.601 212.713 140.739 212.713H316.753C317.891 212.713 318.814 211.791 318.814 210.653V201.856C318.814 200.718 317.891 199.796 316.753 199.796Z" fill="#F2F2F2"></path>
<path d="M190.493 109.43C193.344 109.43 195.656 107.118 195.656 104.267C195.656 101.416 193.344 99.1045 190.493 99.1045C187.642 99.1045 185.33 101.416 185.33 104.267C185.33 107.118 187.642 109.43 190.493 109.43Z" fill="#E74C3C"></path>
<path d="M206.423 109.43C209.275 109.43 211.586 107.118 211.586 104.267C211.586 101.416 209.275 99.1045 206.423 99.1045C203.572 99.1045 201.261 101.416 201.261 104.267C201.261 107.118 203.572 109.43 206.423 109.43Z" fill="#5FC47A"></path>
<path d="M613.659 97.5918H678.347C675.792 101.857 673.959 106.586 672.99 111.634H593.796C596.805 103.433 604.562 97.5918 613.659 97.5918Z" fill="#B0C1E1"></path>
<path d="M746.516 150.441V235.394C746.516 243.451 740.108 249.972 732.196 249.972H725.726C726.314 248.931 726.643 247.726 726.643 246.449V161.918C734.298 159.93 741.128 155.891 746.516 150.441Z" fill="#B0C1E1"></path>
<path opacity="0.19" d="M711.375 163.835V166.895H599.956V138.368C599.956 136.359 601.141 134.721 602.604 134.721H674.812C677.233 141.386 681.241 147.29 686.382 151.977C686.207 152.183 686.217 152.502 686.402 152.688C686.495 152.781 695.85 161.898 711.313 163.825C711.334 163.825 711.355 163.835 711.375 163.835Z" fill="#1A1A1A"></path>
<path d="M658.917 402.204H568.747V407.425H658.917V402.204Z" fill="#2249B3"></path>
<path d="M658.917 412.989H568.747V418.21H658.917V412.989Z" fill="#2249B3"></path>
<path d="M658.917 435.972H568.747V441.192H658.917V435.972Z" fill="#2249B3"></path>
<path d="M658.917 446.76H568.747V451.98H658.917V446.76Z" fill="#2249B3"></path>
<path d="M658.917 469.74H568.747V474.961H658.917V469.74Z" fill="#2249B3"></path>
<path d="M658.917 480.527H568.747V485.748H658.917V480.527Z" fill="#2249B3"></path>
<path d="M689.747 388.462H628.057C627.298 388.462 626.683 387.847 626.683 387.089V365.788C626.683 365.03 627.298 364.415 628.057 364.415H689.747C690.505 364.415 691.12 365.03 691.12 365.788V387.089C691.12 387.847 690.505 388.462 689.747 388.462Z" fill="#B0C1E1"></path>
<path d="M689.747 422.231H668.447C667.689 422.231 667.074 421.616 667.074 420.857V399.557C667.074 398.798 667.689 398.184 668.447 398.184H689.747C690.506 398.184 691.121 398.798 691.121 399.557V420.857C691.121 421.616 690.506 422.231 689.747 422.231Z" fill="#B0C1E1"></path>
<path d="M689.747 455.999H668.447C667.689 455.999 667.074 455.384 667.074 454.626V433.325C667.074 432.567 667.689 431.952 668.447 431.952H689.747C690.506 431.952 691.121 432.567 691.121 433.325V454.626C691.121 455.384 690.506 455.999 689.747 455.999Z" fill="#B0C1E1"></path>
<path d="M689.747 489.767H668.447C667.689 489.767 667.074 489.152 667.074 488.393V467.093C667.074 466.335 667.689 465.72 668.447 465.72H689.747C690.506 465.72 691.121 466.335 691.121 467.093V488.393C691.121 489.152 690.506 489.767 689.747 489.767Z" fill="#B0C1E1"></path>
<path d="M761.406 557.92C761.121 557.92 760.891 557.689 760.891 557.404C760.891 553.665 757.516 551.773 753.942 549.771C750.268 547.712 746.468 545.582 746.468 541.24C746.468 536.896 750.268 534.767 753.942 532.707C757.516 530.705 760.891 528.814 760.891 525.074C760.891 521.335 757.516 519.445 753.943 517.443C750.268 515.383 746.468 513.254 746.468 508.911C746.468 504.569 750.268 502.44 753.942 500.381C757.516 498.378 760.891 496.488 760.891 492.749C760.891 489.012 757.516 487.121 753.942 485.12C750.268 483.062 746.468 480.933 746.468 476.593C746.468 472.25 750.268 470.122 753.943 468.062C757.516 466.061 760.891 464.17 760.891 460.432C760.891 456.694 757.516 454.803 753.943 452.802C750.268 450.742 746.468 448.615 746.468 444.272C746.468 439.931 750.268 437.802 753.942 435.744C757.516 433.743 760.891 431.852 760.891 428.114C760.891 424.377 757.516 422.486 753.943 420.485C750.268 418.427 746.468 416.298 746.468 411.957C746.468 407.615 750.268 405.487 753.943 403.427C757.516 401.426 760.891 399.535 760.891 395.797C760.891 392.061 757.516 390.17 753.943 388.169C750.268 386.111 746.468 383.982 746.468 379.64C746.468 375.299 750.268 373.171 753.943 371.113C757.516 369.112 760.891 367.222 760.891 363.485C760.891 359.748 757.516 357.858 753.942 355.857C750.268 353.799 746.468 351.671 746.468 347.33C746.468 342.989 750.268 340.86 753.943 338.802C757.516 336.8 760.891 334.91 760.891 331.173C760.891 327.436 757.516 325.545 753.942 323.544C750.268 321.486 746.468 319.358 746.468 315.018C746.468 310.676 750.268 308.547 753.943 306.489C757.516 304.487 760.891 302.596 760.891 298.859C760.891 298.574 761.121 298.344 761.406 298.344C761.691 298.344 761.921 298.574 761.921 298.859C761.921 303.201 758.121 305.329 754.446 307.387C750.873 309.389 747.498 311.28 747.498 315.018C747.498 318.754 750.873 320.645 754.446 322.646C758.121 324.704 761.921 326.832 761.921 331.173C761.921 335.514 758.121 337.642 754.447 339.7C750.873 341.702 747.498 343.592 747.498 347.33C747.498 351.067 750.873 352.957 754.446 354.958C758.121 357.016 761.921 359.144 761.921 363.485C761.921 367.826 758.121 369.954 754.447 372.012C750.873 374.013 747.498 375.904 747.498 379.64C747.498 383.378 750.873 385.268 754.447 387.27C758.121 389.328 761.921 391.457 761.921 395.797C761.921 400.139 758.121 402.267 754.446 404.327C750.873 406.328 747.498 408.219 747.498 411.957C747.498 415.694 750.873 417.585 754.447 419.586C758.121 421.644 761.921 423.773 761.921 428.114C761.921 432.456 758.121 434.585 754.446 436.643C750.873 438.644 747.498 440.535 747.498 444.272C747.498 448.01 750.873 449.901 754.446 451.902C758.121 453.962 761.921 456.09 761.921 460.432C761.921 464.773 758.121 466.902 754.447 468.962C750.873 470.963 747.498 472.854 747.498 476.593C747.498 480.329 750.873 482.22 754.446 484.221C758.121 486.279 761.921 488.408 761.921 492.749C761.921 497.092 758.121 499.221 754.447 501.28C750.873 503.282 747.498 505.173 747.498 508.911C747.498 512.651 750.873 514.541 754.447 516.543C758.121 518.603 761.921 520.732 761.921 525.074C761.921 529.417 758.121 531.547 754.447 533.606C750.873 535.609 747.498 537.5 747.498 541.24C747.498 544.978 750.873 546.87 754.446 548.872C758.121 550.931 761.921 553.061 761.921 557.404C761.921 557.689 761.691 557.92 761.406 557.92Z" fill="#344F73"></path>
<path d="M519.419 45.7191C523.246 45.7191 526.348 42.6171 526.348 38.7907C526.348 34.9643 523.246 31.8623 519.419 31.8623C515.593 31.8623 512.491 34.9643 512.491 38.7907C512.491 42.6171 515.593 45.7191 519.419 45.7191Z" fill="#B0C1E1"></path>
<path d="M496.366 45.7191C500.192 45.7191 503.294 42.6171 503.294 38.7907C503.294 34.9643 500.192 31.8623 496.366 31.8623C492.539 31.8623 489.438 34.9643 489.438 38.7907C489.438 42.6171 492.539 45.7191 496.366 45.7191Z" fill="#B0C1E1"></path>
<path d="M150.754 56.4833H67.6606C67.0917 56.4833 66.6304 56.022 66.6304 55.4531C66.6304 54.8841 67.0917 54.4229 67.6606 54.4229H150.754C151.323 54.4229 151.784 54.8841 151.784 55.4531C151.784 56.022 151.323 56.4833 150.754 56.4833Z" fill="#344F73"></path>
<path d="M401.906 453.009H318.813C318.244 453.009 317.783 452.548 317.783 451.978C317.783 451.409 318.244 450.948 318.813 450.948H401.906C402.475 450.948 402.937 451.409 402.937 451.978C402.937 452.548 402.475 453.009 401.906 453.009Z" fill="#344F73"></path>
<path opacity="0.29" d="M326.039 399.493C324.617 399.493 323.464 398.34 323.464 396.917V387.624H310.018C308.596 387.624 307.443 386.471 307.443 385.048C307.443 383.626 308.596 382.473 310.018 382.473H323.979C326.535 382.473 328.615 384.552 328.615 387.109V396.917C328.615 398.34 327.462 399.493 326.039 399.493ZM323.979 387.624H323.989H323.979Z" fill="#F2F2F2"></path>
<path d="M745.409 103.687C744.018 103.687 742.721 102.813 742.248 101.423C738.006 88.9549 722.823 87.4578 722.67 87.4442C720.833 87.2802 719.476 85.6579 719.641 83.8208C719.805 81.9832 721.423 80.6265 723.264 80.792C724.065 80.8634 742.944 82.7352 748.571 99.2717C749.165 101.018 748.231 102.915 746.485 103.509C746.129 103.63 745.765 103.687 745.409 103.687Z" fill="white"></path>
<path d="M537.602 240.479C536.701 240.479 535.971 239.749 535.971 238.848V141.318C535.971 140.417 536.701 139.687 537.602 139.687C538.503 139.687 539.234 140.417 539.234 141.318V238.848C539.234 239.749 538.503 240.479 537.602 240.479Z" fill="#B0C1E1"></path>
<path d="M554.977 240.479C554.076 240.479 553.346 239.749 553.346 238.848V141.318C553.346 140.417 554.076 139.687 554.977 139.687C555.878 139.687 556.609 140.417 556.609 141.318V238.848C556.609 239.749 555.878 240.479 554.977 240.479Z" fill="#B0C1E1"></path>
<path d="M546.285 250.288C545.384 250.288 544.653 249.558 544.653 248.657V120.22C544.653 119.319 545.384 118.589 546.285 118.589C547.186 118.589 547.916 119.319 547.916 120.22V248.657C547.916 249.558 547.186 250.288 546.285 250.288Z" fill="#B0C1E1"></path>
<path d="M732.053 160.662C728.632 162.248 723.553 164.154 716.496 164.154C714.889 164.154 713.189 164.051 711.376 163.835C711.355 163.835 711.335 163.825 711.314 163.825C695.851 161.898 686.496 152.781 686.403 152.688C686.218 152.502 686.208 152.183 686.383 151.977C686.393 151.967 686.393 151.967 686.403 151.956C686.609 151.761 686.929 151.761 687.135 151.956C687.217 152.049 696.335 160.919 711.438 162.805C720.998 164 727.53 161.62 731.62 159.724C731.878 159.611 732.176 159.724 732.3 159.982C732.424 160.239 732.31 160.538 732.053 160.662Z" fill="#344F73"></path>
<path d="M244.134 406.455C247.886 406.455 250.928 403.412 250.928 399.66C250.928 395.907 247.886 392.865 244.134 392.865C240.381 392.865 237.339 395.907 237.339 399.66C237.339 403.412 240.381 406.455 244.134 406.455Z" fill="#FFCD33"></path>
<path d="M262.253 406.455C266.006 406.455 269.048 403.412 269.048 399.66C269.048 395.907 266.006 392.865 262.253 392.865C258.501 392.865 255.458 395.907 255.458 399.66C255.458 403.412 258.501 406.455 262.253 406.455Z" fill="#B0C1E1"></path>
<path d="M280.373 406.455C284.125 406.455 287.167 403.412 287.167 399.66C287.167 395.907 284.125 392.865 280.373 392.865C276.62 392.865 273.578 395.907 273.578 399.66C273.578 403.412 276.62 406.455 280.373 406.455Z" fill="#FFCD33"></path>
</svg>
