<svg width="600" height="450" viewBox="0 0 800 600" fill="none" xmlns="http://www.w3.org/2000/svg" data-reactroot="">
<path opacity="0.3" d="M178.379 321.458C68.1602 298.296 13.9831 337.765 0.671875 360.394V600H817.327V374.371C768.74 346.75 658.189 297.498 604.677 321.458C537.787 351.409 316.152 350.41 178.379 321.458Z" fill="#B0C1E1"></path>
<path opacity="0.3" d="M162.533 75.8975H41.6211C23.948 75.8975 9.62109 90.2243 9.62109 107.897L9.62111 257.293C9.62111 274.966 23.948 289.293 41.6211 289.293H56.7571C74.4302 289.293 88.7571 303.62 88.7571 321.293V350.532C88.7571 368.206 103.084 382.532 120.757 382.532H331.774C349.447 382.532 363.774 368.206 363.774 350.532V272.715C363.774 255.042 349.447 240.715 331.774 240.715H226.533C208.86 240.715 194.533 226.388 194.533 208.715L194.533 107.897C194.533 90.2243 180.206 75.8975 162.533 75.8975Z" fill="#2249B3"></path>
<path opacity="0.2" fill-rule="evenodd" clip-rule="evenodd" d="M767.739 252.587C773.443 240.637 779.894 220.582 775.807 204.817C770.245 183.365 756.37 77.3959 755.018 67.0225C754.952 66.5115 754.526 66.2051 754.011 66.2051C753.501 66.2051 753.079 66.5032 753.007 67.0079C751.522 77.2954 736.159 183.355 730.594 204.817C726.507 220.582 732.958 240.637 738.662 252.587H718.192C723.896 240.637 730.347 220.582 726.26 204.817C720.698 183.365 706.823 77.3959 705.471 67.0225C705.405 66.5115 704.979 66.2051 704.464 66.2051C703.954 66.2051 703.532 66.5032 703.46 67.0079C701.975 77.2954 686.612 183.355 681.047 204.817C676.96 220.582 683.411 240.637 689.115 252.587H668.644C674.349 240.637 680.8 220.582 676.712 204.817C673.141 191.042 666.141 142.416 661.231 106.631L690.446 107.432C690.446 102.132 686.346 97.5322 680.446 95.5322C680.146 87.2322 671.346 80.5322 660.446 80.5322C659.523 80.5322 658.615 80.5808 657.724 80.6749C656.804 73.7642 656.165 68.8728 655.924 67.0225C655.857 66.5115 655.432 66.2051 654.917 66.2051C654.407 66.2051 653.985 66.5032 653.912 67.0079C653.629 68.969 652.842 74.4107 651.714 82.0832C648.446 83.3127 645.683 85.2081 643.746 87.5322L643.492 87.509C642.49 87.4173 641.561 87.3322 640.546 87.3322C634.446 87.3322 629.046 89.4322 625.346 92.7322C623.646 92.2322 621.746 92.0322 619.846 92.0322C616.19 92.0322 612.797 92.9283 610.025 94.4534C608.127 80.4193 606.757 69.94 606.377 67.0225C606.31 66.5115 605.885 66.2051 605.369 66.2051C604.859 66.2051 604.438 66.5032 604.365 67.0079C602.881 77.2954 587.517 183.355 581.953 204.817C577.866 220.582 584.317 240.637 590.021 252.587H569.55C575.254 240.637 581.705 220.582 577.618 204.817C572.056 183.365 558.181 77.3959 556.829 67.0225C556.763 66.5115 556.337 66.2051 555.822 66.2051C555.312 66.2051 554.891 66.5032 554.818 67.0079C553.333 77.2954 537.97 183.355 532.406 204.817C528.318 220.582 534.769 240.637 540.474 252.587H520.003C525.707 240.637 532.158 220.582 528.071 204.817C522.509 183.365 508.634 77.3959 507.282 67.0226C507.215 66.5116 506.79 66.2051 506.275 66.2051C505.765 66.2051 505.343 66.5032 505.271 67.0079C503.786 77.2955 488.423 183.355 482.858 204.817C478.771 220.582 485.222 240.637 490.926 252.587H483.903C475.596 252.587 468.862 259.321 468.862 267.628C468.862 275.935 462.128 282.669 453.821 282.669H365.555C343.463 282.669 325.555 300.578 325.555 322.669V329.848C325.555 351.94 343.463 369.848 365.555 369.848H627.017C648.377 369.848 665.692 352.533 665.692 331.173C665.692 309.813 683.008 292.497 704.368 292.497H789.044C800.065 292.497 809 283.563 809 272.542C809 261.521 800.065 252.587 789.044 252.587H767.739ZM611.497 105.267C616.415 141.168 623.548 190.866 627.165 204.817C631.252 220.582 624.801 240.637 619.097 252.587H639.568C633.864 240.637 627.413 220.582 631.5 204.817C635.084 190.996 642.731 142.089 648.118 106.271L611.497 105.267Z" fill="#2249B3"></path>
<path fill-rule="evenodd" clip-rule="evenodd" d="M171.909 136.732C171.909 128.376 165.445 121.124 156.143 117.971C155.67 104.885 141.797 94.3223 124.612 94.3223C113.576 94.3223 103.801 98.7367 98.2831 105.358C96.5489 105.201 94.9723 105.043 93.238 105.043C83.621 105.043 75.1075 108.354 69.2741 113.556C66.5939 112.768 63.5985 112.453 60.603 112.453C45.9409 112.453 33.959 121.597 33.959 132.948L171.909 136.732Z" fill="#2249B3"></path>
<path d="M75.5996 166.327C83.2996 153.727 101.5 153.727 109.2 166.327C116.9 178.927 135.1 178.927 142.8 166.327C150.5 153.727 168.7 153.727 176.4 166.327C184.1 178.927 202.3 178.927 210 166.327C217.7 153.727 235.9 153.727 243.6 166.327C247.4 172.527 253.7 175.627 260.1 175.727" stroke="#005B9D" stroke-miterlimit="10" stroke-linecap="round"></path>
<path d="M598.195 352.058C605.895 339.458 624.095 339.458 631.795 352.058C639.495 364.658 657.695 364.658 665.395 352.058C673.095 339.458 691.295 339.458 698.995 352.058C706.695 364.658 724.895 364.658 732.595 352.058C740.295 339.458 758.495 339.458 766.195 352.058C769.995 358.258 776.295 361.358 782.695 361.458" stroke="#F6F6F6" stroke-miterlimit="10" stroke-linecap="round"></path>
<path d="M42.1328 543.261C49.8328 530.661 68.0328 530.661 75.7328 543.261C83.4328 555.861 101.633 555.861 109.333 543.261C117.033 530.661 135.233 530.661 142.933 543.261C150.633 555.861 168.833 555.861 176.533 543.261C184.233 530.661 202.433 530.661 210.133 543.261C213.933 549.461 220.233 552.561 226.633 552.661" stroke="#78D2EE" stroke-miterlimit="10" stroke-linecap="round"></path>
<path d="M654.832 544.132C676.504 565.133 499.997 565.477 400.214 565.477C294.25 565.477 263.58 544.874 206.27 515.617C148.959 486.359 275.757 503.976 414.973 518.27C554.19 532.563 633.159 523.132 654.832 544.132Z" fill="black" fill-opacity="0.16"></path>
<path d="M291.647 362.632C296.447 360.332 305.747 359.232 312.547 360.332L314.347 360.632C321.047 361.632 322.647 364.432 317.847 366.732L194.847 426.732C190.047 429.032 180.747 430.132 174.047 429.032L172.247 428.732C165.547 427.732 163.947 424.932 168.747 422.632L291.647 362.632Z" fill="white"></path>
<path d="M271.447 348.233C282.447 346.633 294.847 346.333 304.947 347.933L710.647 410.533C720.747 412.133 726.447 415.133 727.047 418.533C725.747 416.633 722.047 414.933 716.047 414.033L291.147 348.533C285.247 347.533 278.147 347.533 271.447 348.233Z" fill="#4D4D4F"></path>
<path d="M124.348 429.832L549.248 495.332C555.248 496.232 562.248 496.232 568.948 495.532C557.948 497.232 545.548 497.432 535.448 495.832L129.748 433.232C119.648 431.632 113.948 428.632 113.348 425.232C114.648 427.232 118.348 428.932 124.348 429.832Z" fill="#4D4D4F"></path>
<path d="M718.747 406.132L312.947 343.532C288.647 339.832 254.947 343.632 237.747 352.032L107.647 415.532C90.4466 423.932 96.1466 433.832 120.447 437.532L526.147 500.032C550.447 503.732 584.147 499.932 601.447 491.532L731.547 428.032C748.747 419.732 742.947 409.832 718.747 406.132ZM722.447 425.032L719.847 426.332L589.747 489.832L587.147 491.132C582.647 493.332 576.047 494.832 568.947 495.632C557.947 497.332 545.547 497.532 535.447 495.932L129.747 433.332C119.647 431.732 113.947 428.732 113.347 425.332C111.947 423.232 113.447 420.932 117.847 418.732L131.747 411.932L239.247 359.532L253.147 352.732C257.647 350.532 264.347 348.932 271.447 348.232C282.447 346.632 294.847 346.332 304.947 347.932L710.647 410.532C720.747 412.132 726.447 415.132 727.047 418.532C728.347 420.532 726.947 422.832 722.447 425.032Z" fill="#DEDEDE"></path>
<path d="M131.746 411.932L239.246 359.532L259.146 362.632C267.446 363.932 269.346 367.232 263.446 370.132L177.246 412.132C171.346 415.032 159.846 416.332 151.546 415.032L131.746 411.932ZM245.646 369.032C247.046 368.332 246.646 367.532 244.546 367.232C242.546 366.932 239.646 367.232 238.246 367.932C236.746 368.632 237.246 369.432 239.346 369.732C241.346 370.032 244.146 369.732 245.646 369.032ZM230.346 376.432C231.746 375.732 231.346 374.932 229.246 374.632C227.246 374.332 224.346 374.632 222.946 375.332C221.546 376.032 221.946 376.832 224.046 377.132C226.046 377.432 228.846 377.132 230.346 376.432Z" fill="#4D4D4F"></path>
<path d="M239.347 369.733C241.347 370.033 244.247 369.733 245.647 369.033C247.047 368.333 246.647 367.533 244.547 367.233C242.547 366.933 239.647 367.233 238.247 367.933C236.747 368.533 237.247 369.433 239.347 369.733Z" fill="white"></path>
<path d="M222.948 375.332C224.348 374.632 227.248 374.332 229.248 374.632C231.248 374.932 231.748 375.732 230.348 376.432C228.948 377.132 226.048 377.432 224.048 377.132C221.948 376.832 221.548 376.032 222.948 375.332Z" fill="white"></path>
<path d="M271.446 348.232C278.146 347.532 285.246 347.532 291.146 348.432L716.046 413.932C722.046 414.832 725.746 416.532 727.046 418.432C728.346 420.532 726.946 422.832 722.546 425.032L719.946 426.332L589.846 489.832L587.246 491.132C582.746 493.332 576.146 494.832 569.046 495.632C562.346 496.332 555.246 496.332 549.346 495.432L124.446 429.932C118.446 429.032 114.746 427.332 113.446 425.432C112.046 423.332 113.546 421.032 117.946 418.832L131.846 412.032L151.746 415.132C160.046 416.432 171.546 415.132 177.446 412.232L263.646 370.232C269.546 367.332 267.546 364.032 259.346 362.732L239.446 359.632L253.346 352.832C257.646 350.532 264.346 348.932 271.446 348.232ZM314.346 360.532L312.546 360.232C305.846 359.232 296.446 360.232 291.646 362.532L168.646 422.532C163.846 424.832 165.446 427.632 172.146 428.632L173.946 428.932C180.646 429.932 190.046 428.932 194.746 426.632L317.746 366.632C322.646 364.332 321.046 361.532 314.346 360.532ZM658.746 446.732C659.946 446.132 659.546 445.432 657.846 445.132C656.146 444.832 653.646 445.132 652.446 445.732L615.246 463.832C614.046 464.432 614.446 465.132 616.146 465.432C617.946 465.732 620.346 465.432 621.546 464.832L658.746 446.732Z" fill="#2249B3"></path>
<path d="M741.546 420.032C741.446 419.232 741.446 418.432 741.346 417.732C741.546 420.032 740.046 421.932 738.546 423.432C737.346 424.532 736.046 425.532 734.646 426.332C733.846 426.832 719.146 434.032 715.246 435.932C709.546 438.732 703.846 441.432 698.146 444.232C691.346 447.532 684.546 450.832 677.746 454.132C670.646 457.632 663.446 461.132 656.346 464.532C649.546 467.832 642.746 471.132 635.946 474.532C630.146 477.332 624.346 480.232 618.546 483.032C614.446 485.032 610.446 487.032 606.346 489.032C605.146 489.632 604.046 490.132 602.846 490.732C602.546 490.832 601.546 491.132 601.346 491.432V491.532V491.432C600.846 491.732 600.246 491.932 599.746 492.232C591.646 495.832 582.746 497.832 573.946 499.232C565.346 500.632 556.646 501.332 547.946 501.332C540.246 501.432 532.646 500.932 525.046 499.732C522.746 499.332 520.446 499.032 518.146 498.632C514.046 498.032 509.846 497.332 505.746 496.732C499.946 495.832 494.246 494.932 488.446 494.032C481.246 492.932 474.146 491.832 466.946 490.732C458.646 489.432 450.346 488.132 442.046 486.932C432.746 485.532 423.546 484.032 414.246 482.632C404.346 481.132 394.446 479.532 384.546 478.032C374.146 476.432 363.746 474.832 353.246 473.232C342.646 471.632 332.146 469.932 321.546 468.332C310.946 466.732 300.346 465.032 289.746 463.432C279.446 461.832 269.046 460.232 258.746 458.632C248.946 457.132 239.046 455.632 229.246 454.032C220.046 452.632 210.846 451.232 201.746 449.832C193.546 448.532 185.346 447.332 177.246 446.032C170.246 444.932 163.146 443.832 156.146 442.732C150.546 441.832 144.946 441.032 139.346 440.132C135.346 439.532 131.446 438.932 127.446 438.332C125.346 438.032 115.146 436.332 113.346 435.832C110.046 435.032 106.746 434.032 103.746 432.432C101.146 431.033 97.9461 428.832 97.7461 425.533C98.0461 428.932 98.2461 432.332 98.4461 435.832C98.6461 438.232 98.7461 440.633 98.9461 442.932C99.0461 444.133 99.1461 445.232 99.6461 446.232C100.746 448.232 102.846 449.732 104.746 450.732C108.046 452.532 111.746 453.633 115.346 454.432C117.546 454.932 119.846 455.333 122.146 455.732C124.046 456.032 125.846 456.332 127.746 456.632C131.546 457.232 135.446 457.833 139.246 458.432C144.746 459.332 150.246 460.132 155.846 461.032C162.846 462.133 169.946 463.232 176.946 464.332C185.146 465.632 193.346 466.832 201.546 468.132C210.746 469.532 219.946 470.932 229.246 472.432C239.246 473.932 249.146 475.532 259.146 477.032C269.546 478.632 280.046 480.232 290.446 481.832C301.146 483.532 311.846 485.132 322.646 486.832C333.346 488.532 344.146 490.132 354.846 491.832C365.346 493.432 375.846 495.032 386.246 496.632C396.346 498.232 406.346 499.732 416.446 501.332C425.746 502.732 435.046 504.232 444.346 505.632C452.746 506.932 461.046 508.232 469.446 509.532C476.646 510.632 483.746 511.732 490.946 512.832C496.646 513.732 502.346 514.632 508.046 515.432C512.146 516.032 516.146 516.732 520.246 517.332C522.346 517.632 532.646 519.132 533.646 519.232C542.046 520.032 550.546 520.032 559.046 519.532C566.146 519.032 576.168 518.55 581.646 517.032C599.822 511.997 644.546 489.532 650.646 486.532C657.246 483.332 663.946 480.032 670.546 476.832C677.046 473.632 683.646 470.432 690.146 467.232C696.046 464.332 701.946 461.432 707.846 458.532C712.546 456.232 717.246 453.932 721.946 451.632C724.846 450.232 727.746 448.832 730.646 447.432C734.246 445.732 737.946 443.932 740.546 440.932C741.746 439.632 742.646 437.932 742.546 436.132C742.346 430.932 741.946 425.432 741.546 420.032Z" fill="white"></path>
<path d="M454.077 379.476C454.271 377.833 451.84 376.33 447.147 375.632L358.247 361.932C350.847 360.832 340.547 361.932 335.247 364.532L213.947 423.632C211.827 424.633 210.861 425.727 210.917 426.753C210.907 426.842 210.912 426.929 210.917 427.017C210.907 427.106 210.912 427.194 210.917 427.282C210.907 427.37 210.912 427.458 210.917 427.546C210.907 427.635 210.912 427.722 210.917 427.81C210.907 427.899 210.912 427.986 210.917 428.074C210.907 428.163 210.912 428.251 210.917 428.339C210.907 428.428 210.912 428.515 210.917 428.603C210.907 428.692 210.912 428.779 210.917 428.867C210.907 428.956 210.912 429.044 210.917 429.132C210.907 429.22 210.912 429.308 210.917 429.396C210.907 429.485 210.912 429.572 210.917 429.66C210.907 429.749 210.912 429.836 210.917 429.924C210.907 430.013 210.912 430.101 210.917 430.189C210.907 430.277 210.912 430.365 210.917 430.453C210.907 430.542 210.912 430.629 210.917 430.717C210.907 430.806 210.912 430.894 210.917 430.981C210.907 431.07 210.912 431.158 210.917 431.246C210.907 431.335 210.912 431.422 210.917 431.51C210.907 431.599 210.912 431.686 210.917 431.774C210.907 431.863 210.912 431.951 210.917 432.039C210.722 433.682 213.153 435.185 217.847 435.882L306.747 449.582C314.147 450.682 324.447 449.582 329.747 446.982L451.047 387.882C453.167 386.882 454.133 385.788 454.077 384.762C454.087 384.673 454.081 384.586 454.077 384.498C454.087 384.409 454.081 384.321 454.077 384.233C454.087 384.145 454.081 384.057 454.077 383.969C454.087 383.88 454.081 383.793 454.077 383.705C454.087 383.616 454.081 383.528 454.077 383.44C454.087 383.352 454.081 383.264 454.077 383.176C454.087 383.087 454.081 383 454.077 382.912C454.087 382.823 454.081 382.736 454.077 382.648C454.087 382.559 454.081 382.471 454.077 382.383C454.087 382.295 454.081 382.207 454.077 382.119C454.087 382.03 454.081 381.943 454.077 381.855C454.087 381.766 454.081 381.678 454.077 381.591C454.087 381.502 454.081 381.414 454.077 381.326C454.087 381.237 454.081 381.15 454.077 381.062C454.087 380.973 454.081 380.886 454.077 380.798C454.087 380.709 454.081 380.621 454.077 380.533C454.087 380.445 454.081 380.357 454.077 380.269C454.087 380.18 454.081 380.093 454.077 380.005C454.087 379.916 454.081 379.828 454.077 379.741C454.087 379.652 454.081 379.564 454.077 379.476Z" fill="#3C474E"></path>
<path d="M335.247 364.532C340.547 361.932 350.847 360.832 358.247 361.932L447.147 375.632C454.547 376.732 456.347 379.832 451.047 382.332L329.747 441.432C324.447 444.033 314.147 445.132 306.747 444.033L217.847 430.332C210.447 429.232 208.647 426.132 213.947 423.632L335.247 364.532Z" fill="#FF7373"></path>
<path d="M378.344 443.001C378.492 441.805 376.762 440.738 373.347 440.232L361.747 438.432C356.447 437.632 348.947 438.432 345.147 440.332L336.847 444.332C335.322 445.095 334.615 445.905 334.649 446.654C334.641 446.718 334.646 446.781 334.649 446.844C334.641 446.909 334.646 446.972 334.649 447.035C334.641 447.099 334.646 447.162 334.649 447.225C334.641 447.289 334.646 447.352 334.649 447.415C334.641 447.48 334.646 447.543 334.649 447.606C334.641 447.67 334.646 447.733 334.649 447.796C334.641 447.86 334.646 447.923 334.649 447.986C334.641 448.051 334.646 448.114 334.649 448.177C334.641 448.241 334.646 448.304 334.649 448.367C334.641 448.431 334.646 448.494 334.649 448.557C334.641 448.622 334.646 448.684 334.649 448.748C334.641 448.812 334.646 448.875 334.649 448.938C334.641 449.002 334.646 449.065 334.649 449.128C334.641 449.192 334.646 449.255 334.649 449.319C334.641 449.383 334.646 449.446 334.649 449.509C334.641 449.573 334.646 449.636 334.649 449.699C334.641 449.763 334.646 449.826 334.649 449.89C334.641 449.954 334.646 450.017 334.649 450.08C334.641 450.144 334.646 450.207 334.649 450.27C334.641 450.334 334.646 450.397 334.649 450.461C334.641 450.525 334.646 450.588 334.649 450.651C334.641 450.715 334.646 450.778 334.649 450.841C334.641 450.905 334.646 450.968 334.649 451.032C334.641 451.096 334.646 451.159 334.649 451.222C334.641 451.286 334.646 451.349 334.649 451.412C334.641 451.476 334.646 451.539 334.649 451.603C334.641 451.667 334.646 451.73 334.649 451.793C334.641 451.857 334.646 451.92 334.649 451.983C334.641 452.047 334.646 452.11 334.649 452.174C334.641 452.238 334.646 452.301 334.649 452.364C334.502 453.56 336.231 454.626 339.647 455.132L351.247 456.932C356.547 457.732 364.047 456.932 367.847 455.032L376.147 451.032C377.672 450.27 378.378 449.46 378.344 448.711C378.352 448.646 378.347 448.584 378.344 448.52C378.352 448.456 378.347 448.393 378.344 448.33C378.352 448.266 378.347 448.203 378.344 448.14C378.352 448.076 378.347 448.013 378.344 447.949C378.352 447.885 378.347 447.822 378.344 447.759C378.352 447.695 378.347 447.632 378.344 447.569C378.352 447.505 378.347 447.442 378.344 447.378C378.352 447.314 378.347 447.251 378.344 447.188C378.352 447.124 378.347 447.061 378.344 446.998C378.352 446.934 378.347 446.871 378.344 446.807C378.352 446.743 378.347 446.68 378.344 446.617C378.352 446.553 378.347 446.49 378.344 446.427C378.352 446.363 378.347 446.3 378.344 446.236C378.352 446.172 378.347 446.109 378.344 446.046C378.352 445.982 378.347 445.919 378.344 445.856C378.352 445.792 378.347 445.729 378.344 445.665C378.352 445.601 378.347 445.538 378.344 445.475C378.352 445.411 378.347 445.348 378.344 445.285C378.352 445.221 378.347 445.158 378.344 445.094C378.352 445.03 378.347 444.967 378.344 444.904C378.352 444.84 378.347 444.777 378.344 444.714C378.352 444.65 378.347 444.587 378.344 444.523C378.352 444.459 378.347 444.396 378.344 444.333C378.352 444.269 378.347 444.206 378.344 444.143C378.352 444.079 378.347 444.016 378.344 443.952C378.352 443.888 378.347 443.825 378.344 443.762C378.352 443.698 378.347 443.635 378.344 443.572C378.352 443.508 378.347 443.445 378.344 443.381C378.352 443.317 378.347 443.254 378.344 443.191C378.352 443.127 378.347 443.064 378.344 443.001Z" fill="#3C474E"></path>
<path d="M345.147 440.332C348.947 438.432 356.447 437.632 361.747 438.432L373.347 440.232C378.747 441.032 379.947 443.232 376.147 445.132L367.847 449.132C364.047 451.032 356.547 451.832 351.247 451.032L339.647 449.232C334.247 448.432 333.047 446.232 336.847 444.332L345.147 440.332Z" fill="white"></path>
<path d="M497.694 384.901C497.841 383.705 496.112 382.638 492.696 382.132L481.096 380.332C475.796 379.532 468.296 380.332 464.496 382.232L456.196 386.232C454.671 386.995 453.965 387.805 453.999 388.554C453.991 388.618 453.996 388.681 453.999 388.744C453.991 388.808 453.996 388.871 453.999 388.935C453.991 388.999 453.996 389.062 453.999 389.125C453.991 389.189 453.996 389.252 453.999 389.315C453.991 389.379 453.996 389.442 453.999 389.506C453.991 389.57 453.996 389.633 453.999 389.696C453.991 389.76 453.996 389.823 453.999 389.886C453.991 389.95 453.996 390.013 453.999 390.077C453.991 390.141 453.996 390.204 453.999 390.267C453.991 390.331 453.996 390.394 453.999 390.457C453.991 390.521 453.996 390.584 453.999 390.648C453.991 390.712 453.996 390.775 453.999 390.838C453.991 390.902 453.996 390.965 453.999 391.028C453.991 391.092 453.996 391.155 453.999 391.219C453.991 391.283 453.996 391.346 453.999 391.409C453.991 391.473 453.996 391.536 453.999 391.599C453.991 391.663 453.996 391.726 453.999 391.79C453.991 391.854 453.996 391.917 453.999 391.98C453.991 392.044 453.996 392.107 453.999 392.17C453.991 392.234 453.996 392.297 453.999 392.361C453.991 392.425 453.996 392.488 453.999 392.551C453.991 392.615 453.996 392.678 453.999 392.741C453.991 392.805 453.996 392.868 453.999 392.932C453.991 392.996 453.996 393.059 453.999 393.122C453.991 393.186 453.996 393.249 453.999 393.312C453.991 393.376 453.996 393.439 453.999 393.503C453.991 393.567 453.996 393.63 453.999 393.693C453.991 393.757 453.996 393.82 453.999 393.883C453.991 393.947 453.996 394.01 453.999 394.074C453.991 394.138 453.996 394.201 453.999 394.264C453.851 395.46 455.581 396.526 458.996 397.032L470.596 398.832C475.896 399.632 483.396 398.832 487.196 396.932L495.496 392.932C497.022 392.17 497.728 391.36 497.694 390.61C497.702 390.546 497.697 390.483 497.694 390.42C497.702 390.356 497.697 390.293 497.694 390.23C497.702 390.166 497.697 390.103 497.694 390.04C497.702 389.975 497.697 389.912 497.694 389.849C497.702 389.785 497.697 389.722 497.694 389.659C497.702 389.595 497.697 389.532 497.694 389.469C497.702 389.404 497.697 389.342 497.694 389.278C497.702 389.214 497.697 389.151 497.694 389.088C497.702 389.024 497.697 388.961 497.694 388.898C497.702 388.834 497.697 388.77 497.694 388.707C497.702 388.643 497.697 388.58 497.694 388.517C497.702 388.453 497.697 388.39 497.694 388.327C497.702 388.262 497.697 388.2 497.694 388.136C497.702 388.072 497.697 388.009 497.694 387.946C497.702 387.882 497.697 387.819 497.694 387.756C497.702 387.692 497.697 387.629 497.694 387.565C497.702 387.501 497.697 387.438 497.694 387.375C497.702 387.311 497.697 387.248 497.694 387.185C497.702 387.121 497.697 387.058 497.694 386.994C497.702 386.93 497.697 386.867 497.694 386.804C497.702 386.74 497.697 386.677 497.694 386.614C497.702 386.55 497.697 386.487 497.694 386.423C497.702 386.359 497.697 386.296 497.694 386.233C497.702 386.169 497.697 386.106 497.694 386.043C497.702 385.979 497.697 385.916 497.694 385.852C497.702 385.788 497.697 385.725 497.694 385.662C497.702 385.598 497.697 385.535 497.694 385.472C497.702 385.408 497.697 385.345 497.694 385.281C497.702 385.217 497.697 385.154 497.694 385.091C497.702 385.027 497.697 384.964 497.694 384.901Z" fill="#3C474E"></path>
<path d="M464.496 382.232C468.296 380.332 475.796 379.532 481.096 380.332L492.696 382.132C498.096 382.932 499.296 385.132 495.496 387.032L487.196 391.032C483.396 392.932 475.896 393.732 470.596 392.932L458.996 391.132C453.596 390.332 452.396 388.132 456.196 386.232L464.496 382.232Z" fill="white"></path>
<path d="M468.944 399.101C469.091 397.905 467.362 396.838 463.946 396.332L452.346 394.532C447.046 393.732 439.546 394.532 435.746 396.432L427.446 400.432C425.921 401.195 425.215 402.005 425.249 402.754C425.241 402.818 425.246 402.881 425.249 402.945C425.241 403.009 425.246 403.072 425.249 403.135C425.241 403.199 425.246 403.262 425.249 403.325C425.241 403.389 425.246 403.452 425.249 403.516C425.241 403.58 425.246 403.643 425.249 403.706C425.241 403.77 425.246 403.833 425.249 403.896C425.241 403.96 425.246 404.023 425.249 404.087C425.241 404.151 425.246 404.214 425.249 404.277C425.241 404.341 425.246 404.404 425.249 404.467C425.241 404.531 425.246 404.594 425.249 404.658C425.241 404.722 425.246 404.785 425.249 404.848C425.241 404.912 425.246 404.975 425.249 405.038C425.241 405.102 425.246 405.165 425.249 405.229C425.241 405.293 425.246 405.356 425.249 405.419C425.241 405.483 425.246 405.546 425.249 405.609C425.241 405.673 425.246 405.736 425.249 405.799C425.241 405.864 425.246 405.927 425.249 405.99C425.241 406.054 425.246 406.117 425.249 406.18C425.241 406.244 425.246 406.307 425.249 406.37C425.241 406.435 425.246 406.498 425.249 406.561C425.241 406.625 425.246 406.688 425.249 406.751C425.241 406.815 425.246 406.878 425.249 406.941C425.241 407.006 425.246 407.069 425.249 407.132C425.241 407.196 425.246 407.259 425.249 407.322C425.241 407.386 425.246 407.449 425.249 407.512C425.241 407.576 425.246 407.639 425.249 407.703C425.241 407.767 425.246 407.83 425.249 407.893C425.241 407.957 425.246 408.02 425.249 408.083C425.241 408.147 425.246 408.21 425.249 408.274C425.241 408.338 425.246 408.401 425.249 408.464C425.101 409.66 426.831 410.727 430.246 411.232L441.846 413.032C447.146 413.833 454.646 413.032 458.446 411.133L466.746 407.133C468.272 406.37 468.978 405.56 468.944 404.811C468.952 404.747 468.947 404.684 468.944 404.62C468.952 404.556 468.947 404.493 468.944 404.43C468.952 404.366 468.947 404.303 468.944 404.24C468.952 404.176 468.947 404.113 468.944 404.049C468.952 403.985 468.947 403.922 468.944 403.859C468.952 403.795 468.947 403.732 468.944 403.669C468.952 403.605 468.947 403.542 468.944 403.478C468.952 403.414 468.947 403.351 468.944 403.288C468.952 403.224 468.947 403.161 468.944 403.098C468.952 403.034 468.947 402.971 468.944 402.907C468.952 402.843 468.947 402.78 468.944 402.717C468.952 402.653 468.947 402.59 468.944 402.527C468.952 402.463 468.947 402.4 468.944 402.336C468.952 402.272 468.947 402.209 468.944 402.146C468.952 402.082 468.947 402.019 468.944 401.956C468.952 401.892 468.947 401.829 468.944 401.765C468.952 401.701 468.947 401.638 468.944 401.575C468.952 401.511 468.947 401.448 468.944 401.385C468.952 401.321 468.947 401.258 468.944 401.195C468.952 401.13 468.947 401.067 468.944 401.004C468.952 400.94 468.947 400.877 468.944 400.814C468.952 400.75 468.947 400.687 468.944 400.624C468.952 400.559 468.947 400.497 468.944 400.433C468.952 400.369 468.947 400.306 468.944 400.243C468.952 400.179 468.947 400.116 468.944 400.053C468.952 399.988 468.947 399.925 468.944 399.862C468.952 399.798 468.947 399.735 468.944 399.672C468.952 399.608 468.947 399.545 468.944 399.482C468.952 399.417 468.947 399.355 468.944 399.291C468.952 399.227 468.947 399.164 468.944 399.101Z" fill="#3C474E"></path>
<path d="M435.746 396.432C439.546 394.532 447.046 393.732 452.346 394.532L463.946 396.332C469.346 397.132 470.546 399.332 466.746 401.232L458.446 405.232C454.646 407.132 447.146 407.932 441.846 407.132L430.246 405.332C424.846 404.532 423.646 402.332 427.446 400.432L435.746 396.432Z" fill="white"></path>
<path d="M517.471 463.801C517.619 462.605 515.889 461.539 512.474 461.033L500.874 459.233C495.574 458.433 488.074 459.233 484.274 461.133L475.974 465.133C474.449 465.895 473.742 466.705 473.776 467.454C473.768 467.519 473.773 467.582 473.776 467.645C473.768 467.709 473.773 467.772 473.776 467.835C473.768 467.899 473.773 467.962 473.776 468.025C473.768 468.09 473.773 468.153 473.776 468.216C473.768 468.28 473.773 468.343 473.776 468.406C473.768 468.47 473.773 468.533 473.776 468.596C473.768 468.66 473.773 468.723 473.776 468.787C473.768 468.851 473.773 468.914 473.776 468.977C473.768 469.041 473.773 469.104 473.776 469.167C473.768 469.231 473.773 469.294 473.776 469.358C473.768 469.422 473.773 469.485 473.776 469.548C473.768 469.612 473.773 469.675 473.776 469.738C473.768 469.802 473.773 469.865 473.776 469.929C473.768 469.993 473.773 470.056 473.776 470.119C473.768 470.183 473.773 470.246 473.776 470.309C473.768 470.373 473.773 470.436 473.776 470.5C473.768 470.564 473.773 470.627 473.776 470.69C473.768 470.754 473.773 470.817 473.776 470.88C473.768 470.944 473.773 471.007 473.776 471.071C473.768 471.135 473.773 471.198 473.776 471.261C473.768 471.325 473.773 471.388 473.776 471.451C473.768 471.515 473.773 471.578 473.776 471.642C473.768 471.706 473.773 471.769 473.776 471.832C473.768 471.896 473.773 471.959 473.776 472.022C473.768 472.086 473.773 472.149 473.776 472.213C473.768 472.277 473.773 472.34 473.776 472.403C473.768 472.467 473.773 472.53 473.776 472.593C473.768 472.657 473.773 472.72 473.776 472.784C473.768 472.848 473.773 472.911 473.776 472.974C473.768 473.038 473.773 473.101 473.776 473.164C473.629 474.36 475.358 475.427 478.774 475.933L490.374 477.733C495.674 478.533 503.174 477.733 506.974 475.833L515.274 471.833C516.799 471.07 517.505 470.26 517.471 469.511C517.479 469.447 517.474 469.384 517.471 469.321C517.479 469.256 517.474 469.193 517.471 469.13C517.479 469.066 517.474 469.003 517.471 468.94C517.479 468.876 517.474 468.813 517.471 468.75C517.479 468.685 517.474 468.622 517.471 468.559C517.479 468.495 517.474 468.432 517.471 468.369C517.479 468.305 517.474 468.242 517.471 468.179C517.479 468.114 517.474 468.051 517.471 467.988C517.479 467.924 517.474 467.861 517.471 467.798C517.479 467.734 517.474 467.671 517.471 467.608C517.479 467.543 517.474 467.481 517.471 467.417C517.479 467.353 517.474 467.29 517.471 467.227C517.479 467.163 517.474 467.1 517.471 467.037C517.479 466.973 517.474 466.91 517.471 466.846C517.479 466.782 517.474 466.719 517.471 466.656C517.479 466.592 517.474 466.529 517.471 466.466C517.479 466.402 517.474 466.339 517.471 466.275C517.479 466.211 517.474 466.148 517.471 466.085C517.479 466.021 517.474 465.958 517.471 465.895C517.479 465.831 517.474 465.768 517.471 465.704C517.479 465.64 517.474 465.577 517.471 465.514C517.479 465.45 517.474 465.387 517.471 465.324C517.479 465.26 517.474 465.197 517.471 465.133C517.479 465.069 517.474 465.006 517.471 464.943C517.479 464.879 517.474 464.816 517.471 464.753C517.479 464.689 517.474 464.626 517.471 464.562C517.479 464.498 517.474 464.435 517.471 464.372C517.479 464.308 517.474 464.245 517.471 464.182C517.479 464.118 517.474 464.055 517.471 463.991C517.479 463.927 517.474 463.864 517.471 463.801Z" fill="#3C474E"></path>
<path d="M484.274 461.133C488.074 459.233 495.574 458.433 500.874 459.233L512.474 461.033C517.874 461.833 519.074 464.033 515.274 465.933L506.974 469.933C503.174 471.833 495.674 472.633 490.374 471.833L478.774 470.033C473.374 469.233 472.174 467.033 475.974 465.133L484.274 461.133Z" fill="white"></path>
<path d="M635.643 406.101C635.791 404.905 634.061 403.838 630.646 403.332L619.046 401.532C613.746 400.732 606.246 401.532 602.446 403.432L594.146 407.432C592.62 408.195 591.914 409.005 591.948 409.754C591.94 409.818 591.945 409.881 591.948 409.945C591.94 410.009 591.945 410.072 591.948 410.135C591.94 410.199 591.945 410.262 591.948 410.325C591.94 410.389 591.945 410.452 591.948 410.516C591.94 410.58 591.945 410.643 591.948 410.706C591.94 410.77 591.945 410.833 591.948 410.896C591.94 410.96 591.945 411.023 591.948 411.087C591.94 411.151 591.945 411.214 591.948 411.277C591.94 411.341 591.945 411.404 591.948 411.467C591.94 411.531 591.945 411.594 591.948 411.658C591.94 411.722 591.945 411.785 591.948 411.848C591.94 411.912 591.945 411.975 591.948 412.038C591.94 412.102 591.945 412.165 591.948 412.229C591.94 412.293 591.945 412.356 591.948 412.419C591.94 412.483 591.945 412.546 591.948 412.609C591.94 412.673 591.945 412.736 591.948 412.799C591.94 412.864 591.945 412.927 591.948 412.99C591.94 413.054 591.945 413.117 591.948 413.18C591.94 413.244 591.945 413.307 591.948 413.37C591.94 413.435 591.945 413.498 591.948 413.561C591.94 413.625 591.945 413.688 591.948 413.751C591.94 413.815 591.945 413.878 591.948 413.941C591.94 414.006 591.945 414.069 591.948 414.132C591.94 414.196 591.945 414.259 591.948 414.322C591.94 414.386 591.945 414.449 591.948 414.512C591.94 414.576 591.945 414.639 591.948 414.703C591.94 414.767 591.945 414.83 591.948 414.893C591.94 414.957 591.945 415.02 591.948 415.083C591.94 415.147 591.945 415.21 591.948 415.274C591.94 415.338 591.945 415.401 591.948 415.464C591.801 416.66 593.53 417.727 596.946 418.232L608.546 420.032C613.846 420.833 621.346 420.032 625.146 418.133L633.446 414.133C634.971 413.37 635.677 412.56 635.643 411.811C635.651 411.747 635.646 411.684 635.643 411.62C635.651 411.556 635.646 411.493 635.643 411.43C635.651 411.366 635.646 411.303 635.643 411.24C635.651 411.176 635.646 411.113 635.643 411.049C635.651 410.985 635.646 410.922 635.643 410.859C635.651 410.795 635.646 410.732 635.643 410.669C635.651 410.605 635.646 410.542 635.643 410.478C635.651 410.414 635.646 410.351 635.643 410.288C635.651 410.224 635.646 410.161 635.643 410.098C635.651 410.034 635.646 409.971 635.643 409.907C635.651 409.843 635.646 409.78 635.643 409.717C635.651 409.653 635.646 409.59 635.643 409.527C635.651 409.463 635.646 409.4 635.643 409.336C635.651 409.272 635.646 409.209 635.643 409.146C635.651 409.082 635.646 409.019 635.643 408.956C635.651 408.892 635.646 408.829 635.643 408.765C635.651 408.701 635.646 408.638 635.643 408.575C635.651 408.511 635.646 408.448 635.643 408.385C635.651 408.321 635.646 408.258 635.643 408.195C635.651 408.13 635.646 408.067 635.643 408.004C635.651 407.94 635.646 407.877 635.643 407.814C635.651 407.75 635.646 407.687 635.643 407.624C635.651 407.559 635.646 407.497 635.643 407.433C635.651 407.369 635.646 407.306 635.643 407.243C635.651 407.179 635.646 407.116 635.643 407.053C635.651 406.988 635.646 406.925 635.643 406.862C635.651 406.798 635.646 406.735 635.643 406.672C635.651 406.608 635.646 406.545 635.643 406.482C635.651 406.417 635.646 406.355 635.643 406.291C635.651 406.227 635.646 406.164 635.643 406.101Z" fill="#3C474E"></path>
<path d="M602.446 403.432C606.246 401.532 613.746 400.732 619.046 401.532L630.646 403.332C636.046 404.132 637.246 406.332 633.446 408.232L625.146 412.232C621.346 414.132 613.846 414.932 608.546 414.132L596.946 412.332C591.546 411.532 590.346 409.332 594.146 407.432L602.446 403.432Z" fill="white"></path>
<path d="M606.995 420.551C607.142 419.355 605.413 418.288 601.997 417.782L590.397 415.982C585.097 415.182 577.597 415.982 573.797 417.882L565.497 421.882C563.972 422.645 563.266 423.455 563.3 424.204C563.292 424.268 563.297 424.331 563.3 424.394C563.292 424.458 563.297 424.521 563.3 424.585C563.292 424.649 563.297 424.712 563.3 424.775C563.292 424.839 563.297 424.902 563.3 424.965C563.292 425.029 563.297 425.092 563.3 425.156C563.292 425.22 563.297 425.283 563.3 425.346C563.292 425.41 563.297 425.473 563.3 425.536C563.292 425.6 563.297 425.663 563.3 425.727C563.292 425.791 563.297 425.854 563.3 425.917C563.292 425.981 563.297 426.044 563.3 426.107C563.292 426.171 563.297 426.234 563.3 426.298C563.292 426.362 563.297 426.425 563.3 426.488C563.292 426.552 563.297 426.615 563.3 426.678C563.292 426.742 563.297 426.805 563.3 426.869C563.292 426.933 563.297 426.996 563.3 427.059C563.292 427.123 563.297 427.186 563.3 427.249C563.292 427.313 563.297 427.376 563.3 427.439C563.292 427.504 563.297 427.567 563.3 427.63C563.292 427.694 563.297 427.757 563.3 427.82C563.292 427.884 563.297 427.947 563.3 428.01C563.292 428.075 563.297 428.138 563.3 428.201C563.292 428.265 563.297 428.328 563.3 428.391C563.292 428.455 563.297 428.518 563.3 428.581C563.292 428.646 563.297 428.709 563.3 428.772C563.292 428.836 563.297 428.899 563.3 428.962C563.292 429.026 563.297 429.089 563.3 429.152C563.292 429.217 563.297 429.279 563.3 429.343C563.292 429.407 563.297 429.47 563.3 429.533C563.292 429.597 563.297 429.66 563.3 429.723C563.292 429.787 563.297 429.85 563.3 429.914C563.152 431.11 564.882 432.176 568.297 432.682L579.897 434.482C585.197 435.282 592.697 434.482 596.497 432.582L604.797 428.582C606.322 427.82 607.029 427.01 606.995 426.26C607.003 426.196 606.998 426.133 606.995 426.07C607.003 426.006 606.998 425.943 606.995 425.88C607.003 425.816 606.998 425.753 606.995 425.689C607.003 425.625 606.998 425.562 606.995 425.499C607.003 425.435 606.998 425.372 606.995 425.309C607.003 425.245 606.998 425.182 606.995 425.118C607.003 425.054 606.998 424.991 606.995 424.928C607.003 424.864 606.998 424.801 606.995 424.738C607.003 424.674 606.998 424.611 606.995 424.547C607.003 424.483 606.998 424.42 606.995 424.357C607.003 424.293 606.998 424.23 606.995 424.167C607.003 424.103 606.998 424.04 606.995 423.976C607.003 423.912 606.998 423.849 606.995 423.786C607.003 423.722 606.998 423.659 606.995 423.596C607.003 423.532 606.998 423.469 606.995 423.406C607.003 423.341 606.998 423.278 606.995 423.215C607.003 423.151 606.998 423.088 606.995 423.025C607.003 422.961 606.998 422.898 606.995 422.835C607.003 422.77 606.998 422.708 606.995 422.644C607.003 422.58 606.998 422.517 606.995 422.454C607.003 422.39 606.998 422.327 606.995 422.264C607.003 422.2 606.998 422.136 606.995 422.073C607.003 422.009 606.998 421.946 606.995 421.883C607.003 421.819 606.998 421.756 606.995 421.693C607.003 421.628 606.998 421.566 606.995 421.502C607.003 421.438 606.998 421.375 606.995 421.312C607.003 421.248 606.998 421.185 606.995 421.122C607.003 421.058 606.998 420.995 606.995 420.931C607.003 420.867 606.998 420.804 606.995 420.741C607.003 420.677 606.998 420.614 606.995 420.551Z" fill="#3C474E"></path>
<path d="M573.797 417.882C577.597 415.982 585.097 415.182 590.397 415.982L601.997 417.782C607.397 418.582 608.597 420.782 604.797 422.682L596.497 426.682C592.697 428.582 585.197 429.382 579.897 428.582L568.297 426.782C562.897 425.982 561.697 423.782 565.497 421.882L573.797 417.882Z" fill="white"></path>
<path d="M594.751 398.887L595.147 398.694L527.747 388.294C520.347 387.194 510.047 388.294 504.747 390.894L383.447 450.094C381.332 451.092 380.366 452.184 380.417 453.207C380.407 453.293 380.413 453.377 380.417 453.462C380.407 453.547 380.413 453.631 380.417 453.716C380.407 453.801 380.413 453.885 380.417 453.97C380.407 454.055 380.413 454.14 380.417 454.224C380.407 454.31 380.413 454.394 380.417 454.478C380.407 454.564 380.413 454.648 380.417 454.733C380.407 454.818 380.413 454.902 380.417 454.987C380.407 455.072 380.413 455.156 380.417 455.241C380.407 455.326 380.413 455.41 380.417 455.495C380.407 455.58 380.413 455.665 380.417 455.749C380.407 455.835 380.413 455.919 380.417 456.003C380.407 456.089 380.413 456.173 380.417 456.258C380.407 456.343 380.413 456.427 380.417 456.512C380.407 456.597 380.413 456.681 380.417 456.766C380.407 456.851 380.413 456.936 380.417 457.02C380.407 457.106 380.413 457.19 380.417 457.274C380.407 457.36 380.413 457.444 380.417 457.529C380.407 457.614 380.413 457.698 380.417 457.783C380.407 457.868 380.413 457.952 380.417 458.037C380.407 458.122 380.413 458.207 380.417 458.291C380.225 459.933 382.656 461.435 387.347 462.132L454.747 472.532L595.147 404.032L594.751 403.971L595.147 403.778L594.751 403.717L595.147 403.524L594.751 403.463L595.147 403.27L594.751 403.209L595.147 403.015L594.751 402.954L595.147 402.761L594.751 402.7L595.147 402.507L594.751 402.446L595.147 402.253L594.751 402.192L595.147 401.999L594.751 401.938L595.147 401.744L594.751 401.683L595.147 401.49L594.751 401.429L595.147 401.236L594.751 401.175L595.147 400.982L594.751 400.921L595.147 400.728L594.751 400.667L595.147 400.473L594.751 400.412L595.147 400.219L594.751 400.158L595.147 399.965L594.751 399.904L595.147 399.711L594.751 399.65L595.147 399.457L594.751 399.396L595.147 399.202L594.751 399.141L595.147 398.948L594.751 398.887Z" fill="#3C474E"></path>
<path d="M504.747 390.633C510.047 388.033 520.347 386.933 527.747 388.033L595.147 398.433L454.747 466.933L387.347 456.533C379.947 455.433 378.147 452.333 383.447 449.833L504.747 390.633Z" fill="#FF7373"></path>
<path d="M677.946 414.532L655.846 425.332L624.746 420.532L625.146 426.232L656.246 431.032L678.246 420.332L677.946 414.532Z" fill="#3C474E"></path>
<path d="M646.846 409.732L677.946 414.532L655.846 425.332L624.746 420.532L646.846 409.732Z" fill="white"></path>
<path d="M641.946 432.133L619.846 442.833L588.746 438.133L589.146 443.833L620.246 448.633L642.346 437.833L641.946 432.133Z" fill="#3C474E"></path>
<path d="M610.846 427.333L641.946 432.133L619.846 442.833L588.746 438.133L610.846 427.333Z" fill="white"></path>
<path d="M606.048 449.633L583.948 460.432L552.848 455.633L553.248 461.333L584.348 466.133L606.348 455.333L606.048 449.633Z" fill="#3C474E"></path>
<path d="M574.948 444.833L606.048 449.633L583.948 460.433L552.848 455.633L574.948 444.833Z" fill="white"></path>
<path d="M570.048 467.233L547.948 477.933L516.848 473.133L517.248 478.833L548.348 483.633L570.448 472.933L570.048 467.233Z" fill="#3C474E"></path>
<path d="M538.948 462.433L570.048 467.233L547.948 477.933L516.848 473.133L538.948 462.433Z" fill="white"></path>
<path d="M480.148 129.732C479.848 131.932 479.048 133.832 478.048 135.132C477.548 135.832 476.948 136.432 476.248 136.732C475.748 136.932 475.248 137.032 474.848 137.032C472.648 136.632 471.348 132.832 472.048 128.532C472.448 125.932 473.448 123.732 474.648 122.432C475.348 121.732 476.048 121.332 476.748 121.232C476.948 121.232 477.048 121.232 477.248 121.232C479.648 121.532 480.847 125.332 480.148 129.732Z" fill="#2249B3"></path>
<path fill-rule="evenodd" clip-rule="evenodd" d="M478.147 135.132C477.647 135.832 477.047 136.432 476.347 136.732C475.377 137.148 474.391 138.733 473.891 137.933L473.447 125.132C473.547 124.632 473.747 124.132 473.947 123.732L474.847 122.432C475.547 121.732 476.247 121.332 476.947 121.232C476.847 123.132 477.247 125.632 477.547 128.132C477.747 130.532 478.047 132.932 478.147 135.132Z" fill="black" fill-opacity="0.43"></path>
<path d="M328.576 407.975C320.22 404.975 316.345 403.949 322.248 402.219C325.403 401.201 349.122 394.215 358.893 390.795C364.473 388.842 391.112 391.592 381.573 397.687C370.581 404.71 350.902 415.991 328.576 407.975Z" fill="black" fill-opacity="0.1"></path>
<path d="M509.613 421.583C501.257 418.583 497.382 417.557 503.285 415.827C506.441 414.809 530.159 407.823 539.93 404.403C545.51 402.45 572.149 405.2 562.61 411.295C551.618 418.317 531.939 429.599 509.613 421.583Z" fill="black" fill-opacity="0.1"></path>
<path d="M374.948 392.132C367.748 396.732 362.448 398.832 353.648 402.832C344.848 406.832 330.848 406.032 320.148 404.532C318.948 404.332 315.748 400.132 316.848 397.632C316.948 398.732 319.248 399.632 319.848 399.732C330.248 401.132 345.048 402.332 353.948 398.332C362.848 394.332 367.848 392.432 375.548 387.832C375.448 388.832 376.048 389.332 375.948 390.232C375.748 391.132 376.148 391.332 374.948 392.132Z" fill="#B0C1E1"></path>
<path d="M375.448 387.832C375.34 387.801 375.235 387.767 375.128 387.735C375.134 387.734 375.142 387.733 375.148 387.732C374.948 384.132 374.648 380.632 374.348 376.832C373.988 372.965 373.871 368.693 373.851 364.599C373.847 363.822 373.257 363.175 372.484 363.103C365.101 362.409 357.718 361.852 350.335 361.08C349.566 361 348.858 361.516 348.707 362.274C346.608 372.845 341.128 374.266 330.848 377.532C330.572 377.621 330.348 377.713 330.153 377.806C328.771 377.622 327.28 377.494 325.648 377.432C316.748 377.132 313.048 398.332 318.248 399.432C335.287 403.02 340.908 402.437 354.403 398.673C354.494 398.647 354.58 398.615 354.665 398.573C356.04 397.896 368.943 391.697 375.448 387.832Z" fill="#2249B3"></path>
<path d="M342.648 371.332C348.648 371.132 352.648 373.632 356.648 377.832" stroke="#78D2EE" stroke-width="4" stroke-miterlimit="10" stroke-linecap="round"></path>
<path d="M329.947 374.732C336.747 374.232 342.147 377.732 346.547 382.532" stroke="#78D2EE" stroke-width="4" stroke-miterlimit="10" stroke-linecap="round"></path>
<path d="M483.614 263.432L488.532 296.904C488.532 296.904 451.847 303.132 451.246 303.132C443.447 302.932 386.246 301.732 386.246 301.732C386.246 301.732 386.246 301.732 386.246 301.832C385.746 304.132 378.146 340.532 376.146 360.732L375.746 364.432C375.746 364.732 375.646 365.132 375.646 365.432L375.546 365.932C375.546 366.432 375.446 366.932 375.446 367.432C375.346 368.032 375.346 368.532 375.246 369.032L374.946 372.132V372.332V372.532L371.146 371.932L344.146 367.332C344.446 366.632 351.446 266.232 359.346 263.432C367.946 260.432 482.914 263.032 483.614 263.432Z" fill="#2249B3"></path>
<path d="M423.246 104.032C423.246 107.732 425.046 121.532 431.046 127.832C433.446 130.732 432.146 110.332 430.146 102.532C428.146 94.7322 423.246 100.332 423.246 104.032Z" fill="#A3D3EC"></path>
<path d="M454.046 298.332C453.146 299.932 452.246 301.532 451.446 303.132C443.646 302.932 386.446 301.732 386.446 301.732C386.446 301.732 386.446 301.732 386.446 301.832C385.946 304.132 378.346 340.532 376.346 360.732L375.946 364.432C375.946 364.732 375.846 365.132 375.846 365.432L375.746 365.932C375.746 366.432 375.646 366.932 375.646 367.432C375.546 368.032 375.546 368.532 375.446 369.032L375.146 372.132V372.332V372.532L344.117 367.432L344.453 365.113L371.948 367.432L380.846 300.932L375.646 293.532L384.546 297.832L375.346 281.032L392.046 298.032C392.046 298.032 451.846 290.932 457.446 287.832C457.746 287.732 457.946 287.632 458.046 287.632C459.546 287.332 457.146 292.632 454.046 298.332Z" fill="#06080A"></path>
<path d="M423.246 104.032C423.246 107.732 425.046 121.532 431.046 127.832C433.446 130.732 432.146 110.332 430.146 102.532C428.146 94.7322 423.246 100.332 423.246 104.032Z" fill="#B0C1E1"></path>
<path d="M468.947 98.8322C469.847 106.832 475.147 126.632 476.347 123.032C479.647 114.932 477.347 101.232 475.947 97.7322C474.647 94.3322 468.047 90.8322 468.947 98.8322Z" fill="#B0C1E1"></path>
<path d="M549.848 378.732C547.548 387.332 548.848 402.732 540.548 412.632C532.248 422.532 514.948 426.832 502.148 414.932C500.648 413.532 498.848 411.232 500.848 406.932C500.248 407.932 501.448 409.032 502.148 409.632C513.848 419.432 529.848 414.632 536.948 404.732C544.048 394.932 541.748 382.132 546.548 372.532C546.648 373.332 550.448 376.632 549.848 378.732Z" fill="#2249B3"></path>
<path d="M535.647 364.532C532.847 361.132 532.347 370.632 528.247 368.432C522.447 384.332 519.347 373.732 506.647 377.032C528.847 377.632 520.647 383.632 517.147 395.132C517.101 395.474 516.843 396.188 516.482 397.087C513.635 397.716 511.064 398.209 509.047 398.332C505.047 398.632 497.647 407.932 501.547 411.332C510.385 419.126 527.783 418.34 536.914 409.766C539.269 407.965 541.104 405.505 541.947 402.332C544.747 391.932 546.947 380.732 547.647 377.532C548.747 371.832 541.447 367.732 535.647 364.532Z" fill="#B0C1E1"></path>
<path d="M516.248 387.432L537.748 388.232" stroke="#005B9D" stroke-width="4" stroke-miterlimit="10" stroke-linecap="round"></path>
<path d="M513.049 394.532C513.049 394.532 523.849 395.432 528.949 396.432" stroke="#005B9D" stroke-width="4" stroke-miterlimit="10" stroke-linecap="round"></path>
<path d="M721.522 203.195C716.985 206.6 682.077 206.719 671.377 202.72C672.522 199.888 670.556 182.101 675.3 178.039C681.374 172.926 715.686 168.811 720.054 168.247C724.335 167.826 707.531 181.972 707.531 181.972C707.531 181.972 731.921 176.592 736.796 177.123C739.176 177.403 730.974 195.931 721.522 203.195Z" fill="#2249B3"></path>
<path d="M712.847 200.534C719.25 200.333 724.793 200.096 729.994 199.453" stroke="#FFE458" stroke-miterlimit="10" stroke-linecap="round"></path>
<path d="M714.62 194.752C717.865 194.58 731.049 193.722 734.584 193.236" stroke="#FFE458" stroke-miterlimit="10" stroke-linecap="round"></path>
<path d="M715.455 188.099C722.033 187.613 735.05 186.064 739.363 185.27" stroke="#FFE458" stroke-miterlimit="10" stroke-linecap="round"></path>
<path d="M201.142 183.467C205.758 183.278 228.118 187.691 228.118 187.691C228.118 187.691 219.438 175.675 223.441 176.492C227.12 177.332 254.318 180.437 259.194 186.246C263.219 190.977 252.513 213.782 252.513 213.782C252.513 213.782 214.803 208.903 211.076 204.969C203.262 196.878 199.16 183.716 201.142 183.467Z" fill="#2249B3"></path>
<path d="M220.206 195.967C217.206 195.567 205.206 194.367 201.906 194.267" stroke="#FFE458" stroke-miterlimit="10" stroke-linecap="round"></path>
<path d="M218.236 191.289C215.236 190.889 203.236 189.689 199.936 189.589" stroke="#FFE458" stroke-miterlimit="10" stroke-linecap="round"></path>
<path d="M220.207 201.65C214.107 201.05 208.658 200.704 204.758 200.804" stroke="#FFE458" stroke-miterlimit="10" stroke-linecap="round"></path>
<path fill-rule="evenodd" clip-rule="evenodd" d="M477.007 163.605C499.696 164.294 522.114 166.966 535.376 169.774C573.596 177.804 614.152 185.275 678.587 169.893L688.107 209.772C615.149 227.189 567.708 218.463 526.931 209.894L526.915 209.891L526.898 209.887C516.558 207.697 496.636 205.22 475.761 204.586C454.18 203.929 435.206 205.393 424.915 209.112L424.891 209.12L424.868 209.129C419.823 210.939 401.265 216.93 384.396 222.294C375.84 225.014 367.518 227.636 361.26 229.578C358.141 230.545 355.478 231.361 353.537 231.94C352.584 232.225 351.701 232.483 350.989 232.68C350.658 232.772 350.192 232.898 349.707 233.015C349.489 233.067 349.03 233.176 348.469 233.28C348.199 233.33 347.672 233.423 347.008 233.499C346.998 233.5 346.986 233.501 346.972 233.503C346.601 233.546 344.721 233.767 342.383 233.507L342.155 233.482L250.027 221.151L255.466 180.514L343.152 192.25C344.74 191.769 346.755 191.15 349.112 190.419C355.244 188.516 363.466 185.926 371.973 183.221C389.203 177.743 406.82 172.043 411.007 170.543C429.214 163.971 455.025 162.936 477.007 163.605Z" fill="#FF7373"></path>
<path d="M602.646 191.032C602.146 192.532 600.847 193.432 599.946 193.132C599.046 192.832 598.847 191.832 599.446 190.432C599.946 188.932 600.946 187.132 601.847 187.432C602.746 187.732 603.246 189.532 602.646 191.032Z" fill="#521F20" fill-opacity="0.2"></path>
<path d="M319.348 196.332C318.848 197.832 317.548 198.732 316.648 198.432C315.748 198.132 315.548 197.132 316.148 195.732C316.648 194.232 317.648 192.432 318.548 192.732C319.448 193.032 319.948 194.832 319.348 196.332Z" fill="#521F20" fill-opacity="0.2"></path>
<path d="M407.347 181.733C407.347 183.333 406.047 183.833 404.447 183.833C402.847 183.833 401.547 183.233 401.547 181.733C401.547 180.133 402.847 178.833 404.447 178.833C406.047 178.833 407.347 180.233 407.347 181.733Z" fill="#521F20" fill-opacity="0.2"></path>
<path d="M447.547 170.132C449.547 160.332 445.247 156.032 441.947 142.732C448.247 137.732 466.447 129.132 469.547 142.132C472.947 156.332 477.347 160.432 476.347 169.732C475.247 180.432 444.047 187.332 447.547 170.132Z" fill="#2249B3"></path>
<path d="M447.547 170.132C449.547 160.332 445.247 156.032 441.947 142.732C448.247 137.732 466.447 129.132 469.547 142.132C472.947 156.332 477.347 160.432 476.347 169.732C475.247 180.432 444.047 187.332 447.547 170.132Z" fill="black" fill-opacity="0.24"></path>
<path d="M435.382 141.902C437.461 141.005 437.728 136.989 435.979 132.932C434.229 128.875 431.125 126.314 429.046 127.21C426.967 128.107 426.7 132.123 428.449 136.18C430.199 140.236 433.303 142.798 435.382 141.902Z" fill="#2249B3"></path>
<path fill-rule="evenodd" clip-rule="evenodd" d="M434.847 142.133C433.547 139.933 432.547 136.933 431.547 134.033C430.747 131.533 429.847 129.133 428.947 127.333C428.947 127.333 429.047 127.333 429.047 127.233C429.547 127.033 430.147 127.033 430.747 127.133L432.847 128.333C433.147 128.633 433.547 129.033 433.847 129.433L437.047 138.733C436.947 140.233 436.347 141.433 435.347 141.833C435.247 142.033 435.047 142.033 434.847 142.133Z" fill="black" fill-opacity="0.43"></path>
<path fill-rule="evenodd" clip-rule="evenodd" d="M447.204 159.543C446.904 158.543 445.646 154.932 445.246 153.732C444.947 152.832 444.546 151.832 444.146 150.732C446.346 151.032 449.046 152.232 451.746 153.432C455.646 155.132 467.36 150.943 469.96 150.243C469.76 150.343 467.997 156.149 464.755 158.265C459.408 161.754 455.304 163.443 447.204 159.543Z" fill="black" fill-opacity="0.43"></path>
<path d="M449.847 106.232C438.947 107.632 425.447 98.6323 426.947 110.532C429.547 120.932 434.747 143.432 436.547 145.832C438.347 148.232 444.747 152.232 447.547 154.332C451.147 156.432 455.347 157.232 459.547 156.732C463.047 156.332 465.947 154.732 469.047 152.132C472.947 148.832 474.247 144.332 475.247 141.032V140.932C476.747 135.732 475.647 131.632 475.847 123.532C475.047 117.432 476.247 104.032 471.747 102.332C467.347 100.732 455.247 105.532 449.847 106.232Z" fill="#2249B3"></path>
<path d="M452.807 145.929C452.507 145.729 452.107 145.729 451.907 146.029C451.707 146.329 451.707 146.729 452.007 146.929L452.807 145.929ZM462.807 145.329C463.007 145.029 463.007 144.629 462.707 144.429C462.407 144.229 462.007 144.229 461.807 144.529L462.807 145.329ZM452.007 146.929C453.607 148.329 455.707 148.629 457.707 148.329C459.707 147.929 461.507 146.929 462.807 145.329L461.807 144.429C460.707 145.729 459.107 146.629 457.407 146.929C455.807 147.229 454.107 146.929 452.807 145.829L452.007 146.929Z" fill="black" fill-opacity="0.43"></path>
<path d="M441.147 122.332L445.747 121.732L437.047 136.232L433.947 133.432L441.147 122.332Z" fill="white" fill-opacity="0.392"></path>
<path d="M448.046 125.732L449.446 126.832L442.046 138.732L440.246 137.732L448.046 125.732Z" fill="white" fill-opacity="0.392"></path>
<path d="M466.046 117.833L470.146 118.533L461.646 132.233L458.746 128.833L466.046 117.833Z" fill="white" fill-opacity="0.392"></path>
<path d="M472.946 121.333L474.346 122.433L466.946 134.333L465.146 133.333L472.946 121.333Z" fill="white" fill-opacity="0.392"></path>
<path d="M442.883 137.998C447.377 137.435 450.564 133.336 450.001 128.842C449.439 124.348 445.34 121.161 440.846 121.724C436.352 122.286 433.165 126.385 433.727 130.879C434.29 135.373 438.389 138.56 442.883 137.998Z" fill="white" fill-opacity="0.28" stroke="#78D2EE" stroke-width="2.0313"></path>
<path d="M467.681 134.197C472.175 133.634 475.362 129.535 474.8 125.041C474.238 120.548 470.139 117.361 465.645 117.923C461.151 118.485 457.964 122.584 458.526 127.078C459.089 131.572 463.188 134.759 467.681 134.197Z" fill="white" fill-opacity="0.28" stroke="#78D2EE" stroke-width="2.0313"></path>
<path d="M459.946 138.132L454.746 128.232L452.746 139.032C452.746 139.032 454.346 140.432 456.646 140.132C458.846 139.832 459.946 138.132 459.946 138.132Z" fill="black" fill-opacity="0.43"></path>
<path d="M475.648 121.733C475.548 122.133 471.748 110.333 471.748 110.333C471.748 110.333 470.848 104.233 470.348 102.533L471.248 100.133C472.348 100.033 473.948 104.333 474.848 107.233C475.648 109.433 475.948 121.033 475.648 121.733Z" fill="#B0C1E1"></path>
<path d="M430.648 106.933C431.548 112.333 433.048 127.433 431.848 128.033C431.648 128.133 431.448 128.133 431.348 128.133L430.248 126.933C430.148 126.933 425.848 106.633 425.848 106.633C425.948 101.333 427.748 102.133 430.648 106.933Z" fill="#B0C1E1"></path>
<path d="M424.246 108.632C435.146 118.232 478.846 104.432 476.146 99.2324C475.246 86.4324 481.846 60.9324 464.746 46.2324C452.646 54.9324 437.446 57.6324 422.346 60.5324C412.846 61.8324 415.946 101.332 424.246 108.632Z" fill="#FF7373"></path>
<path d="M429.047 121.532C428.847 122.032 429.147 122.632 429.647 122.832C430.147 123.032 430.747 122.732 430.947 122.232L429.047 121.532ZM442.047 116.832C442.647 116.832 443.147 116.432 443.147 115.832C443.147 115.232 442.747 114.732 442.147 114.732L442.047 116.832ZM430.947 122.132C431.547 120.332 434.647 116.332 442.047 116.832L442.147 114.832C433.847 114.332 429.947 118.832 429.047 121.532L430.947 122.132Z" fill="#FBFBF6"></path>
<path d="M476.347 114.632C476.747 115.232 476.647 116.032 476.047 116.432C475.447 116.832 474.647 116.732 474.247 116.132L476.347 114.632ZM464.747 114.832C464.147 115.232 463.347 114.932 463.047 114.332C462.647 113.732 462.947 112.932 463.547 112.632L464.747 114.832ZM474.247 116.132C473.647 115.432 472.547 114.332 470.947 113.832C469.347 113.332 467.247 113.332 464.747 114.832L463.447 112.632C466.547 110.832 469.347 110.732 471.647 111.432C473.847 112.132 475.447 113.532 476.347 114.632L474.247 116.132Z" fill="#FBFBF6"></path>
<path d="M540.777 372.373C540.727 372.473 540.677 372.583 540.617 372.683C540.577 372.752 540.537 372.822 540.487 372.893C540.387 373.072 540.287 373.243 540.187 373.413C539.947 373.843 539.687 374.283 539.417 374.702C539.257 374.973 539.087 375.233 538.917 375.493C538.777 375.723 538.617 375.952 538.467 376.183C538.127 376.683 537.787 377.183 537.427 377.673C536.977 378.293 536.507 378.903 536.037 379.493C535.767 379.823 535.497 380.143 535.227 380.463C535.207 380.483 535.197 380.493 535.177 380.512C534.897 380.833 534.617 381.153 534.327 381.452C534.077 381.723 533.827 381.973 533.577 382.223C532.947 382.833 532.327 383.393 531.707 383.863C531.617 383.942 531.517 384.012 531.427 384.083C531.347 384.143 531.267 384.203 531.187 384.252C531.027 384.363 530.867 384.473 530.717 384.572C530.467 384.733 530.227 384.873 529.987 385.002C529.847 385.083 529.707 385.153 529.567 385.223C529.177 385.413 528.797 385.563 528.417 385.663C528.327 385.692 528.227 385.713 528.137 385.733C528.067 385.752 528.007 385.762 527.937 385.773C527.807 385.803 527.677 385.822 527.547 385.833C527.207 385.873 526.837 385.893 526.457 385.913C525.797 385.933 525.087 385.942 524.327 385.913C517.957 385.692 508.907 383.843 504.087 381.803C503.787 381.702 503.597 381.603 503.297 381.502C503.187 381.452 503.077 381.413 502.967 381.363C502.377 381.123 432.177 364.483 414.077 358.882C408.267 357.113 400.987 350.522 401.577 342.252C402.167 333.993 409.647 325.533 414.177 321.493C426.567 310.483 448.997 295.233 470.047 285.793C485.407 278.943 504.167 277.733 521.507 277.043C521.607 277.043 521.697 277.033 521.797 277.033C523.757 276.933 525.627 276.933 527.497 276.833C529.267 298.483 524.447 312.252 513.437 318.643C506.057 322.973 490.607 326.613 474.677 332.512C470.617 333.993 466.467 335.642 462.477 337.483C462.217 337.593 461.947 337.713 461.687 337.833C461.877 337.873 462.067 337.913 462.267 337.952C465.947 338.723 471.697 339.763 478.507 340.973C482.047 341.663 485.787 342.353 489.727 343.143C491.607 343.533 493.497 343.923 495.377 344.363C495.857 344.483 496.327 344.593 496.807 344.713C502.697 346.103 508.737 347.643 514.317 349.463C515.077 349.713 515.837 349.963 516.577 350.223C518.457 350.873 520.297 351.543 522.067 352.262C522.657 352.493 523.247 352.733 523.817 352.983C525.937 353.882 527.937 354.822 529.797 355.833C530.607 356.262 531.387 356.703 532.137 357.163C532.237 357.223 532.337 357.283 532.437 357.343C532.877 357.613 533.307 357.893 533.717 358.163C533.747 358.183 533.777 358.203 533.797 358.213C534.027 358.373 534.257 358.523 534.477 358.683C534.967 359.023 535.447 359.373 535.897 359.733C536.117 359.903 536.327 360.073 536.537 360.243C537.037 360.653 537.507 361.073 537.957 361.503C538.117 361.653 538.267 361.803 538.417 361.953C538.657 362.193 538.897 362.443 539.117 362.693C539.247 362.833 539.367 362.973 539.487 363.113C539.617 363.262 539.747 363.413 539.857 363.563C541.857 366.072 542.207 369.513 540.777 372.373Z" fill="#2249B3"></path>
<path d="M541.576 370.843C541.326 371.353 541.056 371.863 540.776 372.373C540.686 372.553 540.586 372.723 540.486 372.893C540.386 373.073 540.286 373.243 540.186 373.413C539.946 373.843 539.686 374.283 539.416 374.703C539.256 374.973 539.086 375.233 538.916 375.493C538.776 375.723 538.616 375.953 538.466 376.183C538.126 376.683 537.786 377.183 537.426 377.673C536.976 378.293 536.506 378.903 536.036 379.493C535.766 379.823 535.496 380.143 535.226 380.463C535.206 380.483 535.196 380.493 535.176 380.513C534.896 380.833 534.616 381.153 534.326 381.453C534.076 381.723 533.826 381.973 533.576 382.223C532.946 382.833 532.326 383.393 531.706 383.863C531.616 383.943 531.516 384.013 531.426 384.083C531.346 384.143 531.266 384.203 531.186 384.253C531.026 384.363 530.866 384.473 530.716 384.573C530.466 384.733 530.226 384.873 529.986 385.003C529.846 385.083 529.706 385.153 529.566 385.223C529.176 385.413 528.796 385.563 528.416 385.663C528.326 385.693 528.226 385.713 528.136 385.733C528.066 385.753 528.006 385.763 527.936 385.773C527.806 385.803 527.676 385.823 527.546 385.833C527.206 385.873 526.836 385.893 526.456 385.913C525.796 385.933 525.086 385.943 524.326 385.913C517.956 385.693 508.906 383.843 504.086 381.803C503.786 381.703 503.596 381.603 503.296 381.503C503.186 381.453 503.076 381.413 502.966 381.363C513.666 378.983 534.556 371.673 535.346 365.433C536.046 360.233 518.846 353.033 506.546 348.633C506.276 348.533 506.016 348.443 505.756 348.343C505.746 348.343 505.746 348.343 505.746 348.343C496.996 347.033 486.486 344.973 473.886 341.823C464.786 339.623 452.386 341.223 452.386 341.223L456.686 336.923L442.386 342.323L447.486 337.323L438.586 335.823L446.186 334.923L440.486 332.623C440.486 332.623 451.856 332.753 461.826 332.493C483.986 327.223 506.156 316.713 513.046 309.143C523.686 297.623 521.576 285.243 521.506 277.043C521.506 276.373 521.516 275.743 521.546 275.133C523.546 275.033 525.446 275.033 527.346 274.933C527.396 275.573 527.446 276.203 527.496 276.833C529.266 298.483 524.446 312.253 513.436 318.643C506.056 322.973 490.606 326.613 474.676 332.513C470.616 333.993 466.466 335.643 462.476 337.483C462.216 337.593 461.946 337.713 461.686 337.833C461.876 337.873 462.066 337.913 462.266 337.953C465.946 338.723 471.696 339.763 478.506 340.973C482.046 341.663 485.786 342.353 489.726 343.143C491.606 343.533 493.496 343.923 495.376 344.363C495.856 344.483 496.326 344.593 496.806 344.713C502.696 346.103 508.736 347.643 514.316 349.463C515.076 349.713 515.836 349.963 516.576 350.223C518.456 350.873 520.296 351.543 522.066 352.263C522.656 352.493 523.246 352.733 523.816 352.983C525.936 353.883 527.936 354.823 529.796 355.833C530.606 356.263 531.386 356.703 532.136 357.163C532.236 357.223 532.336 357.283 532.436 357.343C532.876 357.613 533.306 357.893 533.716 358.163C533.746 358.183 533.776 358.203 533.796 358.213C534.026 358.373 534.256 358.523 534.476 358.683C534.966 359.023 535.446 359.373 535.896 359.733C536.116 359.903 536.326 360.073 536.536 360.243C537.036 360.653 537.506 361.073 537.956 361.503C538.116 361.653 538.266 361.803 538.416 361.953C538.656 362.193 538.896 362.443 539.116 362.693C539.246 362.833 539.366 362.973 539.486 363.113C539.616 363.263 539.746 363.413 539.856 363.563C540.546 364.403 541.116 365.273 541.586 366.173C542.336 367.623 542.306 369.373 541.576 370.843Z" fill="#06080A"></path>
<path d="M407.348 190.233L462.818 188.033C464.211 187.733 465.496 187.533 466.888 187.333L484.45 169.333C508.544 166.033 529.319 172.833 529.748 192.733C518.825 213.033 530.818 264.233 529.64 269.633C528.57 274.733 525.143 277.733 519.574 278.533L451.36 284.333C445.792 285.133 439.688 285.933 437.118 281.333C434.441 276.633 436.796 268.633 432.941 260.933C430.264 255.533 433.798 249.633 430.693 243.733C428.872 240.233 422.554 227.433 421.269 223.633C414.63 205.233 407.348 190.233 407.348 190.233Z" fill="#FF7373"></path>
<path fill-rule="evenodd" clip-rule="evenodd" d="M452.447 228.932C469.947 230.532 484.147 228.432 503.047 218.732C503.947 218.232 505.047 218.532 505.747 219.332C485.747 229.832 469.947 233.132 455.247 232.132C440.547 231.232 426.847 226.032 422.647 223.432C422.147 223.132 422.047 222.432 422.247 221.932C422.447 221.332 423.047 221.132 423.547 221.432C427.447 223.932 437.947 228.032 452.447 228.932Z" fill="white"></path>
<path fill-rule="evenodd" clip-rule="evenodd" d="M452.647 208.132C470.247 208.132 484.247 204.632 502.447 193.232C503.347 192.632 503.347 195.332 504.047 196.032C484.747 208.332 470.347 210.632 455.647 211.032C440.947 211.432 426.947 207.632 422.647 205.432C422.147 205.232 421.947 204.532 422.147 203.932C422.347 203.332 422.947 203.132 423.347 203.332C427.447 205.432 438.147 208.632 452.647 208.132Z" fill="white"></path>
<path d="M511.848 174.333C513.448 174.333 517.248 173.633 517.248 175.133C517.248 176.733 513.848 179.533 512.248 179.533C510.648 179.533 506.348 179.633 506.348 178.133C506.348 176.533 510.248 174.333 511.848 174.333Z" fill="#521F20" fill-opacity="0.2"></path>
<path d="M379.981 289.495C379.981 289.495 386.33 296.475 386.447 301.732C386.564 306.99 374.326 359.309 375.147 372.533" stroke="#F2FFF4" stroke-miterlimit="10" stroke-linecap="round"></path>
<path d="M291.371 292.497C299.586 292.497 306.246 285.837 306.246 277.622C306.246 269.407 299.586 262.747 291.371 262.747C283.156 262.747 276.496 269.407 276.496 277.622C276.496 285.837 283.156 292.497 291.371 292.497Z" stroke="#005B9D" stroke-miterlimit="10"></path>
</svg>
